<?xml version="1.0" standalone="no"?>
<!DOCTYPE svg PUBLIC "-//W3C//DTD SVG 1.1//EN" "http://www.w3.org/Graphics/SVG/1.1/DTD/svg11.dtd" >
<svg xmlns="http://www.w3.org/2000/svg">
<metadata></metadata>
<defs>
<font id="berliner_grotesk_ddemi_bold" horiz-adv-x="1024" >
<font-face units-per-em="2048" ascent="1638" descent="-410" />
<missing-glyph horiz-adv-x="512" />
<glyph unicode="&#xfb01;" horiz-adv-x="933" d="M23 952q0 18 1 28.5t6 18t16 12.5t32 11q16 4 26.5 20.5t10.5 34.5q0 8 -1 26.5t-3 45.5q-2 10 -2 33q0 49 9 78.5t29 48.5q29 23 68 41t61 18l70 -2h31q86 0 120.5 -14.5t34.5 -48.5v-17.5t-2 -21.5l-2 -11v-73q0 -16 -18 -33t-39 -17q-10 0 -23.5 3.5t-35.5 7.5 q-20 4 -27 4q-43 0 -43 -74q0 -23 10 -37t27 -14q16 0 27 2q10 2 30 2q29 0 49.5 -20.5t20.5 -51.5v-12t-2 -18v-15v-14q2 -16 3 -27.5t1 -15.5q0 -18 -16.5 -34.5t-36.5 -16.5q-4 0 -7.5 1t-21.5 5q-4 2 -14 2q-47 0 -47 -53v-11.5t2 -13.5q2 -10 2 -15v-7q0 -4 -1 -14.5 t-3 -24.5q-2 -12 -3.5 -22.5t-1.5 -20.5q0 -12 1 -29.5t4 -40.5q2 -20 2 -32.5v-26.5l-2 -68l-3.5 -31.5t-1.5 -17.5q0 -8 2 -14q2 -27 2.5 -36.5t0.5 -39.5q0 -8 1 -23.5t3 -38.5q-4 -37 -4 -44v-15q0 -14 1 -24.5t11 -49.5q2 -10 3 -21.5t1 -21.5q0 -61 -72 -61h-20t-35 2 l-57 -2q-49 0 -71 26.5t-22 89.5v22.5t1 18t4.5 20.5t7.5 32q2 6 2 22v9.5t-4 33.5l2 39q-4 35 -5 41t-1 16v17.5t2 19.5q0 4 1 6.5t1 6.5v6l-6 84l4 104q0 10 -1 17.5t-8 48.5q4 35 4.5 42t0.5 15q0 25 -1.5 38t-8.5 21.5t-21.5 14.5t-40.5 14l-12 8l4 76q0 2 -1 6t-3 15 q-2 6 -2 32zM586 94q0 10 2 24.5t6 35.5q6 37 6 49l-2 73v33l-2 101q-2 14 -2 25v18v23t2 22q2 16 3 29.5t1 17.5v12q-4 18 -4 30.5v18.5l4 195q-2 18 -4 44.5t-4 51.5t-4 44.5t-2 21.5q0 25 17.5 43t39.5 18q8 0 16.5 -1t18.5 -3q33 -6 47 -6q2 0 19.5 1t43.5 5h19 q49 0 49 -49l-4 -88q-6 -35 -12 -144q-2 -8 -2 -18v-6l2 -131v-21.5v-20t-1 -27.5t-3 -48l2 -16v-29v-19q-2 -8 -2 -18v-6q0 -4 1 -12.5t3 -20.5q2 -16 2 -26.5v-51.5l4 -55l-2 -49q0 -4 1 -14.5t11 -57.5q2 -14 3 -24.5t1 -20.5q0 -25 -16.5 -42t-38.5 -17q-6 0 -13.5 1 t-17.5 3q-25 6 -37 6q-2 0 -18.5 -1t-40.5 -5q-8 -2 -21 -2q-35 0 -53 27.5t-18 76.5zM590 1286q0 88 65 88h13.5t27.5 -4q12 -2 23.5 -3t21.5 -1q12 0 21 2l15 3t7 1q27 0 49.5 -12t22.5 -27l-4 -92q0 -2 1 -10t3 -19q2 -8 2 -20q0 -66 -78 -66h-18t-17 2l-36 2h-12.5 t-16.5 -2q-8 -2 -15.5 -2h-11.5q-51 0 -57 43v41z" />
<glyph unicode="&#xfb02;" horiz-adv-x="946" d="M23 952q0 18 1 28.5t6 18t16 12.5t32 11q16 4 26.5 20.5t10.5 34.5q0 8 -1 26.5t-3 45.5q-2 10 -2 33q0 49 9 78.5t29 48.5q29 23 68 41t61 18l70 -2h31q86 0 120.5 -14.5t34.5 -48.5v-17.5t-2 -21.5l-2 -11v-73q0 -16 -18 -33t-39 -17q-10 0 -23.5 3.5t-35.5 7.5 q-20 4 -27 4q-43 0 -43 -74q0 -23 10 -37t27 -14q16 0 27 2q10 2 30 2q29 0 49.5 -20.5t20.5 -51.5v-12t-2 -18v-15v-14q2 -16 3 -27.5t1 -15.5q0 -18 -16.5 -34.5t-36.5 -16.5q-4 0 -7.5 1t-21.5 5q-4 2 -14 2q-47 0 -47 -53v-11.5t2 -13.5q2 -10 2 -15v-7q0 -4 -1 -14.5 t-3 -24.5q-2 -12 -3.5 -22.5t-1.5 -20.5q0 -12 1 -29.5t4 -40.5q2 -20 2 -32.5v-26.5l-2 -68l-3.5 -31.5t-1.5 -17.5q0 -8 2 -14q2 -27 2.5 -36.5t0.5 -39.5q0 -8 1 -23.5t3 -38.5q-4 -37 -4 -44v-15q0 -14 1 -24.5t11 -49.5q2 -10 3 -21.5t1 -21.5q0 -61 -72 -61h-20t-35 2 l-57 -2q-49 0 -71 26.5t-22 89.5v22.5t1 18t4.5 20.5t7.5 32q2 6 2 22v9.5t-4 33.5l2 39q-4 35 -5 41t-1 16v17.5t2 19.5q0 4 1 6.5t1 6.5v6l-6 84l4 104q0 10 -1 17.5t-8 48.5q4 35 4.5 42t0.5 15q0 25 -1.5 38t-8.5 21.5t-21.5 14.5t-40.5 14l-12 8l4 76q0 2 -1 6t-3 15 q-2 6 -2 32zM592 80v21.5t1 19.5t4 25.5t7 41.5q2 10 2 21.5v26.5q0 14 -1 24t-5 51v29v20q0 10 1 20.5t1 16.5q0 8 2 15l-8 69l6 51v181q2 20 2 37.5v33.5v52v19t2 28q2 10 2 15v9l-2 49q-2 47 -3 104.5t-1 84.5v16l-4 92v13q0 47 21.5 75.5t56.5 28.5h13t13 -2t15 -2 q4 0 6 -2q45 4 53 5t12 1q84 0 84 -90q0 -16 -1 -24.5t-9 -36.5q-4 -12 -12 -99q-2 -10 -2 -18v-12q0 -8 1 -21.5t3 -34.5q2 -18 3 -36.5t1 -36.5q0 -16 -1 -27.5t-3 -56.5q-2 -25 -3 -46.5t-1 -44.5v-34.5t2 -32.5q2 -23 3 -38t1 -22v-15t-2 -23q-2 -29 -3 -50.5t-1 -38.5 v-32.5t4 -40.5l2 -33v-57l2 -66q2 -10 2 -19.5v-17.5q0 -23 -2 -30q-2 -20 -3 -33t-1 -15v-4t1 -10t4 -25.5t7 -50.5q6 -37 6 -49q0 -29 -17 -47t-46 -18q-10 0 -31 4q-20 4 -34.5 6t-18.5 2q-8 0 -29 -6q-29 -6 -39 -6q-63 0 -63 96z" />
<glyph horiz-adv-x="2048" />
<glyph horiz-adv-x="2048" />
<glyph unicode="&#xd;" horiz-adv-x="512" />
<glyph unicode=" "  horiz-adv-x="512" />
<glyph unicode="&#x09;" horiz-adv-x="512" />
<glyph unicode="&#xa0;" horiz-adv-x="512" />
<glyph unicode="!" horiz-adv-x="557" d="M131 1286q0 37 19.5 59.5t52.5 22.5q14 0 24 -2q16 -2 28.5 -3t16.5 -1q6 0 17.5 1t25.5 3q10 2 19.5 3t15.5 1q76 0 76 -129q0 -14 -1 -23.5t-5 -31.5l-6 -35q-2 -14 -4 -28.5t-7 -28.5q-8 -35 -9 -42.5t-1 -23.5v-35q2 -18 2 -34.5v-30.5q0 -23 -1 -34t-9 -50 q-6 -29 -7 -54.5t-1 -76.5q0 -16 -1 -24.5t-5 -37.5l-2 -57l-4 -37q-6 -35 -7 -49q0 -10 2 -25.5t7 -44.5l2 -35q0 -63 -84 -63h-40.5t-23.5 2t-12 6t-8 10q-16 20 -17 48q0 8 1 24t3 39q2 10 2 17.5v15.5q0 29 -2 57.5t-6 61.5l-8 73l-2 41v21.5t-4 23.5q-4 23 -5 55.5 t-5 79.5q0 12 -1 23.5t-3 26.5q-4 27 -8.5 67.5t-8.5 95.5v12.5t2 28.5v17q0 6 -1 15t-5 59q-2 10 -2 26zM135 29l6 106q-2 4 -2 10q0 4 -1 10.5t-1 14.5q-2 10 -2 27q0 35 12.5 48t45.5 13h17t17 -2q33 -6 45 -6q10 0 35 6q10 2 19.5 3t17.5 1q23 0 39 -15.5t20 -37.5 q2 -10 3 -43v-31q2 -35 2 -57.5v-24.5q0 -14 -6.5 -33.5t-14.5 -23.5q-8 -8 -29.5 -12.5t-48.5 -4.5h-12t-41 5l-53 -2q-31 0 -53 22q-4 6 -9.5 14.5t-5.5 12.5z" />
<glyph unicode="&#x22;" horiz-adv-x="862" d="M96 1319v12q0 23 7.5 29t31.5 6h211q37 -2 37 -25q0 -14 -2 -22l-2 -66v-28.5t-1 -20.5t-4 -23.5t-7 -37.5q-2 -6 -4.5 -28.5t-5.5 -47.5t-5 -47.5t-2 -28.5q0 -59 -4 -104t-12 -58q-4 -8 -10.5 -10t-28.5 -2l-55 -2q-37 2 -56.5 3t-29 3t-11.5 6t-2 11q-2 4 -3 12t-1 10 q-2 35 -4 61.5t-4 49.5q-2 12 -3 19t-1 15.5t-1 20.5t-3 31q-2 35 -3 49t-5 37t-8.5 66.5t-8.5 109.5zM479 1329q0 27 13 33q2 2 98 8q20 0 47 -1t51.5 -2t43 -2t22.5 -3q14 -6 14 -23q0 -10 -1 -17t-5 -48q-4 -16 -4 -23.5t-2 -42.5l-8 -63l-5 -45q-4 -45 -12 -109l2 -65 q-4 -41 -7 -62.5t-8 -32t-12.5 -12.5t-21.5 -2l-59 2l-62 -2q-27 0 -32 5t-9 38q-4 25 -6 39t-3 24.5t-1 19.5v26q0 14 -2 40.5t-5 57.5t-7 62.5t-9 58.5l3 65q-10 51 -11.5 61.5t-1.5 14.5z" />
<glyph unicode="#" horiz-adv-x="1454" d="M133 397v8.5t1 10.5t3 19.5t6 35.5q4 18 6.5 27.5t6.5 46.5q4 39 8 50t14 15h23q10 0 27.5 1t39.5 3l68 -4q25 0 32 6.5t11 34.5l12 80q2 10 2 23q0 18 -14 26h-6t-17 2h-18t-41 4l-61 -4q-37 0 -37 25q0 12 3 38.5t7 55.5t10 55.5t10 42.5q2 14 18.5 18.5t84.5 4.5 l67 -2q23 0 30 6t11 29q12 61 19.5 101t11.5 68.5t7 51t7 49.5q4 29 11.5 35t42.5 6h29.5t23.5 -2q4 -2 9 -2h9t6 -2l107 6q12 0 22.5 -7t10.5 -18q0 -4 -1 -16t-3 -27.5t-4.5 -29t-2.5 -15.5l-16 -59l-2 -64l-12 -61q-2 -6 -2 -20q0 -18 8 -23.5t35 -5.5h82q16 0 25 2 t14.5 11t8.5 30.5t7 62.5q2 16 4 25.5t3 21t4 25.5t9 39q2 4 15 88q2 14 5 23.5t11 12.5t25.5 4t48.5 1l80 -2l61 2q43 0 43 -25t-6 -64.5t-16 -84.5q-2 -10 -6.5 -30.5t-7.5 -44t-5 -43t-2 -27.5q0 -20 15 -25l79 -6l58 4q39 0 39 -25q0 -6 -3.5 -31.5t-8.5 -56t-10 -58.5 t-7 -40q-4 -16 -10 -21.5t-29 -5.5l-65 2q-37 0 -57.5 -1t-31 -5t-14.5 -12t-6 -25l-12 -79q-2 -8 -2 -13.5v-9.5q0 -10 1 -15.5t10 -8.5t29.5 -4t57.5 -3l57 2q41 0 41 -26q0 -12 -4 -44t-10 -65t-12.5 -59.5t-8.5 -30.5q-4 -8 -8 -10t-16 -2h-55h-13.5h-12.5t-20.5 -1 t-37.5 -1q-29 0 -36 -5.5t-12 -27.5q-16 -100 -27 -174t-20 -123q-6 -37 -20 -39q-4 -2 -6 -2h-15h-15t-60 -4h-17.5t-36.5 2l-59 2q-45 2 -45 25q0 8 4 33.5t10 60.5q6 33 8.5 47t6.5 43q2 18 3 28.5t2 18.5t3 18.5t6 26.5q4 23 5 28t1 15q0 18 -8 23.5t-37 5.5h-80 q-29 0 -36 -5.5t-11 -29.5q-2 -4 -2 -10t-4 -45q-2 -18 -3 -27.5t-11 -44.5q-4 -18 -5.5 -24.5t-5.5 -24.5q-2 -47 -18 -121q-4 -29 -11.5 -35t-31.5 -6l-64 2l-59 -4q-39 2 -60.5 4t-30.5 4t-11 6t-2 13l2 26q6 35 10 56.5t4 33.5q4 23 5 40.5t5 27.5q8 33 10 42t7 25l4 46 q2 10 2 24q0 10 -2 15.5t-16.5 8.5t-46.5 3h-89q-43 0 -43 24zM643 610q18 -2 29.5 -2h19.5l123 2q6 25 9 42.5t6.5 36t5.5 40t6 53.5q-29 2 -46.5 2h-33.5h-35.5t-56.5 -2l-11 -57l-6 -57l-6 -39z" />
<glyph unicode="$" d="M113 158v13t2 12t6 19.5t10 35.5l6 47q4 45 20.5 62.5t51.5 17.5q18 0 27.5 -7.5t33.5 -38.5q14 -16 29.5 -25t44.5 -18q4 -2 20.5 -8t45.5 -18q4 -2 28.5 -6t69.5 -8q10 0 25.5 3t31 8t28.5 11t19 10q47 43 47 107q0 25 -6 61.5t-14 52.5q-2 8 -6 13.5t-21 23.5 q-4 4 -8 9.5t-8 9.5q-4 8 -37 28q-2 0 -43 35q-4 2 -8 5t-12 8q-14 8 -23.5 12t-16.5 10t-15.5 13.5t-20.5 21.5q-10 10 -15.5 14t-31.5 23q-16 12 -37 27.5t-39 30.5t-32.5 28.5t-20.5 19.5t-15.5 21.5t-18.5 32t-17.5 32t-10.5 23.5q-2 4 -3 8t-5 23q0 8 -6 26 q-8 29 -9 34t-1 15q0 12 2 19v12q0 2 2 4l-2 53q0 8 5 23.5t12 32t15.5 32t14.5 23.5q25 27 43 44t37.5 28.5t46 19.5t65.5 16q59 16 60 60q0 2 -1 12t-3 25q-2 6 -2 18q0 23 15 37t38 12l35 -2l39 2q16 0 27 -13t11 -34q0 -27 -6 -57q-2 -8 -3 -14.5t-1 -12.5 q0 -16 15.5 -22t52.5 -6q20 2 40.5 -4.5t59.5 -22.5q47 -20 65.5 -37.5t18.5 -44.5q0 -16 -10 -41q-4 -10 -8 -17t-8 -16l-9 -37q-6 -82 -57 -81q-8 0 -14 1t-13.5 6t-20.5 15t-36 31q-14 10 -30.5 15t-47.5 9q-4 0 -11 2t-22 7q-16 4 -28 4q-4 0 -26.5 -2t-39.5 -5 q-33 -4 -53 -27.5t-20 -55.5q0 -10 3 -19.5t14 -22t32.5 -32t60.5 -51.5q29 -25 45.5 -36.5t46.5 -29.5q31 -16 49.5 -27.5t31.5 -21.5t24.5 -24.5t27.5 -37.5q4 -8 12.5 -14t18.5 -16q41 -33 63.5 -66t47.5 -90q16 -41 19 -50t3 -20q0 -6 1 -10t1 -13t1 -25.5t3 -47.5 q0 -6 -3 -28.5t-8 -50t-11 -55.5t-12 -48q0 -2 -6.5 -12.5t-12.5 -22.5t-12 -22.5t-8 -12.5q-14 -14 -25.5 -26.5t-21.5 -22.5q-23 -23 -56 -43t-61 -26q-35 -6 -47.5 -15.5t-12.5 -27.5q0 -16 3.5 -43t7.5 -60q-2 -16 -15.5 -29.5t-29.5 -11.5q-76 4 -82 6 q-16 2 -29.5 15.5t-13.5 29.5v16.5t2 18.5t2 18.5v16.5q0 20 -2 32.5t-17.5 18.5t-48.5 10.5t-92 8.5q-76 8 -131 47t-55 84z" />
<glyph unicode="%" horiz-adv-x="1531" d="M51 981q0 164 68 279q8 14 20.5 26t36.5 35q23 18 40 30.5t35.5 19.5t39 10t47.5 3q61 0 105 -23.5t89 -80.5q27 -33 39.5 -58.5t22.5 -74.5q12 -49 18 -95t4 -65q-12 -96 -18 -149.5t-12 -83t-12.5 -46t-16.5 -38.5q-47 -96 -100.5 -136t-134.5 -40q-55 0 -97.5 22.5 t-89.5 75.5q-25 29 -40 62.5t-25.5 79.5t-14.5 106.5t-4 140.5zM221 969q0 -66 7.5 -130.5t19.5 -97.5q10 -31 33.5 -50t48.5 -19q18 0 40.5 23.5t37.5 58.5q4 10 9 32.5t9 48t6 49t2 36.5q-4 68 -6 103.5t-4 55t-4 27.5t-4 18q-29 82 -88 82q-35 0 -57.5 -34.5 t-39.5 -116.5q-6 -25 -8 -44.5t-2 -41.5zM416 45q0 27 16.5 61.5t61.5 106.5l14 24.5t10 21.5t9 25.5t12 37.5l26 69q20 47 33.5 84t24.5 64q8 16 14 24q2 2 10 21.5t18.5 44t21.5 52.5t18 50l12 33l14 31l12 45q8 20 19.5 54t25 68.5t25.5 68.5t21 56l24 54l19 67l18 43 l8 25q12 55 26.5 74.5t45.5 19.5q16 0 24 -2l35 -4q23 -2 28 -2t9 -4q20 -16 21 -35q0 -14 -8.5 -33.5t-41.5 -77.5q-10 -18 -17 -34.5t-13 -30.5l-11 -35q-4 -14 -19 -52t-38 -91q-6 -12 -11 -25.5t-9 -30.5l-13 -43q-6 -29 -55 -131q-16 -37 -27.5 -61.5t-18.5 -44 t-12 -36.5t-12 -42l-10 -25q-16 -31 -31 -69q-10 -20 -16 -41t-14 -43q-8 -25 -15.5 -49.5t-15.5 -46.5l-76 -193q-18 -59 -28.5 -77.5t-24.5 -18.5q-23 0 -34 -1t-20 -1t-18.5 -1t-23.5 -1q-43 0 -43 57zM918 473q0 88 21.5 165t61.5 128q43 55 88 76.5t117 21.5 q78 0 131.5 -36.5t100.5 -127.5q20 -41 32.5 -106.5t12.5 -140.5q0 -33 -1 -54.5t-2 -39t-4 -32t-8 -32.5q-23 -88 -48 -148.5t-58 -98.5t-76 -55.5t-98 -17.5q-53 0 -104.5 29t-86.5 76q-23 29 -43 77t-26 79q-2 12 -4 37.5t-3 59.5t-2 70.5t-1 69.5zM1090 446 q0 -156 26.5 -224t85.5 -68q20 0 29.5 9t30.5 46q6 12 10 20.5t7 19.5t6 27.5t7 47.5q8 41 9.5 51t1.5 24q-1 291 -105 291q-88 0 -100 -164q0 -4 -6 -47q-2 -8 -2 -33z" />
<glyph unicode="&#x26;" horiz-adv-x="1185" d="M104 336q0 66 12.5 119t35.5 86q12 18 23 32.5t24.5 26.5t32 26.5t47.5 37.5q23 18 22 32q0 8 -12 25q-29 47 -42.5 86t-13.5 90q0 57 30 116.5t75 88.5q76 51 182 51q72 0 112 -9t79 -36q47 -35 73.5 -84t26.5 -102q0 -10 -1 -32t-5 -48q0 -12 -10 -33q-2 -4 -13 -39 q-4 -14 -9 -25.5t-16.5 -23.5t-31.5 -29.5t-53 -44.5q-18 -16 -19 -37q0 -20 11.5 -36.5t56.5 -59.5l14 -20l6 -11q27 -43 47 -43q16 0 33 31t17 59q0 4 -1 8.5t-3 12.5q-12 45 -13 63q0 47 41 58q10 4 23.5 5t60.5 1l37 2q10 2 16.5 3t10.5 1q29 0 51 -29.5t22 -68.5 q0 -49 -10 -92t-33 -99q-6 -12 -16 -30.5t-21.5 -37t-21.5 -36t-18 -27.5t-9 -22q0 -16 15.5 -27.5t40.5 -11.5h20q10 2 27 2q23 0 37 -12.5t16 -30.5v-30.5t1 -23t3 -25.5t6 -40q0 -33 -24.5 -52.5t-63.5 -19.5q-63 0 -108 23q-4 2 -16.5 8t-35.5 18q-14 6 -23 11.5 t-17.5 10.5t-19.5 13t-32 23q-10 6 -20 6q-4 0 -7 -1t-9.5 -5t-15.5 -13.5t-26 -25.5q-12 -10 -17 -14.5t-28 -18.5t-38 -22.5t-38.5 -12.5t-58.5 -5t-96 -1q-45 0 -106.5 26.5t-108.5 63.5q-53 43 -72 97q-16 41 -25.5 92t-9.5 92zM344 287q0 -45 41 -82t92 -37 q53 0 91 26.5t38 67.5q0 16 -6 27.5t-25 34.5q-6 8 -12 14t-10 12l-27 39l-18 23l-16 20l-7 10q-23 35 -27.5 41t-21.5 6q-12 0 -27.5 -14t-31 -34.5t-24.5 -43t-9 -37.5l2 -34zM453 905q0 -25 6 -49.5t17 -44.5t23.5 -33.5t24.5 -13.5q27 0 51.5 36t24.5 72q0 109 -63 109 q-37 0 -60.5 -20.5t-23.5 -55.5z" />
<glyph unicode="'" horiz-adv-x="479" d="M96 1319v12q0 23 9.5 29t37.5 6h195q45 0 45 -25q0 -14 -2 -22l-2 -66v-28.5t-1 -20.5t-4 -23.5t-7 -35.5q-4 -16 -4.5 -24.5t-2.5 -41.5q0 -23 -6 -65q-4 -16 -4 -24.5v-41.5q0 -41 -6 -80t-16 -45q-6 -6 -88 -8q-35 2 -54.5 3t-29 3t-11.5 6t-4 11q0 4 -1 12t-3 10 q-2 35 -3 61.5t-5 49.5q-4 25 -4 38t-2 48q-4 35 -5 49t-5 37t-8.5 66.5t-8.5 109.5z" />
<glyph unicode="(" horiz-adv-x="718" d="M123 532q0 141 12 207q2 6 3 12.5t12 30.5q6 14 9 22.5t5 14.5t4 14.5t6 22.5t5 20.5t11 28.5q10 25 21 64q10 25 14 34t21 31l108 189q14 20 23.5 32.5t16.5 20.5t17.5 16t26.5 21q35 27 54.5 41t32 20t20.5 7t22 1q86 0 86 -71v-27.5t-2 -21.5q-2 -12 -2 -20.5v-10.5 v-13.5t2 -19.5q2 -14 3 -25.5t1 -21.5q0 -23 -9 -29t-60 -20q-25 -8 -34 -19.5t-30 -52.5q-4 -16 -22 -41l-37 -61q-4 -8 -7 -15.5t-7 -15.5l-13 -27l-8 -14q-12 -25 -19.5 -38t-10.5 -22.5t-4 -15.5t-1 -16q-6 -68 -6 -98q-2 -6 -3 -25.5t-5 -54.5v-21q0 -12 2 -21t12 -55 l4 -36q0 -14 1 -23.5t4.5 -19t8.5 -21.5t13 -33q8 -23 14 -38t10.5 -25t6.5 -20.5t4 -24.5q4 -23 7 -33t17 -35q4 -10 7.5 -18t7.5 -15q12 -33 30 -43l22.5 -9t29.5 -9q37 -14 53 -40t16 -73q0 -8 -1 -12t-7 -24q-4 -12 -4 -19q0 -8 2 -19.5t6 -52.5q2 -10 3 -17t1 -9 q0 -23 -17.5 -43.5t-39.5 -20.5q-37 0 -91.5 35t-113.5 96q-23 27 -57.5 82.5t-65.5 116.5q-6 14 -15 29.5t-20 31.5l-20 33l-10 35l-13 39q-6 16 -12 32.5t-12 32.5q-4 6 -5 11.5t-3 14.5t-5.5 26.5t-9.5 48.5l-10 53q-4 16 -5 26.5t-1 32.5z" />
<glyph unicode=")" horiz-adv-x="718" d="M63 -12q0 23 9.5 29t60.5 20q25 8 34 19.5t30 52.5q4 8 6 11t2 5l43 72q6 10 11 21t11 24q4 10 10.5 20t10.5 21q12 25 19 38t10.5 22t4.5 15.5t1 16.5q6 68 6 98q2 6 3 25.5t5 54.5v20q0 12 -2 21.5t-12 54.5l-4 37q-2 27 -6.5 41t-20.5 55q-10 25 -15.5 39.5t-9.5 25.5 t-6 20.5t-4 23.5q-4 23 -7 33t-17 34q-8 8 -15 33q-12 33 -31 43q-14 4 -26 9.5t-25 9.5q-37 14 -53 39.5t-16 72.5q0 8 1 12.5t7 24.5q4 12 4 21q0 6 -1 17t-7 52l-2 27q0 25 18.5 44t42.5 19q35 0 89 -35.5t110 -95.5q23 -27 58.5 -83t64.5 -115q8 -12 16 -27.5t18 -34.5 q6 -10 11.5 -17t9.5 -16l12 -34l10 -39l25 -66q2 -6 4 -11t4 -14.5t5 -26.5t10 -48q2 -16 4 -28.5t6 -24.5q4 -16 5 -26.5t1 -33.5q0 -143 -12 -207q-2 -6 -3 -12t-12 -31q-16 -37 -24 -73q-4 -14 -5 -20.5t-12 -29.5q-4 -18 -10 -33.5t-10 -29.5q-10 -25 -14.5 -34 t-20.5 -32l-108 -188q-14 -20 -23.5 -32.5t-17 -20.5t-17.5 -16.5t-26 -20.5q-35 -27 -54.5 -41t-31 -20.5t-20.5 -7.5t-21 -1q-88 0 -88 72v27.5t2 21.5q2 12 2 20.5v10.5v13t-2 20q-2 14 -3.5 25t-1.5 22z" />
<glyph unicode="*" horiz-adv-x="870" d="M127 1096q0 6 3 23.5t8 36t11.5 36.5t10.5 29q14 29 65 28q20 0 38 -7t40 -28q23 -16 35 -16q18 0 18 25q0 8 -2 16t-16 51q-6 14 -6 33q0 25 17.5 44t39.5 19q4 0 18.5 -1t36.5 -3h15h22q10 2 19.5 2h15.5q23 0 38 -12t15 -31q0 -16 -5 -52t-9 -58q-2 -4 -2 -10 q0 -16 16 -17q12 0 54 25q23 12 34 16t23 4q23 0 33 -9t26 -40q29 -55 37 -72.5t8 -31.5q0 -25 -28 -43q-6 -4 -11.5 -6.5t-13.5 -4.5t-21.5 -5t-37.5 -7q-39 -6 -39 -26q0 -4 5 -11.5t34 -44.5q18 -25 29.5 -38t15.5 -20t5 -12.5t1 -13.5q0 -39 -53 -61l-33 -15l-39 -20 q-12 -4 -25 -4q-37 0 -58 28.5t-38 100.5q-8 29 -24 29q-14 0 -23 -23q-4 -16 -5 -21.5t-9 -21.5q-4 -10 -6 -16t-11 -39q-8 -39 -43 -39q-20 0 -39.5 8t-58.5 31q-70 41 -70 76q0 16 6.5 27t34.5 44q4 6 12.5 15.5t20.5 25.5q14 18 14 21q0 16 -59 22q-49 4 -69.5 18.5 t-20.5 45.5z" />
<glyph unicode="+" d="M66 612v13.5t4 70.5l-4 80q0 16 3 25.5t15 13.5t35.5 5t64.5 1l90 -4q37 0 57.5 1t30 5t11.5 14.5t2 26.5q0 135 1 191.5t5 64.5q4 6 10 9.5t23 3.5q53 2 83.5 3t41.5 1q35 -2 53 -3t27.5 -3.5t12.5 -4.5t5 -4q8 -8 8 -108q-2 -35 -3 -53.5t-1 -28.5v-16.5v-14.5 q0 -41 2 -55.5t8 -20.5q6 -4 38 -6t71 0l74 4q39 -2 61.5 -3t32.5 -3t13 -4t7 -4q4 -4 10 -113q-2 -39 -3 -60.5t-2 -31.5t-2 -13t-3 -5q-6 -12 -33 -13l-81 5l-72 -7l-76 2q-16 0 -26.5 -3t-14.5 -15t-5 -35.5t-1 -64.5l6 -76q0 -59 -3 -85t-13 -30q-6 -4 -29 -4l-119 -4 q-33 2 -50 3t-25.5 2t-11.5 2t-5 3q-12 6 -12 35l2 78q0 31 -1 61.5t-2 56t-2 43t-3 21.5q-4 10 -25.5 12t-87.5 2l-74 -6q-37 2 -57.5 3t-29.5 1t-13 1t-6 4q-12 6 -12 34z" />
<glyph unicode="," horiz-adv-x="452" d="M88 92l4 58q-4 31 -4 37v16q0 80 59 80h7.5t15.5 -2t29.5 -3.5t31.5 -1.5q8 0 17.5 1.5t58.5 5.5q18 2 40 -26t22 -52q0 -2 -1 -23.5t-6 -52.5v-20v-21q6 -49 7 -57q0 -92 -60.5 -151.5t-154.5 -59.5q-63 0 -64 63q0 18 8 25.5t45 19.5q10 4 21.5 21.5t11.5 27.5 q0 12 -8 17.5t-39 15.5q-16 4 -22.5 12.5t-12.5 32.5q-6 27 -6 37z" />
<glyph unicode="-" horiz-adv-x="428" d="M0 457q0 14 2 22l2 35l-2 33q-2 10 -2 26q0 76 72 76h10t16 -2q20 -2 33.5 -3t28 -2t35 -1h55.5l43 -2h20q6 0 12.5 1t34.5 9q4 2 23.5 -8t26.5 -14q18 -18 18 -54v-11t-4 -46l4 -61q0 -23 -17.5 -44.5t-35.5 -19.5l-68 8l-61 2q-33 -4 -41 -4h-31h-24l-37 -4 q-10 -2 -17.5 -2h-15.5q-80 0 -80 66z" />
<glyph unicode="." horiz-adv-x="452" d="M84 174v19q0 33 12.5 56t28.5 27q10 0 20 -2t22.5 -3t29.5 -3h12q66 0 72 2q10 2 16 2h8q6 0 17.5 -5t21.5 -12t17.5 -14.5t7.5 -11.5l-9 -88v-4q0 -6 2 -8q2 -6 3.5 -37t1.5 -45q0 -55 -54 -55h-17t-22 2q-10 2 -22 2h-25h-16t-25 -2h-28q-72 0 -72 69v12.5t2 16.5v23 v13t-4 46z" />
<glyph unicode="/" horiz-adv-x="899" d="M-31 -178q0 18 5.5 33.5t27.5 50.5q2 6 12.5 24.5t20.5 39t20.5 39t14.5 24.5q18 47 27 73.5t14.5 40t7.5 17.5t6 10q16 29 25 47q6 16 12 33.5t10 40.5q2 4 9 21.5t20 50.5l8 32q6 35 18 54l6 12l9 12q25 45 32 61.5t11 30.5l18 72l14 61q12 23 27 56q12 25 20.5 40 t13.5 29.5t10 32t11 41.5q2 4 14.5 33t30.5 72q12 29 19.5 48t15.5 42.5t19.5 57.5t31.5 91q8 45 12.5 56.5t16.5 25.5q31 27 72 27q16 0 26 -2q12 -2 20.5 -2h12.5h13.5t15.5 2q12 2 22.5 3t14.5 1q80 0 80 -72q0 -37 -9.5 -68.5t-31.5 -72.5q-23 -39 -30 -53.5t-11 -24.5 q-4 -12 -9.5 -24.5t-9.5 -22.5q-12 -35 -21 -61.5t-18 -49.5q0 -2 -6 -16t-14 -31.5t-15.5 -35t-11.5 -23.5q-4 -10 -7 -18.5t-7 -16.5q-8 -23 -9 -28l-3 -15l-13 -41q-8 -16 -16 -31.5t-19 -32.5l-10 -28l-4 -15q-4 -16 -10 -31.5t-12 -31.5q-25 -66 -50 -111l-30 -75 l-13 -39q-8 -23 -11 -31t-7 -18q-10 -16 -12 -21.5t-6 -21.5l-15 -41l-20 -33l-17 -47l-6 -25q-4 -8 -8 -19.5t-8 -27.5l-21 -41q-6 -23 -12 -46.5t-12 -47.5q-12 -59 -32.5 -85t-51.5 -24l-86 6q-41 -4 -50.5 -5t-17.5 -1q-47 0 -65.5 13.5t-18.5 50.5z" />
<glyph unicode="0" horiz-adv-x="997" d="M47 672q2 39 3 60.5t2 33.5t1 19.5v17.5q0 47 3 71.5t14 59.5q2 10 4 17l5 17.5t8 27t13 44.5q6 25 10.5 39.5t8.5 25.5t9 20.5t15 25.5l11 18l14 31q6 16 24.5 38t40 43.5t44 39.5t38.5 27q31 14 51.5 22t39 13.5t38 6.5t48.5 1q63 0 110 -9.5t86 -31t75 -60.5t77 -96 q31 -43 52 -99.5t38 -142.5q2 -14 6 -44.5t7 -64.5t5 -66t2 -48q0 -45 -10 -107.5t-25 -109.5l-10 -57q-20 -182 -135 -338q-8 -12 -22.5 -27.5t-30 -30t-29.5 -27t-22 -18.5q-27 -18 -80.5 -29.5t-106.5 -11.5q-90 0 -153.5 32t-128.5 112q-18 25 -30.5 40t-20 25.5 t-11.5 19.5t-8 19q-16 35 -25.5 58.5t-15.5 46t-10 48t-10 66.5l-7 35q-10 45 -10 49l4 92q0 8 -2 19q-2 14 -3 23.5t-1 13.5zM295 723q0 -66 2 -116t6 -90t12.5 -75.5t20.5 -74.5q6 -25 13 -41.5t15.5 -29.5t20.5 -24.5t31 -25.5q14 -10 33.5 -18.5t35.5 -8.5 q27 0 55.5 15.5t43.5 37.5l16 29q4 4 9 12.5t14 20.5q10 16 13 23.5t11 41.5q23 104 32 156.5t9 69.5q0 4 -1 27.5t-3 64.5l-2 35q0 20 -2 52t-5 63.5t-7 59t-6 40.5q-4 18 -11.5 38.5t-16.5 40t-18.5 36t-15.5 22.5q-12 12 -21.5 17t-21.5 9q-4 2 -15.5 5.5t-23.5 6.5 t-23.5 5t-13.5 2q-23 0 -48 -16.5t-48 -42t-39 -59.5t-22 -66q-10 -72 -16.5 -112t-9.5 -62.5t-3 -36v-31.5z" />
<glyph unicode="1" horiz-adv-x="724" d="M18 1049q0 37 50 71q39 25 53 35t33 27q10 10 19 17t20 15q6 8 23 21.5t28 17.5q8 8 15 14.5t13 14.5q25 27 44.5 44t36 26.5t35 12.5t40.5 3q76 0 121 -29.5t45 -76.5q0 -20 -8 -52q-10 -43 -16.5 -78.5t-6.5 -52.5q0 -4 1 -25.5t3 -56.5l2 -49v-46v-29.5t1 -23.5t3 -30 l-4 -100q0 -4 1 -20.5t3 -43.5v-14v-104l2 -21q6 -53 7 -70q0 -6 -2 -14q-2 -14 -2 -22.5v-12.5l2 -90v-31q-2 -14 -2 -23v-11q0 -8 2 -32t6 -58q2 -29 4 -61t2 -48q0 -53 -74 -53h-15t-44 4q-4 -2 -8 -2h-21q-8 -2 -18.5 -2h-20.5q-47 0 -64.5 20.5t-17.5 77.5v18.5t1 24.5 t4 49t8 92q2 14 2 22.5v12.5v17q-2 14 -2 26v23v26q2 12 2 19.5v9.5q0 4 -1 14.5t-4 26.5q-2 16 -2 31.5v36.5v22t2 27v35v10t-1 13t-3 26.5t-4 50.5v20q0 14 2 23q4 35 5 56.5t1 23.5q-2 18 -2 23v12v20q2 16 2 27.5v19.5q0 35 -20 35t-119 -80q-10 -6 -26 -6t-27.5 6 t-26.5 25q-4 8 -21.5 28.5t-19.5 24.5q-27 29 -34 41t-7 29z" />
<glyph unicode="2" d="M47 172v10q0 31 8 47.5t43 46.5q10 10 19.5 20.5t27.5 33.5q20 27 36 46t36.5 43.5t48 56.5t72.5 83q14 16 18 20.5t13 12.5q31 25 39 41q16 23 31.5 40t31.5 32q20 16 33 34q8 10 7 9.5t7 9.5q12 16 17.5 22t15.5 17q25 29 31 45q4 4 12 17t35 50q43 55 43 107 q0 66 -43 112t-105 46q-104 0 -137 -52q-8 -14 -13 -24.5t-7 -23.5t-3.5 -31.5t-1.5 -51.5q0 -29 -23.5 -51t-55.5 -22h-19q-4 0 -7 1t-7 1h-6q-41 -4 -48.5 -5.5t-11.5 -1.5q-29 0 -53.5 27t-24.5 55q0 20 9 45l8 31l10 66q2 23 13.5 50t25.5 54t31.5 48.5t34.5 31.5 q70 45 123 63.5t120 18.5q68 0 113 -3t80 -12.5t63.5 -24.5t63.5 -42q16 -12 26.5 -20.5t18.5 -18.5t16 -26.5t25 -43.5q12 -20 19 -32.5t11.5 -23.5t5.5 -24.5t1 -37.5l4 -41q6 -43 6 -58q0 -51 -17.5 -107.5t-39.5 -82.5q-10 -10 -17.5 -20.5t-15.5 -20.5 q-4 -8 -11.5 -14.5t-41.5 -40.5q-6 -6 -11.5 -14.5t-9.5 -18.5q-8 -20 -35 -53l-24 -27q-10 -14 -19.5 -26.5t-17.5 -26.5q-8 -10 -13.5 -17.5t-12.5 -15.5t-17 -19.5t-29 -29.5q-20 -27 -35 -39q-6 -8 -12 -14.5t-14 -14.5l-41 -37q-16 -12 -28.5 -37.5t-12.5 -46.5 q0 -29 33 -28q8 0 15 1t17 3l13 4q35 -4 54 -6t29.5 -3t13.5 -1h7q20 0 31 2h20q4 0 8 2l88 -4q2 0 43 10q25 8 58 8q47 0 69 -29q6 -10 13.5 -21t7.5 -15l-6 -146q-4 -25 -28.5 -39t-61.5 -14q-14 0 -22.5 1t-45.5 11q-8 2 -42 4t-60 2l-41 -2q-6 -2 -15 -2q-4 0 -6 -2 q-41 4 -48 4h-11h-13.5t-46.5 -4l-65 4l-31 -2l-82 6q-8 0 -39 -6q-23 -6 -50 -8t-58 -2q-53 0 -85 3t-47.5 13.5t-19.5 30t-4 53.5v19z" />
<glyph unicode="3" horiz-adv-x="997" d="M53 219q0 16 4 23.5t27 31.5q8 8 12 13.5t21 27.5q23 31 36 40.5t35 9.5q12 0 20.5 -1.5t19 -8.5t26.5 -22.5t45 -43.5q31 -29 74 -46.5t88 -17.5q104 0 174 101q8 10 16 29.5t15.5 41t11.5 42t4 32.5q0 47 -15.5 78t-50.5 57q-16 12 -50 22.5t-56 10.5q-43 0 -67.5 -3 t-71.5 -15q-23 -6 -41 -7q-33 0 -52.5 20.5t-19.5 55.5l2 47l-8 60q0 16 12 30.5t33 22.5q8 4 26.5 6t77.5 6q27 2 50.5 11.5t70.5 33.5q29 16 48.5 52t19.5 77q0 53 -43 92t-101 39q-14 0 -37.5 -4t-43.5 -10q-23 -6 -34.5 -13t-27.5 -28q-20 -25 -38.5 -34t-43.5 -9 q-14 0 -23.5 2t-17.5 7t-18 15.5t-25 28.5q0 2 -47 45q-25 20 -24 52q0 43 108 110q8 6 105 43q82 35 176 35q86 0 166.5 -32t121.5 -81q29 -35 42.5 -53t15.5 -20q8 -12 16 -36t15.5 -48.5t12.5 -47t5 -34.5q0 -37 -25.5 -98.5t-68.5 -125.5q-8 -10 -8 -22q0 -10 10 -21.5 t39 -33.5q45 -35 68.5 -61.5t43.5 -67.5q6 -10 11.5 -31t10.5 -44.5t8 -47t3 -37.5q0 -39 -5 -86t-9 -70q-10 -37 -17.5 -57.5t-13.5 -34.5t-14.5 -25.5t-22.5 -29.5t-23.5 -29.5t-22.5 -23t-33.5 -26.5t-57.5 -42q-16 -12 -44 -22.5t-60.5 -17.5t-67.5 -12t-68 -5 q-68 0 -140.5 21.5t-137.5 62.5q-152 90 -152 151z" />
<glyph unicode="4" d="M27 414q0 10 1 15t5 34l-4 51q0 12 10 30.5t39 53.5q16 23 30.5 44.5t30.5 49.5q25 39 49 86l23 31q6 10 11 17.5t11 15.5q33 59 73 129.5t91 156.5q4 10 10.5 18.5t12.5 18.5q10 14 16 29l56 106q2 6 10 15.5t16 20t15.5 18.5t11.5 12q8 4 33.5 12t33.5 8q37 -4 57.5 -5 t30 -2t12.5 -1h5h9t9 2q10 2 18.5 2h12.5q45 0 45 -75q0 -29 -1 -56.5t-5 -70.5l2 -56l-2 -129v-23.5t-4 -51.5q-2 -10 -2 -17.5v-38.5v-20t-4 -45q0 -6 1 -14.5t3 -18.5q0 -4 1 -6t1 -6v-6l-6 -70l2 -43l-2 -39q0 -23 13 -35t36 -12q10 0 30 4q37 10 50 10q16 0 34.5 -14 t24.5 -31q4 -8 4 -15v-34v-41t2 -25q4 -18 6 -30.5t2 -16.5q0 -25 -25.5 -41t-66.5 -16q-6 0 -11 1t-34 5q-4 2 -14 2q-53 0 -53 -53v-13.5t2 -15.5l2 -32l2 -48l8 -41q2 -10 2 -38q0 -41 -11.5 -54.5t-43.5 -13.5h-16.5t-18.5 2q-16 2 -28.5 2h-16.5h-16.5t-26.5 -2 q-10 -2 -18.5 -2h-16.5q-74 0 -74 68q0 25 6 59q8 47 10.5 72.5t2.5 66.5q0 29 -9.5 38t-35.5 9l-76 -2q-23 -4 -36 -4h-19q-10 0 -18.5 1t-45.5 5l-102 2l-93 -6q-80 0 -79 107zM334 557q0 -12 12 -12q8 0 33 6q6 2 16 2l117 -6q20 0 26.5 10t8.5 45v53q0 12 1 19.5t1 15.5 v20.5v32.5q4 41 6 81t6 75q2 8 2 16.5v30.5q-10 -10 -15 -18t-14.5 -21.5t-23.5 -36t-39 -65.5q-8 -14 -17.5 -29.5t-19.5 -34.5q-20 -35 -38.5 -66.5t-37.5 -60.5l-12 -26q-12 -18 -12 -31z" />
<glyph unicode="5" d="M47 231q0 16 6 27.5t25 28.5l20 20t27 31q16 20 24.5 25.5t26.5 5.5q10 0 18.5 -2t21.5 -11.5t36.5 -29t64.5 -56.5q12 -10 34 -20t47.5 -17.5t52 -12.5t49.5 -5q47 0 87 20.5t68.5 55.5t45 84t16.5 106q0 63 -19.5 108.5t-64.5 82.5q-8 6 -23.5 14t-32 15.5t-31 11.5 t-20.5 4q-20 -2 -41.5 -3t-44.5 -1q-8 0 -13 -1t-14.5 -4t-26.5 -9.5t-48 -18.5q-16 -4 -32.5 -7t-39.5 -3q-49 0 -82.5 25.5t-33.5 62.5q0 10 2 17t12 44v17l-2 73q-2 10 -2 17.5v9.5l2 61l-4 72q0 23 6 121l-8 115q4 33 38.5 56t81.5 23q14 0 26.5 -1t27.5 -3q35 -4 43 -5 t18 -1t18.5 1t55.5 5q6 2 18 2q23 0 54 -6q37 -6 49 -7t30 -1h15.5t16.5 1t26.5 4t48.5 7q10 2 21.5 2h21.5q41 0 74 -16q20 -10 27 -22.5t12 -43.5l8 -36q12 -37 12 -52q0 -12 -11 -32.5t-22 -28.5q-23 -14 -59 -14q-10 0 -20.5 2t-59.5 12q-16 4 -33 4q-20 0 -41.5 -1 t-46.5 -3q-8 -2 -20 -2q-4 0 -7.5 1t-19.5 5l-31 -2q-16 4 -94 6q-29 0 -28 -31q0 -12 2 -18q6 -31 6 -37l-2 -39l6 -47q0 -4 -2 -10q-2 -8 -2 -23q0 -14 9 -24t23 -10q16 0 41 6q18 4 47 8t44 4q16 0 41.5 -5t54 -13.5t56.5 -18.5t46 -20q76 -39 113 -117q10 -16 16 -29.5 t10 -21.5q2 -6 5.5 -10.5t7.5 -13.5t11 -28.5t19 -52.5q2 -6 4.5 -25.5t5.5 -42t5 -45t2 -34.5q0 -14 -3 -37t-7 -48.5t-9.5 -50t-9.5 -40.5q-10 -35 -19 -57.5t-21.5 -42t-31 -40t-49.5 -49.5q-27 -25 -40 -38l-15 -15q-8 -6 -133 -51q-8 -4 -26.5 -7t-41 -5.5t-44 -4.5 t-36.5 -2q-18 0 -50.5 4.5t-65.5 10.5t-60.5 12t-38.5 10q-39 18 -73.5 43t-79.5 64l-19 16q-55 45 -55 98z" />
<glyph unicode="6" horiz-adv-x="1009" d="M45 571v19q8 154 12 186q10 47 16.5 71.5t20.5 53.5q4 14 7 28.5t8 28.5q6 20 10 36t10 30t14.5 30.5t22.5 41.5q57 102 59 104l15 14l43 33l47 43q10 6 23.5 13.5t29.5 17.5l14 8l15 6l30 15q16 8 27.5 13t24 8t31 6t48.5 9q47 8 74 12.5t42.5 6.5t24.5 2h23 q51 0 105 -12q41 -10 57 -25.5t16 -44.5v-16t-3 -14.5t-9 -19.5t-16 -32l-15 -31l-6 -16q-16 -45 -51 -45q-10 0 -25.5 2t-44.5 10q-53 12 -67 13q-27 0 -61.5 -6.5t-51.5 -14.5q-14 -6 -19 -8t-24 -8q-18 -6 -24 -11.5t-27 -27.5q-27 -35 -40 -51.5t-15 -20.5 q-8 -14 -13.5 -31.5t-5.5 -27.5q0 -18 19 -19q6 0 13 1t17 3q12 2 35 6.5t45.5 6.5l45 4t34.5 2q84 0 148.5 -40t138.5 -138q12 -14 24.5 -47t22.5 -73t17.5 -80t7.5 -69q0 -41 -8.5 -93t-21.5 -104.5t-30.5 -97.5t-34.5 -69q-35 -51 -64.5 -80t-76.5 -55q-37 -20 -89 -31.5 t-105 -11.5q-260 0 -396 180q0 4 -39 84q-29 59 -41 124.5t-12 155.5zM291 500q0 -18 6 -49t15.5 -63t21.5 -61.5t22 -47.5q20 -33 60.5 -52.5t87.5 -19.5q51 0 94 27.5t61 74.5q20 47 31.5 95.5t11.5 89.5q0 12 -1 25t-3 30l-2 35q-4 41 -10 59.5t-27 46.5 q-31 41 -68.5 56.5t-109.5 15.5q-53 0 -93 -18.5t-60 -53.5q-10 -16 -17.5 -44t-11.5 -58q0 -16 -1 -24.5t-2 -16.5t-2 -18.5t-3 -28.5z" />
<glyph unicode="7" horiz-adv-x="860" d="M33 1217q0 18 6 49l4 32q8 45 28.5 61.5t67.5 16.5q12 0 52 -2t88 -6q18 -2 35.5 -2h29.5q16 0 39 1t57 3q10 2 18.5 2h12.5l78 -2l96 6l66 -2h17t15 2h19q16 0 24.5 -9t22.5 -48l8 -19q10 -18 11 -24t1 -21q0 -27 -6 -41t-26 -47q-14 -25 -25.5 -53.5t-28.5 -77.5 l-10 -28q-2 -8 -6 -16.5t-8 -18.5q-6 -10 -11.5 -21.5t-9.5 -21.5l-5 -10t-2 -4.5t-3 -6.5t-4 -14q-6 -23 -11 -40t-11 -32q-6 -16 -13 -37l-12 -34q-4 -16 -8 -35t-8 -35q-4 -14 -7.5 -26.5t-9.5 -26.5q-4 -12 -4 -13l-4 -12l-12 -33q-8 -23 -13.5 -44t-11.5 -44 q-10 -29 -20.5 -66.5t-26.5 -90.5q-8 -39 -37 -115q-6 -18 -10 -31.5t-6 -25t-3 -24.5t-3 -34q-4 -63 -19.5 -85.5t-54.5 -22.5h-17.5t-19.5 2q-12 2 -21.5 3t-15.5 1q-4 0 -13 -1t-24 -3q-10 -2 -18 -2h-19q-80 0 -79 80q0 14 1 25t9 31.5t24.5 57.5t46.5 103 q12 29 20.5 47t12.5 33.5t7 28t8 28.5q10 39 17 62.5t12 42t12.5 37t17.5 48.5q4 10 7 20.5t7 20.5l17 84q4 23 13 45.5t32 71.5q6 14 10 23.5t7 19.5t8 24.5t14 39.5q4 12 10 28.5t16 34.5q23 47 30 68.5t7 31.5q0 23 -20 23q-10 0 -17 -2q-12 -2 -31.5 -4t-41 -3t-41 -2 t-29.5 -1h-20.5t-20.5 2q-14 2 -22.5 2h-12.5q-8 0 -20.5 -1t-28.5 -3q-41 -6 -68 -7q-49 0 -80.5 24t-31.5 65z" />
<glyph unicode="8" horiz-adv-x="1003" d="M45 457q0 23 7 55.5t18 62.5l20 54q23 61 80 112q37 35 47 46.5t10 19.5t-4 12t-28 23q-4 2 -13.5 14t-18.5 25.5t-17.5 28t-10.5 20.5q-4 18 -8 47t-4 57q0 14 3 36t7 44.5t9 43t12 30.5q8 18 13 28.5t11 19.5t14.5 18.5t22.5 25.5q106 117 277 117q68 0 125 -14.5 t114 -43.5q14 -8 32.5 -24.5t36 -35.5t32 -40.5t20.5 -40.5q16 -39 22.5 -78t6.5 -92q0 -27 -5.5 -52.5t-21.5 -72.5q-4 -12 -8 -21.5t-10.5 -17.5t-17.5 -18t-30 -27q-16 -12 -16 -20t21 -23q41 -31 66.5 -64.5t53.5 -97.5q20 -41 32.5 -94t12.5 -94q0 -12 -4 -38 t-10 -54.5t-14 -58t-15 -50.5q-4 -12 -18 -33.5t-31.5 -46t-35 -46t-29.5 -31.5q-53 -47 -125 -72t-154 -25q-100 0 -169.5 22.5t-143.5 80.5q-70 51 -125 157q-16 29 -21.5 53.5t-9.5 65.5l-4 47q-2 23 -3 39.5t-1 20.5zM301 395q0 -86 60.5 -137t162.5 -51q45 0 83 25.5 t61 72.5q4 8 8 26.5t8 41t7 44t3 34.5v16t-2 18.5t-6 27.5t-12 48q-4 16 -24.5 46t-33.5 38q-6 4 -20 9t-32.5 10.5t-36 8.5t-25.5 3q-37 0 -84 -29t-74 -67q-2 -2 -7 -15.5t-11.5 -29t-11.5 -29.5t-5 -21q-4 -8 -6 -38.5t-2 -51.5zM344 1024q0 -29 13.5 -56.5t34 -50 t47 -36t55.5 -13.5q31 0 58.5 15.5t49 40t34.5 56.5t13 67q0 18 -1 30.5t-4 21.5t-11 19t-21 29q-18 25 -36.5 32t-65.5 7t-69.5 -10.5t-51.5 -45.5l-14 -16q-31 -37 -31 -90z" />
<glyph unicode="9" horiz-adv-x="997" d="M57 911q0 76 26 163t67 151q10 14 25 32.5t32.5 35t35 30.5t31.5 23q51 29 94.5 40t108.5 11q104 0 166 -20.5t123 -73.5q61 -49 113 -175q8 -23 11 -28.5t13 -26.5q6 -16 10.5 -25.5t7.5 -24.5t5 -38.5t6 -66.5q2 -33 4 -51.5t3 -28t1 -14.5v-11q0 -57 -16.5 -145 t-44.5 -203q-14 -51 -22.5 -75.5t-18.5 -45.5q-10 -16 -29 -61q-8 -18 -32.5 -53t-53.5 -70t-55.5 -62.5t-40.5 -36.5q-16 -10 -43 -24t-64 -35q-23 -12 -73 -21.5t-97 -9.5q-106 0 -169.5 32t-63.5 85q0 10 2 21.5t10 33.5l10 37q10 35 24.5 47.5t45.5 12.5q14 0 23.5 -3.5 t46.5 -21.5q14 -6 61 -6q135 0 203 102q33 51 46 86t13 64q0 12 -6 21.5t-16 9.5t-39 -15q-55 -25 -107 -24q-96 0 -201 61q-18 10 -28 17.5t-18.5 14.5t-15.5 16t-17 24q-47 68 -50 76q-8 20 -16 54t-15 69.5t-11.5 69.5t-4.5 56zM297 891q0 -43 10 -87t27 -67 q18 -27 54 -43t71 -16q29 0 69.5 7t57.5 15q16 8 38.5 37t30.5 51q8 16 12.5 46t4.5 57q0 127 -47 196q-51 80 -140 80q-33 0 -71.5 -18.5t-61.5 -44.5q-20 -25 -28.5 -46.5t-14.5 -64.5l-6 -32q-6 -37 -6 -70z" />
<glyph unicode=":" horiz-adv-x="452" d="M84 174v19q0 33 12.5 56t28.5 27q10 0 20 -2t22.5 -3t29.5 -3h12q66 0 72 2q10 2 16 2h8q6 0 17.5 -5t21.5 -12t17.5 -14.5t7.5 -11.5l-9 -88v-4q0 -6 2 -8q2 -6 3.5 -37t1.5 -45q0 -55 -54 -55h-17t-22 2q-10 2 -22 2h-25h-16t-25 -2h-28q-72 0 -72 69v12.5t2 16.5v23 v13t-4 46zM84 829v19q0 33 12.5 56.5t28.5 27.5q10 0 20 -2t22.5 -3t29.5 -3h12q66 0 72 2q10 2 16 2h8q6 0 17.5 -5t21.5 -12.5t17.5 -14.5t7.5 -11l-9 -88v-4q0 -6 2 -9q2 -6 3.5 -36.5t1.5 -45.5q0 -55 -54 -55h-17t-22 2q-10 2 -22 2h-25h-16t-25 -2h-28q-72 0 -72 70 v12t2 17v22v13.5t-4 45.5z" />
<glyph unicode=";" horiz-adv-x="452" d="M84 829v19q0 33 12.5 56.5t28.5 27.5q10 0 20 -2t22.5 -3t29.5 -3h12q66 0 72 2q10 2 16 2h8q6 0 17.5 -5t21.5 -12.5t17.5 -14.5t7.5 -11l-9 -88v-4q0 -6 2 -9q2 -6 3.5 -36.5t1.5 -45.5q0 -55 -54 -55h-17t-22 2q-10 2 -22 2h-25h-16t-25 -2h-28q-72 0 -72 70v12t2 17 v22v13.5t-4 45.5zM86 92l2 58q-2 31 -2 37v14q0 82 59 82h7.5t15.5 -2q8 -2 28.5 -3.5t32.5 -1.5q6 0 15.5 1.5t60.5 5.5q8 0 19.5 -7.5t20.5 -19.5t14.5 -26.5t5.5 -26.5q-2 -31 -3.5 -47.5t-1.5 -25.5v-13v-8v-21q2 -23 3.5 -38t1.5 -17q0 -94 -59.5 -153.5t-153.5 -59.5 q-63 0 -64 63q0 18 8 25.5t45 19.5q10 4 21.5 21.5t11.5 27.5q0 12 -8 17.5t-39 15.5q-10 2 -16.5 6t-10.5 12.5t-7 23t-7 40.5z" />
<glyph unicode="&#x3c;" horiz-adv-x="1026" d="M68 600l6 84l-6 86q0 8 1 14.5t8 12.5t21.5 14t40.5 23q10 6 25.5 12t38.5 16q14 6 22 10.5t37 22.5q12 8 34.5 20.5t49.5 25.5t53.5 25.5t49.5 22.5q8 4 30.5 14.5t46 22.5t43 22.5t23.5 12.5q31 18 51.5 29.5t30.5 15.5q18 8 44.5 20.5t54.5 25.5t51.5 25.5t35.5 18.5 q41 25 51.5 30t18.5 5q18 0 23 -23.5t5 -103.5q0 -43 -1 -66.5t-4 -38t-10 -19.5t-19 -11l-43 -19q-43 -25 -84 -45l-64 -31q-33 -14 -63 -30l-62 -37q-35 -18 -65 -29q-92 -41 -126 -60.5t-34 -33.5q0 -16 33 -34.5t127 -59.5q18 -6 28.5 -11.5t19.5 -10.5t21.5 -12 t34.5 -21q10 -6 25.5 -14.5t38.5 -18.5q16 -6 24 -10.5t39 -22.5q10 -6 25.5 -12t38.5 -17q12 -4 28.5 -12t34 -17.5t29.5 -17.5t16 -10q8 -8 8 -33l-2 -86l2 -86q0 -41 -24 -41q-4 0 -19.5 6.5t-33 13.5t-35 16t-27.5 15q-33 23 -92 52.5t-113 52.5q-10 4 -24.5 13 t-34.5 22q-14 10 -19.5 12t-21.5 8q-23 8 -36 13.5t-23.5 10.5t-19.5 11t-25 16q-31 18 -44.5 26.5t-35.5 18.5q-10 4 -20.5 9.5t-20.5 9.5l-62 35q-25 14 -61 30q-35 16 -54.5 25.5t-28.5 15.5t-10 13.5t-1 17.5z" />
<glyph unicode="=" d="M68 522q0 76 6 94.5t32 18.5l76 -2l66 2q18 0 44.5 -1t55.5 -2t55.5 -2t45.5 -1l65 8l68 -6q35 2 64.5 4t59 3t63.5 -1t77 -4l69 2q29 0 36 -8.5t7 -36.5v-72v-69q0 -27 -7 -36.5t-29 -9.5l-76 3l-66 -7q-20 2 -46.5 3t-54.5 2.5t-53.5 1.5h-43.5l-93 -5l-40 2 q-10 2 -19.5 2.5t-19.5 0.5h-11.5t-14.5 -1.5t-24.5 -2.5t-44.5 -3h-34h-20.5t-55.5 2q-16 2 -25.5 2h-42.5q-37 0 -48 2.5t-15 10.5q-2 4 -4 37.5t-2 68.5zM70 872q0 66 2 86.5t12 26.5q4 4 30.5 5t67.5 1l68 -4l96 2h10q4 0 11.5 -1t15.5 -1h33h12t17.5 1t33 2t62.5 3 l41 -2q12 -2 43.5 -2h58.5h38.5t57.5 4q14 2 25.5 2h19.5q10 0 28.5 -1t37 -3t34 -3t17.5 -3q16 -2 16 -31l-4 -82l4 -75q0 -14 -2 -22.5t-13 -12.5t-33.5 -5t-63.5 -1l-66 4l-65 -6l-68 4l-65 -4l-68 6l-65 -2l-66 2l-68 -6l-65 8l-68 -8q-37 2 -57.5 3t-29.5 3t-12 3t-5 5 q-4 4 -6 26.5t-2 77.5z" />
<glyph unicode="&#x3e;" horiz-adv-x="1026" d="M68 264q0 43 1 66.5t4 38t10 19.5t19 11l64 31q16 8 31.5 15.5t31.5 17.5q16 8 31.5 15t32.5 16q33 14 63 30l62 37q10 4 21.5 9t21.5 12q10 4 11 4t11 4q94 41 127 60.5t33 33.5q0 16 -32.5 34.5t-127.5 59.5q-18 6 -28.5 11.5t-19.5 10.5t-22.5 12t-33.5 22 q-8 4 -12.5 7t-10.5 6t-15 7t-26 12q-25 10 -63 33q-10 6 -25.5 12.5t-38.5 16.5q-37 14 -73.5 34.5t-40.5 30.5q0 2 -1 22.5t-2 49.5t-1 62.5v62.5q0 41 26 41q4 0 18.5 -6t32 -13.5t35 -16.5t27.5 -15q33 -23 92 -52.5t113 -52.5l24 -12t37 -23q14 -10 19.5 -12t21.5 -8 q23 -8 35 -13.5t22.5 -10.5t19.5 -11t25 -16q33 -18 46.5 -26.5t35.5 -18.5l41 -19l62 -35q10 -4 19 -10t22 -10q10 -4 10 -5t10 -5q35 -16 54.5 -25.5t28.5 -15.5t10 -13.5t1 -17.5l-6 -84l6 -86q0 -10 -1 -15t-8 -11.5t-21.5 -14.5t-40.5 -22q-16 -8 -23.5 -11.5 t-40.5 -17.5q-10 -4 -25.5 -12.5t-33.5 -20.5q-12 -8 -34.5 -20.5t-49.5 -25.5t-53.5 -26.5t-48.5 -21.5q-8 -4 -31 -14.5t-46.5 -22.5t-44 -22.5t-22.5 -12.5q-23 -14 -35 -21t-20 -11.5t-13.5 -7.5t-13.5 -5q-18 -8 -44.5 -20.5t-54.5 -25.5t-51.5 -25.5t-35.5 -18.5 q-41 -25 -51.5 -30t-18.5 -5q-18 0 -23 22.5t-5 104.5z" />
<glyph unicode="?" horiz-adv-x="694" d="M63 1286q0 25 27 43.5t68 22.5q20 2 32.5 4t47.5 10q76 18 112 18q63 0 122.5 -21.5t92.5 -55.5q63 -70 64 -217q0 -47 -11.5 -88t-39.5 -89q-10 -16 -16.5 -26t-16.5 -23.5t-29.5 -35t-52.5 -60.5q-51 -59 -72.5 -124.5t-21.5 -164.5q0 -33 2 -43q2 -20 3 -35.5t1 -19.5 q0 -20 -12.5 -33.5t-30.5 -13.5q-10 0 -17 2q-6 2 -12 2q-27 -4 -31 -5t-8 -1q-51 0 -61 41q0 2 -4 36.5t-13 100.5l-4 35l-12 71q-2 6 -2 27q0 12 1 23.5t5 25t12.5 33.5t20.5 53q6 14 10 22.5t12.5 19.5t20.5 27.5t37 47.5q49 57 65.5 92t16.5 76q0 109 -84 108 q-25 0 -45.5 -7t-65.5 -34q-25 -12 -53 -12q-55 0 -55 78l2 49zM137 59q0 10 1 18.5t3 18.5q6 33 6 47l-2 35q-2 6 -2 21q0 25 14.5 41t35.5 16q6 -2 14 -2q6 0 15 -1t22 -1h12q25 0 55 6q12 2 23.5 3t17.5 1q47 0 62 -47q4 -10 4 -15v-34l2 -27l4 -47v-26 q0 -45 -16.5 -61.5t-61.5 -16.5h-17t-44 4q-2 0 -13.5 -2t-27.5 -6q-10 -2 -31 -2q-76 0 -76 77z" />
<glyph unicode="@" horiz-adv-x="1501" d="M66 636v13q0 20 3 50t7 62t9 59.5t9 43.5q8 25 12.5 40.5t10.5 29.5t16 32.5t27 49.5q16 31 27.5 51t19.5 29q27 33 42 51t23.5 27.5t13.5 14.5l11 11q18 14 36.5 27.5t35.5 29.5q29 25 67.5 46.5t69.5 31.5q82 25 126 37t52 14q6 0 20.5 1.5t35 2.5t43 1h40.5 q20 0 48 -3.5t56.5 -9.5t55.5 -13t43 -13q59 -25 97 -43.5t68 -40t58.5 -52t71.5 -79.5q14 -16 25.5 -31.5t20.5 -35t18.5 -46.5t21.5 -68q10 -35 18.5 -85t8.5 -91q0 -10 -3.5 -35.5t-8.5 -55.5t-10 -55.5t-7 -33.5q-20 -61 -54 -113.5t-75 -90.5t-87 -59.5t-91 -21.5 q-35 0 -74 17q-12 4 -19.5 8t-15.5 11t-21.5 20.5t-37.5 38.5q-4 -4 -8 -8.5t-9 -8.5q-45 -45 -105 -70.5t-122 -25.5q-61 0 -114.5 24.5t-92.5 67.5t-61.5 102.5t-22.5 126.5q0 80 29 155t78 131.5t112.5 90t133.5 33.5q47 0 80.5 -10t72.5 -37q12 -8 24.5 -15.5 t26.5 -15.5q8 55 39 56q51 0 82 -1t46.5 -3.5t19.5 -7.5t4 -13q0 -4 -1 -13.5t-9 -58.5q-2 -8 -12.5 -57t-26.5 -123q0 -4 -7.5 -43t-21.5 -113q-6 -31 -6 -45q0 -63 45 -63q31 0 61.5 27.5t55 73.5t39 104.5t14.5 117.5q0 94 -36 177.5t-103 142.5q-59 53 -148.5 86 t-175.5 33q-63 0 -129 -12.5t-109 -32.5q-90 -41 -148 -95.5t-114 -146.5q-8 -12 -23.5 -57t-29.5 -92q-2 -4 -4 -21.5t-4 -39t-4 -40t-2 -24.5q0 -53 12 -112.5t31 -98.5q14 -27 18 -35t17 -35q6 -14 10 -19.5t20 -25.5q6 -6 43 -57q23 -29 63 -54.5t89 -45t103.5 -31 t107.5 -11.5h22.5t34.5 2l53 2h51.5t24.5 5q49 8 74.5 12t28.5 4q4 2 22 7t49 15q20 4 29 5q18 0 31 -37l18 -78q4 -16 4 -27q0 -8 -6 -14t-23.5 -12.5t-49 -13.5t-85.5 -15q-35 -6 -54 -9t-36.5 -4t-36 -2t-51.5 -1l-78 -3h-16t-19 -2h-30q-16 0 -49 6.5t-70 15.5t-72 19.5 t-55 20.5q-59 27 -104.5 57.5t-98.5 79.5q-31 27 -47 48.5t-39 66.5q-8 16 -13 25.5t-9 17.5t-10.5 17t-14.5 26q-14 27 -22.5 43t-13.5 32.5t-9 36t-8 52.5q-6 33 -8 52t-4 29.5t-2 15.5zM602 627q0 -66 36 -106t95 -40q35 0 66.5 17.5t55.5 48.5t37 71.5t13 86.5v18t2 33 l-10 51q0 4 -12.5 9t-30.5 10t-37.5 8.5t-36.5 3.5q-37 0 -68.5 -16.5t-56 -46.5t-39 -67.5t-14.5 -80.5z" />
<glyph unicode="A" horiz-adv-x="1167" d="M27 137q10 18 16 31.5t8 17.5l10 43q6 18 19 43q23 45 39 101q6 29 12 56.5t12 55.5q4 10 9.5 25.5t19.5 50.5q23 57 43 131q12 43 25 66l26 61q10 29 17.5 52.5t23.5 76.5q4 10 6 21.5t6 23.5q4 10 5 11l4 10l10 28l10 35q4 16 7 27.5t7.5 24t10.5 29t16 40.5 q10 31 17.5 50.5t7.5 23.5q10 33 18 52t19.5 30.5t29 14.5t43.5 3h13.5t15.5 -2l31 -2l75 2q6 0 22.5 -11t27.5 -22q14 -14 28 -67q4 -8 8.5 -20.5t10.5 -32.5l24 -60l43 -94q12 -27 19.5 -50.5t13.5 -56.5q4 -25 7 -36t18 -43q6 -8 9 -18.5t7 -22.5l12 -52l17 -43 q4 -16 8 -31.5t8 -29.5l8 -35q4 -10 9.5 -21.5t11.5 -27.5q8 -16 8 -15t6 -16l23 -61l8 -43l10 -25q8 -20 10 -30l15 -62l10 -27l20 -47q4 -12 8.5 -24.5t8.5 -22.5q10 -33 20 -49l27 -45q27 -49 26 -92q0 -47 -45 -47l-41 2q-41 6 -59 6q-6 0 -20.5 -1t-32.5 -3 q-14 -2 -26.5 -3t-22.5 -1q-41 0 -56.5 26.5t-19.5 96.5q0 35 -7 53t-32 51q-16 25 -59 25h-21q-10 -2 -22 -2q-6 0 -11 -2h-7t-15 2h-21h-11t-13 -1t-21.5 -3.5t-38.5 -4.5q-14 -2 -24 -2h-21q-27 0 -59 7q-12 2 -22.5 3t-16.5 1q-49 0 -81 -37t-34 -92q0 -47 -2 -58.5 t-12 -27.5q-25 -33 -59 -33q-10 0 -23.5 1t-30.5 3l-41 2h-22.5t-36.5 -2h-21q-67 0 -67 51q0 31 31 90zM432 506q0 -12 18.5 -24.5t36.5 -12.5l66 2h7t15 -2h25q25 0 33 2l14 2h41q10 0 20.5 13.5t10.5 23.5q0 8 -2 14t-19 39l-12 43l-8 39l-21 68l-10 41l-6 22 q-4 27 -9 45.5t-9 28.5q-14 33 -18.5 42t-2.5 13q-2 8 -6 25.5t-10 44.5l-6 6l-41 -160q-6 -18 -11.5 -30.5t-8.5 -22.5t-6 -19.5t-7 -23.5q-12 -43 -18.5 -61.5t-16.5 -40.5q-6 -12 -9 -20.5t-6 -19t-9.5 -28.5t-14.5 -49z" />
<glyph unicode="B" horiz-adv-x="1110" d="M92 84q0 16 1 43t3 61q0 8 1 13.5t1 13.5v21.5v37.5v24.5t2 25.5q2 10 2 12v10v33l-2 88q2 18 2 52v83l2 158l-4 61l2 78v11.5t-2 17.5q-2 16 -3 27.5t-1 13.5l4 116q0 4 -1 24.5t-2 45.5t-2 46.5t-1 31.5q-2 10 -2 18.5v14.5q0 47 29 78.5t74 31.5q10 0 24 -1t35 -3 q16 -2 30.5 -3t28.5 -1h17.5t46.5 4h11q22 0 77 -4q31 2 47 3t25.5 2t14.5 1h11q23 0 50.5 -3t53 -8t47 -12.5t34.5 -13.5q102 -57 124 -106q10 -20 17.5 -63.5t7.5 -77.5q0 -25 -6 -55.5t-16.5 -60.5t-22.5 -52.5t-25 -32.5q-23 -16 -22 -21q0 -4 31 -18q14 -6 24 -12.5 t31 -22.5q10 -10 21.5 -17t21.5 -16q10 -8 13 -11t11 -15l15 -25q16 -12 28 -35q16 -18 21.5 -28.5t19.5 -44.5q16 -49 19 -60q2 -16 5 -32.5t7 -32.5q0 -16 -1 -26.5t-1 -19v-17.5v-23q0 -12 -1 -20.5t-11 -37.5q-4 -8 -5 -14t-7 -37q-10 -53 -39 -99t-86 -100 q-25 -23 -46.5 -39t-46 -28t-54.5 -20.5t-70 -16.5q-10 -2 -35 -5t-53.5 -5t-57.5 -3t-47 -1q-4 0 -21.5 1t-40 2l-45 2t-38.5 3q-18 2 -30.5 2h-21.5q-8 0 -24.5 -1t-40.5 -3q-12 -2 -21.5 -2h-19.5q-117 0 -117 94zM365 324q0 -86 129 -86q51 0 87.5 3t63.5 9t46.5 16 t37.5 27q31 27 53.5 76t22.5 90q0 23 -12.5 60.5t-22.5 55.5q-16 20 -47 43t-64 35l-63 25q-23 10 -32 12t-23 2q-27 -2 -46.5 -3t-29.5 -1q-80 0 -86 -37q-2 -12 -4 -50t-2 -79v-24l-6 -60zM365 1014q4 -29 4 -34t2 -9q3 -27 19 -43q14 -14 35 -13h5l45 3l43 -3 q20 0 43 10.5t41.5 27t29.5 36t11 37.5t-8 41t-19 39q-14 23 -27.5 29t-45.5 6h-29.5h-21t-18.5 -1t-23 -3q-12 -2 -17.5 -2t-25.5 -2q-43 0 -43 -29v-14q2 -10 2 -18.5v-12.5v-9.5t-2 -35.5z" />
<glyph unicode="C" horiz-adv-x="849" d="M41 758q0 37 4 69.5t13.5 66.5t23.5 70.5t37 84.5q20 45 38.5 76.5t38 56t43 47t58.5 47.5q23 16 39 27.5t36.5 20.5t46 18.5t66.5 23.5q49 16 81 22.5t65 6.5q59 0 98 -13.5t53 -35.5q8 -12 9.5 -20.5t5.5 -45.5q2 -8 3 -30.5t5 -59.5q0 -39 -21.5 -66.5t-52.5 -27.5 q-27 0 -57 8q-61 12 -86 12q-23 0 -57.5 -13t-57.5 -30q-25 -16 -53.5 -58t-44.5 -85q-8 -23 -18.5 -55.5t-18.5 -67.5t-13.5 -64.5t-5.5 -42.5q0 -16 3.5 -42.5t8.5 -56.5t11 -57.5t12 -43.5q6 -18 18.5 -46t26 -53.5t25.5 -47t20 -29.5q55 -61 136 -62q12 0 19 1t40 9 q6 2 20.5 3t24.5 1q59 0 84 -24.5t33 -89.5l6 -37q6 -25 6 -43q0 -51 -43 -83t-113 -32q-35 0 -77.5 6.5t-84.5 17.5t-79 24.5t-60 29.5q-100 66 -171.5 159t-108.5 208q-12 39 -19.5 67.5t-10.5 63.5t-4 85t-1 130z" />
<glyph unicode="D" horiz-adv-x="1245" d="M92 1249v15q0 61 17.5 84.5t64.5 23.5h43.5t40.5 -2q8 -2 13 -2h8l92 4l55 -4l55 2q4 0 20.5 -2t45.5 -6l43 -6q70 -10 141.5 -35t128.5 -59q20 -16 49 -31l35 -19q10 -6 27.5 -21t36 -36.5t37 -45.5t30.5 -44q8 -14 20.5 -35.5t25 -46.5t22.5 -48.5t18 -43.5 q23 -59 33 -116.5t10 -141.5q0 -109 -30.5 -203t-102.5 -203q-31 -47 -75 -82.5t-111 -70.5q-47 -25 -85 -41.5t-74 -26.5t-72 -14t-76 -4l-304 8l-77 -2q-61 0 -84 43q-10 27 -11 125q0 10 1 20.5t3 26.5q4 20 5 20l-9 113q0 8 1 27.5l2 39t2.5 38t1.5 24.5t1 12t1 11 q0 6 2 8l-4 76l2 40l-2 58l4 41l-7 82l3 73v7.5t-3 15.5q-2 23 -2 46.5v47.5v51q2 27 2 45.5v24.5q0 20 -1 34.5l-2 29t-4 32t-7 43.5zM365 1090l8 -82q0 -23 1 -36.5t1 -25.5t1 -28.5t1 -43.5l-4 -45q-2 -10 -2 -19v-17q0 -14 1 -23.5t7 -50.5l-4 -105v-18q0 -6 1 -11 t1 -10v-8l-8 -88l8 -73l-2 -21q-2 -10 -3 -24.5t-1 -30.5q0 -49 15 -67.5t58 -24.5l41 -7q39 -6 58 -6q33 0 83 16.5t103 43.5q4 4 26.5 22.5t63.5 52.5q12 12 20.5 19.5t13.5 17t9 21.5t12 33q4 14 11.5 31.5t17.5 39.5q31 68 31 117q0 57 -7 106.5t-22 79.5 q-37 78 -52 109t-19 37l-2 2q-3 2 -9 9t-19 22.5t-38 42.5q-6 6 -24.5 16t-43 19.5t-50 18.5t-48.5 13l-31 8q-35 12 -43 13l-49 -2l-53 4q-23 0 -41 -15.5t-18 -31.5z" />
<glyph unicode="E" horiz-adv-x="919" d="M92 117q0 8 1 15t3 18q4 29 7 48t3 25q0 2 -1 9.5t-3 17.5q-4 18 -5 42.5t-1 47.5v29.5t1 24t3 27.5t6 42q2 10 3.5 24.5t1.5 30.5v14.5v16.5t-1 29.5t-4 54.5q-2 23 -2 40v34v21t2 22l3 67q0 12 -2.5 54t-6.5 81v21v10t1 15.5t2 34t3 63.5v24v19.5t-4 23.5 q-2 20 -2 26.5t-2 29.5q0 12 -6 77q0 31 29 53.5t65 22.5h23.5t30.5 -2q10 -2 18 -2h16h8.5h10.5t19.5 1t35.5 3h33q16 0 31.5 -1t31.5 -3t26.5 -3t12.5 -1l66 2q49 -4 60.5 -5t29.5 -1l82 2q20 2 34.5 3t24.5 1q35 0 55.5 -19.5t20.5 -50.5q0 -8 -1 -15t-3 -17t-3 -17.5 t-1 -9.5t1 -15.5t5 -33.5q2 -8 2 -21q0 -59 -31 -59q-23 0 -55 8l-41 6h-42t-13 2l-35 4h-41l-18 2l-127 3q-18 0 -37 -5.5t-27 -15.5q-10 -10 -19.5 -37.5t-9.5 -48.5q0 -18 7.5 -48t13.5 -38q8 -10 29.5 -17.5t40.5 -7.5l59 3q29 -4 36 -5.5t23 -3.5l33 -2q8 -2 13.5 -2 h9.5h12t39 4q18 -2 42.5 -4t55.5 -6q23 -2 39 -17.5t16 -31.5q0 -6 -6 -27q-2 -10 -2 -30q0 -25 6 -56q2 -10 2 -17v-15q0 -23 -19 -39.5t-48 -16.5q-8 0 -88 19q-23 6 -31 6q-2 0 -11 -1t-26 -3q-6 -2 -14 -2h-10t-27 4l-45 -2h-7t-14 2q-10 2 -32 2q-45 0 -74 -29 q-6 -6 -10 -11t-6 -15.5t-2 -29v-50.5l-3 -47q-2 -10 -2 -17.5v-15.5q0 -31 6 -74t11 -68q8 -29 31.5 -48t58.5 -23q12 -2 34.5 -3t51.5 -2t59.5 -1h59.5h16t15.5 2t22.5 5t36 9q20 4 33 4q25 0 42 -14.5t17 -36.5q0 -8 -1 -17.5t-3 -19.5q-6 -23 -6 -35q0 -6 1 -13t9 -44 q4 -20 4 -31q0 -59 -84 -59h-14t-17.5 1t-33 2t-58.5 3q-10 2 -18 2h-23h-14t-37 -2h-24h-48.5t-31.5 2q-53 4 -86 6t-35 2t-15.5 -2t-35.5 -6q-35 -6 -66 -6q-125 0 -125 125z" />
<glyph unicode="F" horiz-adv-x="827" d="M92 1282q0 45 41 72q8 4 21.5 10t17.5 6l111 -4q2 2 8 2q14 0 22 2q10 2 20.5 2h20.5h14.5t16.5 -1t28.5 -3t51.5 -6q8 0 16 -1t24.5 -1t46.5 -1t81 -1q29 4 46 5t19 1q14 0 34 -9t28 -20q4 -4 11 -23.5t7 -23.5l-2 -49v-2q0 -4 2 -6q2 -8 2 -23q0 -41 -24.5 -66.5 t-65.5 -25.5q-16 0 -34.5 2t-41.5 6q-10 2 -17 3t-9 1l-45 -2l-70 9q-23 -2 -49.5 -9.5t-36.5 -13.5q-12 -10 -17 -32.5t-5 -71.5q0 -33 4 -52.5t17 -31t36.5 -14.5t62.5 -3h27q18 -4 28.5 -5t24.5 -3q10 -2 27 -2q12 0 20 2q27 4 43.5 5t18.5 1q35 0 65.5 -22.5t30.5 -46.5 q0 -2 -1 -11.5t-3 -23.5q-2 -6 -2 -17v-12t4 -35v-18q0 -70 -88 -70q-27 0 -53 6q-4 0 -6.5 1t-6.5 1t-6 2l-45 -4l-39 4l-51 -2h-12q-6 0 -10.5 1t-8.5 1h-6q-69 0 -69 -107v-11q0 -4 4 -27l-6 -74q2 -16 2 -27.5t2 -17.5q0 -10 1 -19t3 -20q2 -10 2 -13v-9v-12.5t-2 -18.5 v-27q0 -23 7 -85t17 -121q0 -33 -18.5 -55.5t-42.5 -22.5l-60 2q-10 2 -15 2h-7q-33 -6 -39 -7t-12 -1q-47 0 -73 30.5t-26 87.5v17.5t1 17t2.5 24.5t5.5 40q2 8 2 35q0 23 -1 33t-8 38q-2 8 -3 14.5t-1 12.5q0 23 7 72l2 63l2 53q0 4 1 9.5t1 9.5v6q-4 63 -7.5 100t-3.5 43 v14.5t2 26.5q2 18 3.5 34.5t1.5 33.5q0 16 -1 36.5t-4 47.5q-4 41 -5 60.5t-1 51.5q0 33 1 55.5t3 32.5q6 20 7 29q-2 2 -2 10q-2 4 -2.5 12.5t-2.5 18.5l-2 31l-6 47q-2 14 -3 25.5t-1 21.5z" />
<glyph unicode="G" horiz-adv-x="1296" d="M41 721q0 20 2 43.5t6 50.5l4 35q4 37 9.5 61.5t12.5 47t20.5 50t35.5 68.5q20 39 34.5 62.5t31 41t39 33t59.5 39.5q51 33 83 52.5t56.5 31t48 18.5t54.5 15q59 14 114.5 20.5t126.5 6.5q43 0 104.5 -10.5t118.5 -26.5q10 -2 14.5 -3t26.5 -7q41 -10 70 -37t29 -56 q0 -43 -29 -79q-12 -14 -15 -18.5t-7 -14.5q-16 -43 -29.5 -55.5t-46.5 -12.5q-18 0 -35.5 6.5t-48.5 22.5q-51 29 -98.5 40t-112.5 11q-20 0 -47 -3t-52.5 -7t-47 -10.5t-33.5 -12.5q-25 -12 -51.5 -31.5t-51 -43t-45 -47t-29.5 -41.5q-51 -100 -51 -224q0 -47 9.5 -107.5 t23.5 -101.5q8 -27 15.5 -45t18.5 -33.5t27.5 -34t43.5 -44.5q27 -27 45 -43.5t31.5 -26.5t27.5 -17.5t33 -13.5q131 -53 188 -53q12 0 27.5 1l31 2t28.5 3t18 4q20 8 33.5 30t13.5 46q0 4 -1 12.5t-3 18.5t-2 18v15v55v22.5t-2 20.5l-7 49v68q0 10 -8 29.5t-12 25.5 q-12 8 -37 8q-18 0 -40.5 -3t-41.5 -9q-41 -10 -49 -10q-4 0 -14.5 2t-21.5 5t-21.5 6t-12.5 5q-8 4 -17 22.5t-9 28.5l2 66q0 2 -1 9t-3 19q-2 8 -2 23q0 35 33.5 62.5t78.5 27.5h21.5t25.5 -2q45 -4 68.5 -6t40.5 -2h13t34 4l49 -4q20 2 32.5 4l25 4t31 3t48.5 3 q35 -2 61.5 -26.5t26.5 -55.5q0 -18 -12 -67q-2 -10 -3 -18.5t-1 -14.5t1 -20.5t3 -34.5q2 -10 2 -27q0 -4 -1 -17.5t-2 -31t-3 -35.5t-2 -31q4 -41 5 -70v-12q0 -25 -3 -63l4 -27l-6 -49l4 -20l2 -27l4 -35l13 -41q6 -16 6 -45q0 -78 -34 -112.5t-108 -34.5q-14 0 -30.5 1 t-32.5 3q-41 6 -62 6h-10t-13 -2t-28.5 -7t-52.5 -14q-10 -2 -25.5 -3t-38.5 -1q-162 0 -309 63.5t-239 174.5q-49 59 -82 112.5t-52 100.5q-29 74 -47 159t-18 140z" />
<glyph unicode="H" horiz-adv-x="1202" d="M94 109v16t2 13t4 19.5t9 32.5q2 2 2 19v7t-1 13.5t-2.5 31t-3.5 56.5q-2 8 -2 21.5v32.5v34.5t1 27.5t3.5 28.5t6.5 42.5q2 10 2 31q0 12 -1 26t-3 31q-4 51 -5.5 66.5t-1.5 25.5q0 16 1 40t4 44q2 10 2 16q-2 35 -3.5 54.5t-1.5 27.5l-8 125v10.5t1 15.5t4 32.5t8 60.5 v14q0 6 -1 22.5t-3.5 37t-5.5 41t-5 37.5q-2 6 -2 20q0 39 21.5 65.5t54.5 26.5q16 0 23 -2q16 -4 18 -4q4 -2 8 -2t12 2q6 0 13.5 1t17.5 3q6 2 19 2q53 0 74.5 -24.5t21.5 -83.5q0 -6 -1 -11.5t-5 -33.5q-4 -14 -5 -34t-1 -38q0 -127 24 -154q26 -26 99 -26h6q12 0 26.5 1 t32.5 3q14 2 22.5 2h12.5h23.5t38 -1t39 -2t28.5 -1q14 0 40.5 5t37.5 9q35 14 34 49v15q-2 10 -2 16v8l4 51l-4 150q0 94 60 94h18t19 -2q8 -2 16 -2q12 0 55 6q10 2 29 2q37 0 58.5 -20.5t21.5 -55.5q0 -14 -2 -28.5t-6 -38.5q-2 -14 -3 -24.5t-1 -16.5q0 -4 1 -16.5 t3 -32.5q2 -8 2 -15.5v-13.5q0 -16 -1 -36.5t-5 -35.5q-2 -10 -2 -22q0 -6 -3 -8l5 -93v-6q0 -4 -1 -8t-1 -8q-2 -10 -2.5 -20.5t-0.5 -20.5q0 -14 1.5 -30.5t3.5 -35.5q2 -27 3 -45t1 -26q0 -25 -6 -76q-2 -18 -3.5 -32.5t-1.5 -24.5t1 -24.5t4 -33.5q2 -14 2 -23v-18v-13 t-2 -30l-3 -116v-15.5t3 -25.5v-52v-30q0 -14 10 -51q12 -37 12 -66q0 -35 -22.5 -64.5t-51.5 -29.5q-10 0 -17 1t-48 7q-6 2 -23 2q-12 0 -18 -2q-41 -6 -49 -6q-29 0 -49.5 25.5t-20.5 64.5v14t2 15.5t4 25t8 41.5q2 8 2 29v14t-4 41l4 45q0 10 -2 43t-3 69t-2 65.5 t-1 35.5l2 105q0 23 -11 54.5t-21 35.5q-4 2 -6.5 3t-11.5 3t-26.5 3t-50.5 3q-4 0 -22 -6q-14 -4 -28.5 -6t-27.5 -2q-14 0 -40.5 1t-61.5 3q-10 2 -19.5 2h-17.5q-33 0 -58.5 -7t-31.5 -20q-2 -4 -4 -7t-3 -17.5t-3 -42t-6 -78.5q4 -39 4 -45v-10v-23.5t-2 -34.5 q-2 -8 -2 -22q0 -29 8 -60q6 -23 6 -26l-4 -54l4 -39l-2 -45q0 -6 10 -53q2 -10 3 -20.5t1 -20.5q0 -47 -22.5 -74.5t-63.5 -27.5h-24.5t-34.5 2l-55 2h-8q-51 0 -73 24q-24 26 -24 89z" />
<glyph unicode="I" horiz-adv-x="514" d="M104 1272q0 100 86 100q23 0 31 -2t19 -2q4 0 8 -2l76 6q4 0 19 -9t24 -13q26 -22 26 -56q0 -12 -1 -24t-3 -25q-2 -14 -2 -18t-2 -21q0 -4 -1 -15t-3 -30l4 -51l-4 -41l2 -37l-2 -39l6 -73v-7.5t-2 -15.5t-2 -29v-52.5t2 -37.5q0 -6 1 -11t1 -9v-8q0 -14 -6 -45 q-2 -8 -2 -15l4 -53q-4 -41 -5 -48t-1 -11q0 -8 1 -17.5t11 -54.5l-2 -12l-2 -31v-26.5t-2 -22.5q4 -37 8 -72t4 -47q0 -2 -1 -9t-3 -18q-2 -10 -2 -19v-18q0 -8 1 -25.5t3 -38t5 -41t5 -32.5q2 -10 3.5 -19t1.5 -18q0 -65 -76 -65h-2h-14.5t-39.5 4q-6 2 -26 2h-11.5 t-17.5 -2h-33q-79 0 -79 92v20q0 8 1 16.5t4 24t7 41.5q2 6 2 21v18q-4 35 -6 59.5t-2 28.5v15l4 67v17.5t1 16.5t2 23.5t3 41.5l-10 192l8 176q-2 29 -3 46.5t-1 33t-1 33.5t-3 49q0 4 1 13.5t3 23.5t3 25.5t1 21.5v9t-2 16q-2 6 -6 39.5t-11 95.5z" />
<glyph unicode="J" horiz-adv-x="837" d="M14 82q0 10 1 17t12 48l2 43q0 80 69 80q8 0 14.5 -1t16.5 -5t30.5 -12t55.5 -25q16 -8 46 -12t63 -4q88 0 129 102q4 10 5 29.5t3 81.5l2 61q0 4 1 8.5t1 8.5t2 6l-6 67v5q0 6 2 10q2 10 3 21.5t1 25.5q0 16 -1 30.5t-3 30.5q-2 10 -2 15.5v7.5l2 53l-4 31l10 86l-2 20 l-4 37v84q0 100 -60 101q-47 0 -85.5 -2.5t-57.5 -6.5q-16 -4 -25.5 -5t-19.5 -1q-49 0 -77.5 21.5t-28.5 60.5q0 6 1 12.5t9 36.5q2 8 2 25v10q-2 16 -3 25.5t-1 13.5q0 23 24.5 36t65.5 13q14 0 33.5 -2t31.5 -6q4 -2 13 -2q4 0 6 -2q51 6 60 7t14 1q12 0 18 -2l35 -2 q4 0 15 1t28 3q8 2 16 2h17h24q20 -2 33.5 -3t15.5 -1l45 2q10 2 17.5 2h15.5q47 0 75 -28.5t28 -75.5q0 -14 -3.5 -39t-7.5 -39q-8 -27 -9 -33t-1 -10v-13.5t2 -15.5q2 -14 2 -25.5v-19.5v-14t-2 -27v-43v-30.5t1 -24.5t2 -27.5t3 -40.5q-4 -45 -4 -53v-16v-15.5t2 -17.5 q2 -18 3 -31.5t1 -17.5q0 -6 -1 -16.5t-3 -26.5q-2 -18 -3 -32.5t-1 -29.5q0 -10 1 -21.5t5 -62.5q2 -8 2 -30q0 -86 -7 -140.5t-23 -111.5q-4 -12 -6.5 -18.5t-6.5 -12.5t-9 -14.5t-15 -20.5q-41 -55 -47 -61q-10 -8 -20.5 -19.5t-27.5 -25.5q-45 -47 -123.5 -78 t-154.5 -31q-20 0 -48 3t-56.5 7t-54 11.5t-42.5 13.5q-82 29 -82 86z" />
<glyph unicode="K" horiz-adv-x="1081" d="M92 74q0 14 2 28.5t8 42.5q0 4 2 37t7 92q-2 16 -3.5 29.5t-1.5 30v38v54.5l7 96q-2 4 -2 8v19q-2 14 -3.5 28.5t-1.5 26.5q0 41 9 72v8q0 2 2 4l-6 94q0 2 1 11.5t3 25.5q2 10 2 33v15t-1 18.5t-4 31t-8 56.5q-2 20 -3 35.5t-1 27.5q0 10 1 27.5t3 40.5q2 16 3.5 27.5 t1.5 21.5q0 12 -2.5 29.5t-6.5 40.5q-2 16 -3 28.5t-1 22.5q0 41 21.5 68.5t52.5 27.5q16 0 27 -2q12 -2 19 -3t11 -1t15.5 1t29.5 3q8 2 19 2q45 0 70.5 -30.5t25.5 -82.5q0 -14 -6 -38q-2 -6 -2 -11l2 -75q0 2 -4 -15q-2 -10 -3 -16t-1 -8q6 -47 7 -55.5t1 -18.5 q0 -16 -2 -25q-2 -10 -3 -17t-1 -9l4 -51l-4 -27q4 -37 4 -44v-13q0 -16 -2 -47t-6 -39q-2 -6 -2 -19q0 -14 8 -14q4 0 7 6t19 45q6 12 15 20l20 31q16 25 27.5 41t23.5 35q14 18 18.5 25.5t16.5 25.5q18 35 27.5 49.5t26.5 34.5q27 29 45 64q12 18 20 31.5t15.5 24.5 t16.5 23.5t21 30.5q6 10 11.5 17.5t9.5 15.5t9 21.5t13 35.5q14 35 41 55.5t56 20.5h13t13 -2q27 -6 37 -6q4 0 12.5 1t20.5 3q20 4 29 4q86 0 86 -53q0 -55 -54 -113q-18 -18 -25 -25.5t-12 -17.5q-6 -10 -13 -26.5t-11 -30.5q-6 -10 -17.5 -24.5t-44.5 -55.5l-8 -12 l-55 -58q-4 -4 -7 -8t-8.5 -12t-14.5 -20.5t-25 -34.5l-25 -37q-6 -10 -13 -19.5t-14 -19.5q-10 -10 -19 -22.5t-19 -22.5q-18 -20 -41 -50t-42.5 -59t-34 -51.5t-14.5 -28.5q0 -14 27 -40.5t92 -80.5l19 -20q25 -29 35 -39t20 -18l31 -29q23 -20 44 -40.5t44 -43.5l53 -49 q6 -8 13 -16.5t16 -16.5q6 -14 28 -24l29 -21q29 -18 53.5 -51t24.5 -49q0 -18 -10.5 -30.5t-26.5 -12.5q-10 0 -30.5 -1t-49.5 -3q-2 2 -6 2h-9t-9 2q-14 4 -31 5t-45 1h-22.5t-18.5 -2q-14 -2 -24.5 -2h-14.5q-53 0 -80 45q-16 29 -21.5 37t-19.5 22q-8 10 -20.5 22.5 l-16.5 16.5q-14 10 -28.5 25.5t-30.5 36.5q-16 16 -24.5 25t-28.5 28q-35 33 -46 45l-34 43q-20 29 -31 28q-10 0 -10 -14q0 -12 2 -20q6 -41 6 -66v-18q-2 -12 -2 -20.5v-12.5q0 -23 4 -58.5t10 -66.5q2 -4 2 -18q0 -16 -4 -33t-14 -27q-8 -12 -28.5 -17t-61.5 -5 q-4 0 -10.5 1t-47.5 5q-29 -4 -34 -5t-15 -1q-39 0 -62.5 23.5t-23.5 64.5z" />
<glyph unicode="L" horiz-adv-x="770" d="M92 1280q0 37 22.5 66.5t51.5 29.5q4 0 16.5 -1t32.5 -3q6 -2 18 -2h15q16 2 27.5 2h21.5q39 0 60.5 -21.5t21.5 -58.5q0 -14 -1 -22t-5 -43q-2 -10 -2 -20.5v-26.5v-26.5t2 -31.5v-32v-20.5t-4 -47.5l2 -68l-2 -118l2 -91l-2 -127q-2 -10 -2 -17v-13q0 -8 -2 -13 q2 -14 3 -22t1 -17.5v-22.5v-36v-53v-17.5t1 -13.5t2 -15t5 -24l4 -51q0 -27 4 -38t18 -21q25 -18 62 -19q20 0 43 6q4 2 8 2t8 3q4 0 6 2q4 0 23.5 -3.5t52.5 -7.5h10q8 0 13 2q14 2 23.5 3t13.5 1q23 0 41 -19t22 -48v-29l4 -88q0 -65 -87 -65h-3q-18 0 -39.5 2t-50.5 8 q-12 2 -22.5 3t-16.5 1q-4 0 -13 -1t-24 -3q-41 -6 -74 -6h-17t-19.5 1t-32 3t-53.5 6q-10 2 -18.5 2h-16.5q-10 0 -16.5 -1t-39.5 -9q-6 -2 -20 -2q-35 0 -54.5 21.5t-19.5 60.5q0 41 6 90q4 29 5.5 42t1.5 29v16.5t-1.5 15.5t-3.5 23.5t-6 39.5v14v13t2 18q4 51 6.5 78.5 t2.5 68.5q0 23 -1.5 43.5t-3.5 40.5q-6 45 -6 62q0 4 1 17t3 32q0 6 2 26.5t3.5 42t2.5 40t1 22.5q0 16 -2.5 43.5t-6.5 68.5q-2 16 -2 29.5v24.5q0 12 1 21t5 50q-10 152 -10 154q-2 16 -3 26.5t-1 18.5z" />
<glyph unicode="M" horiz-adv-x="1423" d="M92 96q0 27 10 58q12 25 13 30l-2 37l4 58q0 2 -1 8t-3 16l-2 45v27.5t2 23.5q6 39 6 54v7t-2 15q0 12 -1 20.5t-2 18.5t-1 28.5v49.5l-4 76q-2 10 -2.5 19t-0.5 13t1.5 15.5t3.5 27.5q2 20 3 39t1 42.5v57v87.5l2 24q2 27 3 43.5t1 18.5v4q0 2 -1 3t-1 5v10l2 94 q0 8 -6 37q-12 49 -15.5 67.5t-3.5 39.5q0 35 18 55q16 19 43 19h5l35 -3l96 3q55 0 85 -23t58 -82q10 -23 17.5 -37t13.5 -24.5t14 -19.5t21 -21l18 -19l19 -30l21 -34.5t20 -29.5q10 -12 19 -26.5t19 -30.5q8 -16 11.5 -22.5t13.5 -16.5q10 -16 18.5 -27.5t10.5 -15.5 l18 -41q6 -14 19 -15q10 0 22 15.5t27 42.5q12 23 19 32t18 25q8 12 15 24.5t13 22.5q2 12 19 25l22 24q10 10 16.5 18.5t16.5 26.5q4 6 8 12.5t8 14.5q43 51 56 74q8 16 14 32.5t12 32.5q33 80 131 80q10 0 18.5 -1t55.5 -5q41 4 49 5t15 1q41 0 55 -17.5t14 -60.5 q0 -10 -1 -18t-2 -19.5t-5 -27.5t-10 -45q-4 -18 -7 -45t-3 -49v-25q2 -23 3 -38t1 -19v-9.5t-2 -13.5q-4 -35 -5.5 -63.5t-1.5 -46.5q0 -14 3 -25v-12q0 -4 -3.5 -29t-7.5 -61q-2 -8 -2 -15.5v-13.5q0 -20 2 -31q4 -29 7.5 -45t3.5 -20v-8.5t-3 -16.5q-2 -8 -2 -16v-19v-13 t1 -12t2.5 -19.5t3.5 -33.5v-22v-19.5t-1 -18.5t-3.5 -28.5t-6.5 -48.5q-2 -10 -2 -16v-12v-13.5t2 -13.5q6 -31 6 -39q0 -2 -1 -9t-3 -18q-2 -8 -2 -28q0 -10 1 -19.5t10 -50.5q4 -18 5 -37.5t1 -34.5q0 -33 -16.5 -52t-43.5 -19q-6 0 -13 1t-44 5q-6 2 -16 2 q-6 0 -10.5 -1t-26.5 -7q-6 -2 -25 -2q-44 0 -76 24q-28 22 -28 52v8q4 63 7 95t3 34q8 33 10 50t2 48q0 20 -1 37.5t-3 34.5l-4 26v62l-6 53q-2 8 -2 13v10q0 10 2 25t6 38q4 25 7 45.5t3 38.5q0 10 -1 24.5t-3 32.5q-2 14 -2 24.5v18.5q0 4 1 17.5t3 34.5v16q0 25 -16 24 q-8 0 -11 -5t-20 -27l-16 -21l-8 -8q-29 -29 -38.5 -38t-13.5 -19q-12 -23 -39 -51q-10 -8 -14 -15.5t-14 -34.5q-23 -49 -52.5 -70.5t-76.5 -21.5q-27 0 -43.5 1t-28.5 9.5t-23.5 24.5t-29.5 45q-6 12 -19.5 28.5t-48.5 51.5q-12 16 -18 22q-14 18 -25.5 37t-23.5 37 q-16 27 -32.5 42.5t-27.5 15.5q-18 0 -18 -31q0 -4 1 -11.5t5 -41.5l-2 -33q4 -29 4 -34v-11v-22.5t-4 -61.5q-2 -16 -2 -30.5v-31.5q0 -8 1 -16t3 -18q6 -31 6 -37q0 -8 -6 -35q-4 -12 -4 -18.5v-20.5v-53v-21.5t4 -21.5v-13q0 -4 2 -4q0 -2 -4 -21.5t-8 -47.5 q-2 -6 -2 -19q2 -10 4 -22q2 -10 4 -27.5t6 -40.5q6 -47 6 -63q0 -72 -82 -72q-8 0 -16 1t-19 3q-14 2 -24 3t-14 1q-2 0 -13.5 -1t-27.5 -3h-21q-82 0 -82 94z" />
<glyph unicode="N" horiz-adv-x="1220" d="M92 1298q0 29 20.5 51.5t47.5 22.5q14 0 22 -2q29 -4 48.5 -5t23.5 -1t13 1t24 3q8 2 15 2h13q23 0 51.5 -14.5t43.5 -32.5q18 -23 32.5 -51.5t36.5 -79.5l15 -27l20 -30l12 -27l5 -12q4 -14 7 -22.5t7 -14.5t10 -14.5t19 -22.5q14 -16 24 -32.5t21 -33.5l55 -110l12 -29 l33 -35q4 -8 8 -14l8 -12q14 -29 20.5 -40t22.5 -34q4 -6 7.5 -11t17.5 -32q16 -29 28.5 -46.5t16.5 -17.5q10 0 10 29l-10 160v35q2 29 2 60.5v51.5v24.5v22t-1 27.5t-1 41v51v37q2 16 2 27.5v15.5v11.5t-1 12.5t-4 20t-7 36q-2 10 -3 20.5t-1 20.5q0 84 90 86l61 6 q10 2 21.5 2h21.5q41 0 63.5 -30.5t22.5 -86.5v-14t-1 -23.5t-4 -52.5t-7 -96q-2 -14 -2 -23.5v-13.5q0 -14 6 -57q4 -31 6 -59.5t2 -57.5q0 -10 -1 -28.5t-2 -38t-2 -37t-1 -25.5q-2 -23 -3 -37t-1 -16t1 -25.5t5 -62.5q2 -10 2 -19.5v-19.5v-21.5t-2 -21.5q-6 -84 -6 -105 v-13t2 -19q6 -49 6 -66v-12t-2 -19v-51v-23.5t1 -18.5t3 -22.5t6 -33.5q6 -31 6 -57q0 -41 -16 -57.5t-57 -16.5h-8h-37q-16 -2 -33.5 -2h-34.5q-33 0 -51.5 8t-38.5 33q-6 8 -11 15t-11.5 20.5t-16.5 38t-29 67.5q-12 27 -20 44t-17.5 32.5t-22.5 34t-34 47.5 q-16 23 -39.5 63.5t-42.5 75.5l-12 27q-10 16 -21.5 32.5t-23.5 32.5l-6 8l-6 11q-8 12 -22.5 40.5t-35.5 73.5l-28 43l-17 19q-14 23 -30 39q-6 12 -13 12q-14 0 -10 -23q4 -31 5 -61.5t1 -52.5q0 -10 -2 -17l-3 -24t-1 -11q0 -2 2 -15t6 -34q2 -6 2 -14l-8 -92l10 -94v-4 q0 -2 -1 -5.5t-1 -7.5q0 -6 -1 -11t-1 -14.5t-1 -26.5t-3 -48q0 -18 1 -33.5t2 -36t4 -48.5t10 -68v-15q0 -25 -15.5 -41t-40.5 -16h-12t-19 2q-8 2 -22 2h-11t-42 -4q-8 -2 -17 -2q-35 0 -48 4t-27 14q-37 31 -37 88q0 33 10 84q4 16 6 29.5t2 19.5q0 2 -1 11.5t-3 25.5 q0 8 -1 25.5t-2 37l-2 39t-1 31.5q0 10 1 15.5t5 32.5q0 25 -1 51t-2 48.5t-2 40t-1 21.5v18.5t4 45.5l-6 211q2 37 12 129l-6 59q4 35 4 41v10q0 16 -7 46t-18 65q-14 37 -14 63z" />
<glyph unicode="O" horiz-adv-x="1470" d="M41 721q0 33 5 70.5t13.5 75.5t19.5 73t25 64q102 213 240 292q51 31 76.5 41.5t62.5 20.5q8 2 18.5 6t26.5 8q35 10 54.5 15.5t34 8.5t27.5 3h36q68 0 124 -4t87 -15q104 -29 170.5 -58.5t120.5 -74.5q2 -2 19.5 -23.5t49.5 -62.5q12 -14 29.5 -40.5t35 -55.5t32 -57.5 t22.5 -46.5q33 -82 37 -97q10 -47 16.5 -89t6.5 -66q0 -20 -7 -47l-4 -19v-43l-12 -76q-10 -49 -21 -84q-2 -41 -32.5 -103.5t-77.5 -121.5q-27 -31 -51 -70q-10 -12 -16.5 -19t-15.5 -15.5t-24.5 -18.5t-42.5 -29q-29 -18 -45 -29t-28.5 -17.5t-25.5 -9.5t-34 -9 q-23 -6 -51.5 -11t-58 -9.5t-58 -6.5t-47.5 -2q-70 0 -120 3t-93 10.5t-85 21.5t-93 37q-31 12 -66.5 36.5t-69.5 53.5t-60.5 56.5t-34.5 48.5q-16 33 -37 73q-6 10 -15.5 34t-18.5 51.5t-16.5 56t-11.5 51.5q-2 16 -5 44.5t-5 60.5t-4 62.5t-2 51.5zM309 662 q6 -55 10.5 -87t8.5 -53.5t9 -40t15 -49.5q6 -16 20.5 -38.5t34 -46t41 -46t39.5 -37.5q45 -35 99.5 -50t132.5 -15q37 0 61.5 1t45 6t38 13t41.5 21q37 20 58.5 33.5t35 23.5t23.5 23.5t27 35.5q18 27 23 37t15 41q2 10 3.5 14.5t9.5 20.5q6 18 13 45t13.5 55.5t10.5 53 t4 41.5q0 33 -6 73l-11 64l-4 49l-10 24q-4 12 -9 24.5t-9 23.5q-12 37 -66 108q-59 74 -149 103q-12 2 -37 12q-49 22 -108 22h-5q-59 0 -134 -25.5t-130 -66.5q-10 -8 -18.5 -15t-17.5 -20.5t-22.5 -36t-35.5 -61.5q-2 -4 -9.5 -21.5t-14.5 -38t-13 -40t-8 -25.5 q0 -4 -4.5 -43t-10.5 -112z" />
<glyph unicode="P" horiz-adv-x="1085" d="M92 1249q0 76 24.5 100.5t102.5 24.5q14 0 28.5 -1t39.5 -5q10 -2 17 -2h9l82 4l51 -4l93 6q59 -4 92 -6t54.5 -7t38.5 -14.5t44 -25.5q45 -27 81 -50.5t56 -39.5q6 -4 9.5 -8t8.5 -11.5l13 -19.5t25 -37l20 -25q27 -29 38 -60.5t15 -84.5q2 -6 2 -12t4 -17q2 -6 2 -9 v-19q0 -20 1 -40t4 -42q0 -16 -6.5 -46t-14.5 -61.5t-17.5 -62.5t-17.5 -45q-33 -61 -83 -114.5t-101 -78.5q-10 -4 -17.5 -9t-15.5 -9l-18 -17q-14 -12 -42 -23t-60.5 -20.5t-66.5 -15.5t-61 -6h-28q-23 2 -37.5 2h-22.5q-43 0 -58 -15.5t-15 -58.5q0 -37 3 -56.5t13 -53.5 q4 -18 8 -45t4 -50q0 -67 -53 -67h-2h-19.5t-19.5 2q-16 2 -27.5 3t-17.5 1h-7t-14 -2q-16 -2 -29.5 -3t-23.5 -1q-80 0 -80 96q0 16 1 31.5t3 32.5q2 20 3.5 33.5t1.5 19.5q0 4 -1.5 17.5t-3.5 33.5q-2 8 -2 15.5v13.5t1 12t6 41v10q0 10 -3 17q-2 23 -3 38t-1 23v7t2 13 q2 18 3.5 49t1.5 48q0 35 -7 78q-2 10 -3 17t-1 9q4 55 7.5 85t4.5 46.5t1 23.5v17v30.5t-2 29.5q-2 10 -2.5 17t-0.5 9l3 64q-4 35 -4.5 41t-0.5 12q0 16 2 27l3 32q0 4 -3.5 30t-9.5 67q-2 16 -3 32.5t-1 38.5zM360 680q0 -88 33 -100q10 -4 43 -7.5t64 -3.5q25 0 34 2 t37 15l33 6q25 4 56.5 23.5t50.5 41.5q10 10 26.5 38t24.5 44q2 6 7 20.5t9 30t7 27.5t3 17q-2 39 -4 60t-4 28q-25 78 -49 113.5t-69 54.5q-45 20 -94.5 31.5t-84.5 11.5q-47 0 -81.5 -27t-34.5 -62l2 -49q-4 -35 -4 -41v-14v-22.5t4 -47.5q2 -14 2 -25v-22v-22.5t-2 -28.5 q-6 -55 -7.5 -67.5t-1.5 -24.5z" />
<glyph unicode="Q" horiz-adv-x="1503" d="M41 707q0 37 6 82t16.5 89t24.5 83.5t31 70.5q10 23 48 76t79 106q6 8 12 14.5t16.5 14.5t32 21.5t58.5 38.5q76 51 158.5 72.5t203.5 21.5q53 0 88 -2t66.5 -8.5t67.5 -18.5t95 -35q102 -41 166 -106q0 -2 4.5 -7.5t15.5 -19.5t30.5 -38.5t50.5 -63.5q2 -4 13 -22.5 t24.5 -42t24.5 -45t18 -34.5q20 -43 34.5 -115.5t14.5 -136.5q0 -59 -7.5 -118.5t-17.5 -100.5q-6 -25 -12 -55l-10 -49l-9 -21l-6 -10q-14 -25 -14 -35t9 -18t22 -12q2 0 13 -1t34 -3q25 -4 45 -30t20 -56v-15q-2 -23 -3 -35t-1 -14q0 -4 2 -15.5t6 -23.5q6 -25 7 -39 q0 -33 -28 -59.5t-63 -26.5q-61 0 -114 41l-27 19q-4 6 -10 9t-10 7l-25 35q-10 12 -33 12q-14 0 -23 -6t-38 -31q-39 -35 -128 -57.5t-200 -26.5l-67 -2h-62q-25 0 -55.5 3t-59 7.5t-54 11.5t-40.5 13q-72 29 -108.5 45t-40.5 18q-14 10 -26.5 17.5t-24.5 15.5 q-10 6 -26.5 22.5t-34 35t-33 37t-23.5 32.5q-16 23 -25.5 39.5t-17.5 26.5q-12 18 -29.5 75.5t-38.5 147.5q-8 33 -10 72t-2 123zM317 633q16 -119 17 -119q16 -70 53 -133.5t90 -106.5q23 -18 53.5 -34.5t59.5 -24.5q33 -10 78 -19q36 -6 56 -6h9q47 2 72.5 4.5t40 4.5 t21.5 5t18 7q35 20 41 25.5t6 15.5q0 16 -19 24q-55 23 -82 23q-8 0 -18 -1t-27 -3q-10 -2 -20 -2h-18q-47 0 -80 26.5t-33 67.5q0 14 1 21.5t11 42.5q4 6 5 16t5 25q6 29 27 49t45 20h9t12 -2q18 -2 27 -2h20h26q12 2 20.5 2h12.5q49 0 100.5 -17.5t98.5 -52.5 q14 -14 37 -14q27 0 45 51.5t18 124.5q0 76 -9 126t-32 114q-2 6 -10 20.5t-19.5 33t-21.5 35.5t-19 30q-25 37 -60.5 66.5t-72.5 41.5q-23 6 -48 13.5t-50 13.5t-45 9t-33 3q-92 0 -177 -35t-130 -92q-14 -18 -24.5 -34.5t-19.5 -36t-17.5 -44t-18.5 -61.5q-6 -18 -9 -29.5 t-5 -22.5t-3 -26.5t-3 -40.5q0 -6 -1 -11t-2 -15.5t-3.5 -27.5t-4.5 -48z" />
<glyph unicode="R" horiz-adv-x="1120" d="M92 1231q0 76 27.5 109.5t89.5 33.5h14t14.5 -1t21.5 -3t36 -4q4 -2 27 -2h20q8 0 14 1t11 1h8l71 -4q37 2 57.5 4t31 3t16.5 1h12q43 0 76 -4t63.5 -14.5t63.5 -28.5t78 -49q27 -18 43 -30.5t31.5 -30t35 -43t52.5 -72.5q14 -20 22 -37t12 -35t5.5 -41.5t1.5 -58.5v-23 l8 -82l-8 -28q-8 -14 -13 -48q-4 -20 -7 -32.5t-6 -22.5t-7 -20.5t-13 -26.5l-26 -55q-16 -31 -23.5 -43.5t-21.5 -22.5q-31 -29 -54.5 -47t-42 -31.5t-35 -21.5t-34.5 -16q-25 -8 -34 -13.5t-9 -15.5t4 -15.5t29 -27.5l53 -51q25 -25 66.5 -38.5t95.5 -15.5q25 0 37 -3 t22 -13q29 -25 29 -51q0 -14 -8 -47l-2 -23v-63q0 -14 -14.5 -29.5t-33.5 -24.5q-14 -6 -23 -7t-50 -1q-47 0 -65.5 2t-37.5 6q-29 8 -48 16.5t-40.5 23t-52.5 39t-80 67.5q-45 39 -73.5 68.5t-63.5 72.5q-25 33 -64 33q-16 0 -21 -6t-9 -25q-6 -29 -6 -51v-9t1 -10.5 t4 -19.5t7 -35t6 -45t2 -39q0 -59 -51 -59h-17q-10 2 -16 2h-8l-135 -4q-29 0 -45.5 19.5t-16.5 52.5q0 18 2 37.5t6 39.5q8 35 9.5 47.5t1.5 28.5v18.5t-2 16.5q-4 16 -4 20q-2 4 -3 9l7 73v4q0 2 -1 3.5t-1 5.5q-2 10 -2 29.5v54.5v22t4 72q-2 20 -3 31.5t-2.5 19.5 t-1.5 14v17v36v23t1.5 20.5t3.5 28.5q2 16 3 40t1 59q0 27 -2 34l-2 35l4 41l-4 68q2 31 2 37v14q0 23 -3.5 48.5t-7.5 49.5q-6 35 -8 46.5t-2 21.5zM369 696q0 -39 4 -71.5t10 -42.5q6 -12 37 -21.5t65 -9.5q25 0 43.5 5t63.5 26l39 12q31 8 40 16t31 45q4 4 14.5 19.5 t31.5 42.5q14 18 24 39.5t14 34.5q8 51 9.5 61t1.5 12q0 6 -3 21.5t-8.5 33t-10.5 34t-9 24.5q-23 49 -77 89t-107 50l-35 6q-16 6 -23 6l-28 -2l-35 2q-27 0 -53.5 -23.5t-30.5 -49.5q0 -4 -1 -20.5t-2 -38l-2 -43t-1 -33.5v-8.5t1 -16.5t2 -38t3 -71l-2 -14q-6 -43 -6 -76 z" />
<glyph unicode="S" horiz-adv-x="958" d="M49 137q0 20 17 58l10 24l6 49q4 35 18.5 55.5t34.5 20.5q12 0 29.5 -8t46.5 -31q25 -18 39 -28.5t27.5 -16.5t30 -11t40.5 -13q10 -4 13.5 -4.5t13.5 -4.5q27 -10 42 -12t52 -2q39 0 61.5 9t49.5 34q53 53 53 133q0 109 -98 176q-23 16 -29 19.5t-17 13.5l-282 209 q-16 14 -25.5 22.5t-15.5 17.5t-12.5 22.5t-16.5 35.5q-41 96 -41 125l2 39l-2 47q0 10 7.5 35t23.5 76q10 29 28.5 49t65.5 55q16 12 26.5 19.5t19.5 11.5t21.5 7t35.5 9q41 10 74.5 13.5t97.5 3.5q20 0 31.5 -1t45.5 -5l70 -3q18 -2 58 -13t75 -27q29 -14 46.5 -35 t17.5 -41q0 -10 -3 -18.5t-24 -41.5q-4 -6 -7 -19t-9 -52q-8 -68 -60 -68q-10 0 -15 1t-13.5 4t-19.5 11.5t-32 22.5q-29 23 -73.5 39t-73.5 16q-47 0 -62.5 -2t-33.5 -8q-55 -25 -56 -84q0 -33 19.5 -58.5t68.5 -60.5q98 -66 177 -129t120 -106q55 -57 82 -96t45 -89 q16 -41 23.5 -68.5t7.5 -49.5q0 -47 -1 -77t-4 -51.5t-11 -42t-21 -50.5q-10 -25 -16 -40.5t-14.5 -26.5t-19.5 -22.5t-32 -31.5q-43 -41 -74.5 -58.5t-93.5 -31.5q-23 -6 -35 -7.5t-36 -1.5q-35 -2 -56.5 -2h-31.5h-19q-23 4 -42 6.5t-36 2.5q-33 4 -75.5 10t-59.5 12 q-12 6 -51 12q-20 4 -54 15.5t-42 15.5q-14 10 -20.5 30.5t-6.5 61.5z" />
<glyph unicode="T" horiz-adv-x="913" d="M16 1196q0 16 2 27l2 20v74q0 27 29 41t82 14q14 0 29.5 -1t40.5 -5q16 -2 28.5 -3t20.5 -1h14t19 2q51 6 71 6q8 0 22.5 -1t37.5 -3q20 -2 36.5 -3t28.5 -1q31 0 78 6q23 2 38 3t23 1q10 0 24.5 -1t35.5 -3q16 -2 26.5 -3t20.5 -1t23.5 1t29.5 3q12 2 21.5 3t19.5 1 q20 0 43 -24q16 -16 19.5 -26.5t3.5 -45.5l6 -37q6 -41 6 -61q0 -12 -7 -26.5t-18.5 -27t-23.5 -19.5t-25 -5q-45 6 -70.5 9t-31.5 5q-31 6 -62 6q-86 0 -86 -73v-19.5t2 -19.5q6 -35 7 -43v-30t-1 -42.5t-2 -44t-1 -35.5l2 -57v-14.5t-2 -18.5l-3 -47q0 -12 1.5 -25.5 t3.5 -29.5q10 -57 10 -78l-2 -29q-4 -29 -6 -46t-2 -28q0 -31 1 -66.5t2 -68.5t2 -59.5t3 -34.5q12 -84 12 -121q0 -98 -65 -98q-16 0 -27 2q-14 2 -23.5 2h-11.5q-25 -2 -39 -3t-21 -1h-11.5h-8.5q-55 0 -74.5 27.5t-19.5 105.5q0 29 6 65q4 37 6 51.5t2 30.5l6 86v6.5 t-1 16.5t-2 37.5t-3 73.5l-2 92q0 35 2 72.5t6 78.5q2 10 2.5 14.5t0.5 6.5q-4 49 -7.5 102t-7.5 109l2 69q0 41 -23.5 65.5t-64.5 24.5q-14 0 -22.5 -1t-44.5 -11q-25 -6 -52 -6q-41 0 -63.5 23.5t-22.5 64.5z" />
<glyph unicode="U" horiz-adv-x="1075" d="M92 1292q0 35 17.5 59.5t44.5 24.5q14 0 23 -1t46 -9q6 -2 17 -2q8 0 28 4q14 2 25.5 3t21.5 1q47 0 64 -47q12 -35 12 -53v-10.5t-2 -12.5t-6 -22.5t-10 -40.5q-6 -23 -6 -35q0 -2 1 -12.5t3 -26.5q2 -10 2 -43v-24.5t-4 -34.5l8 -88q-4 -35 -5 -45.5t-1 -30.5l8 -213 q-2 -18 -3 -29.5t-2 -20t-1 -17.5v-23v-18.5t2 -16.5l-8 -102q4 -43 6 -67t4 -36t5 -18t9 -15q20 -29 65.5 -47t90.5 -18q49 0 88 21.5t61 62.5q8 14 10.5 23.5t6.5 45.5q6 57 6 64q0 8 -2 16q-4 29 -6 54.5t-2 48.5q0 10 1 21t3 24q0 4 1 6t1 4v4q-4 41 -6 63.5t-3 33 t-1 14.5v8v31q0 12 1 22t1 19q0 8 2 18q0 8 -1 31.5t-3 46.5t-3.5 38t-1.5 25q0 31 7 74q4 27 5 36t1 21q0 18 -2 32.5t-6 45.5t-7.5 54.5t-3.5 33.5q0 125 80 125q16 0 22.5 -1t30.5 -7q8 -2 25 -2q16 0 27 2q24 5 42 5q27 -1 41 -11q24 -18 23 -72q0 -10 -2 -42t-6 -48 q-2 -6 -2 -16q0 -4 -2 -6q2 -37 3 -58.5t1 -38t-3 -33t-7 -43.5v-10v-9t2 -9q6 -31 6 -37q-2 -4 -2 -12q0 -6 -1 -13.5t-1 -17.5v-39l4 -33q-2 -16 -4 -38.5t-2 -51.5q-2 -12 -1 -35.5t3 -54.5q2 -10 2 -18.5v-14.5v-11t-2 -17v-25l2 -102q-6 -82 -11.5 -134.5t-13.5 -87 t-21.5 -60.5t-33.5 -52q-23 -31 -58.5 -57.5t-77.5 -46t-87 -32t-86 -12.5l-95 4q-84 0 -182 43q-35 16 -57.5 29.5t-39.5 31t-32.5 42t-34.5 61.5q-10 18 -16 37t-9 41.5t-4 53t-1 77.5l-2 31q-6 51 -7 76v14t2 23q2 16 3.5 26t1.5 19.5v20.5v30q0 12 1 23.5t5 66.5 q-4 27 -6 41t-3.5 22.5t-1.5 11.5v7l3 65l-3 84q2 31 3.5 47.5t2.5 30.5t1 28.5v39.5v25.5t-1 18.5t-3.5 20.5t-4.5 29.5q-2 16 -3 24.5t-5 38.5q-2 12 -3 21.5t-1 15.5z" />
<glyph unicode="V" horiz-adv-x="923" d="M-10 1307q0 29 21.5 47t49.5 18h14.5t18.5 -2q16 -2 28.5 -2h18.5h19.5t19.5 2q16 2 27.5 3t21.5 1q37 0 59.5 -35.5t24.5 -101.5l4 -29q18 -80 31 -157q2 -10 6 -23.5t8 -32.5q4 -20 12.5 -59t20.5 -98l6 -25l5 -39l8 -39q6 -25 8 -32t2 -13q2 -18 12 -63q6 -23 13 -72 q4 -20 8 -39.5t8 -38.5q4 -10 6 -23.5t6 -31.5q2 20 7 52t11.5 64.5t12.5 58.5t8 32l4 14l4 37l15 94q6 33 11 55.5t8 41t4 37t3 44.5q8 43 15.5 89t17.5 96l8 92q12 141 80 141q8 0 15.5 -1t17.5 -3t16 -2h13h13t44 4q10 2 31 2q41 0 63.5 -17.5t22.5 -47.5q0 -53 -35 -154 q-6 -20 -10.5 -33.5t-8.5 -29t-8 -39t-12 -62.5q-8 -33 -10 -43t-9 -29l-8 -55q-4 -20 -6 -33.5t-5 -32t-9 -48t-19 -80.5q-8 -37 -13 -59.5t-8 -41l-6 -37t-5 -43.5q-10 -57 -20.5 -112.5t-24.5 -122.5q-18 -84 -19 -105l-2 -59q-4 -41 -32.5 -69.5t-69.5 -28.5 q-29 0 -48.5 2t-60.5 10l-121 -10q-8 2 -28.5 18.5t-28.5 28.5q-4 6 -6 10t-5 17.5t-6.5 38t-9.5 71.5q-10 70 -20 116t-23 85l-10 43l-6 39q-10 31 -20.5 65.5t-20.5 75.5q-6 25 -10 42t-8 52q-10 66 -18.5 105t-12.5 55q-4 12 -8.5 24.5t-8.5 26.5q-6 23 -15 62t-15 67 q-8 39 -12.5 53.5t-14.5 42.5q-31 82 -43 122t-12 57z" />
<glyph unicode="W" horiz-adv-x="1478" d="M6 1298q0 29 25.5 53.5t58.5 24.5q4 0 17.5 -1t33.5 -3h19h16t66 4q46 -10 66 -45q18 -32 18 -105v-16q2 -23 2 -31t4 -24q8 -45 11 -64.5t7 -37.5l10 -54l2 -28l11 -35q16 -29 20 -78v-22q6 -16 11.5 -37t9.5 -43q2 -16 4 -23.5t10 -36.5q2 -10 5 -25.5t6 -30.5 t6.5 -28.5t3.5 -19.5l4 -51l8 -15q8 20 10 28.5t4 23.5q2 16 4 31.5t6 27.5q4 8 4 16.5t3 30.5q4 63 26 141l10 35q6 23 8.5 30t6.5 15q4 12 8 29.5t8 42.5q6 23 9 35t5 22l7 72q0 8 1 30.5t2 49t2 51.5t1 37q6 96 63 96l66 -2l59 2q78 0 78 -176v-33q-2 -14 -2 -23.5v-13.5 q0 -12 4 -38.5t9 -55.5t12.5 -57.5t13.5 -46.5l12 -41q4 -20 6 -34.5t4 -25.5q8 -43 25 -92q8 -27 12 -46t10 -48q4 -23 5.5 -30t5.5 -19q2 -10 20 -66l19 74l8 39q4 18 8 43t10 59l6 19l2 28l11 48l12 32l6 35l8 49l13 33l4 33l8 51l14 33l4 24v66q0 4 5.5 22.5t12.5 41 t14 43t11 30.5q18 43 97 43q16 0 24 -2q8 0 14.5 -1t10.5 -1h10l96 2q14 0 33.5 -26.5t19.5 -47.5q0 -23 -11 -52.5t-40 -88.5q-6 -14 -33 -88l-6 -29q-16 -66 -24 -103.5t-13 -51.5l-10 -29q-4 -16 -5 -30.5t-5 -28.5l-10 -29q-4 -6 -4 -12.5t-2 -24.5l-11 -49l-12 -31 l-4 -31l-4 -38q-4 -10 -7 -18.5t-7 -18.5q-10 -33 -15.5 -57.5t-7.5 -61.5q-8 -29 -15 -55.5t-14 -53.5q-10 -27 -16 -47t-10 -41.5t-6 -47t-4 -62.5q-4 -61 -25 -95t-55 -34l-62 4q-4 0 -5 1t-3 1h-2l-100 -6q-4 0 -17.5 6t-17.5 10q-8 4 -16.5 25.5t-18.5 52.5 q-4 10 -4 18v47q0 4 -1 12.5t-5 24.5l-13 54l-10 28l-16 31q-8 18 -10 33.5t-7 60.5q-4 23 -8 39t-18 53q-10 27 -15.5 47.5t-7.5 44.5q-4 16 -9 28.5t-11 12.5t-12.5 -23.5t-10.5 -58.5q-4 -25 -4 -31.5t-4 -15.5q-10 -35 -17 -58.5t-16 -49.5l-4 -39q-4 -39 -7 -55.5 t-15 -49.5l-13 -38l-8 -76q-8 -125 -63 -125h-23q-12 2 -31.5 2h-42.5h-26q-25 -2 -41.5 -3t-18.5 -1q-57 0 -79 63q-2 8 -3.5 13.5t-3.5 17.5t-4 32.5t-4 59.5q0 6 -2 25.5t-6 36.5q0 2 -3 14t-17 65l-11 35l-24 109l-10 35q-8 29 -13.5 45t-7.5 29.5t-4 28.5t-4 40 q0 8 -19 100q-4 18 -9 35t-9 31t-11 39.5t-18 64.5q-4 33 -8 55.5t-8 34.5q-4 16 -6 37t-4 47l-13 33l-24 72q-20 51 -24.5 68.5t-4.5 39.5z" />
<glyph unicode="X" horiz-adv-x="1138" d="M20 45q0 18 7.5 37.5t29.5 58.5q14 27 18.5 37t14.5 33q10 25 18.5 42t12.5 28q4 4 12 22.5t31 77.5l12 25l41 79q4 8 7 16.5t7 16.5l17 41q8 18 15 33.5t16 32.5q29 49 44 90t15 59q0 8 -2 16.5t-9.5 24.5t-23.5 46t-47 83q-6 8 -11 18.5t-9 20.5l-43 100 q-6 16 -10.5 24.5t-12.5 22.5q-4 10 -11 23.5t-16 30.5q-6 18 -12 27.5t-20 23.5q-25 37 -25 65q0 10 4 22.5t11.5 24t14.5 18.5t13 7l115 -8q2 2 6 2h9t11 2q20 4 35 4q41 0 60.5 -18.5t31.5 -65.5q10 -35 15.5 -50t11.5 -26q4 -10 9 -19t9 -19q16 -37 35 -62 q2 -2 9.5 -16.5t16.5 -34t16 -37.5t9 -27q14 -49 27 -49q8 0 15.5 13.5t27.5 66.5q6 14 11 27.5t14 29.5q6 14 6 13.5t8 13.5q18 35 29.5 54.5t17.5 30.5t8 16.5t2 11.5l4 47q6 45 33 72.5t64 27.5q12 0 21 -1t20 -3q16 -4 20 -4q4 -2 8 -2l97 4q10 0 20 -23.5t10 -46.5 q0 -43 -28 -94l-25 -43l-23 -61q-8 -23 -20 -41q-4 -10 -5 -9t-5 -10l-13 -20q-8 -16 -14 -31.5t-12 -32.5l-12 -22l-39 -62q-4 -6 -11.5 -21t-13.5 -33.5t-11 -34t-5 -19.5q0 -14 5 -25.5t34 -50.5q6 -12 11 -19.5t9 -18.5t8 -27.5t13 -42.5q2 -14 16 -31l24 -27 q20 -23 33 -61q16 -37 21.5 -51.5t15.5 -30.5l37 -60q10 -18 15 -32.5t10 -26.5q8 -29 11 -38t13 -21q6 -14 12.5 -23.5t10.5 -17.5q8 -14 18 -29l14 -16q35 -39 35 -84q0 -41 -41 -41q-25 0 -57 6q-16 2 -26.5 3t-16.5 1q-10 0 -43 -6q-16 -2 -29.5 -3t-29.5 -1 q-33 0 -53.5 5t-34 20.5t-21.5 43t-14 74.5q-8 23 -12.5 36t-14.5 38q-8 16 -10 21t-8 16l-15 37l-24 34l-33 74l-12 23q-14 27 -23.5 49t-23.5 57q-14 31 -21 31q-12 0 -31 -51q-6 -18 -9 -25.5t-7 -13.5l-7 -17.5t-7 -15.5q2 -6 -17 -41l-12 -23q-12 -18 -20.5 -36.5 t-24.5 -61.5q-4 -6 -7 -14t-7 -19l-27 -39l-25 -51l-10 -26q-16 -49 -21.5 -64.5t-15.5 -28.5q-24 -30 -57 -30h-2q-31 2 -63.5 3t-39.5 1q-35 -2 -40 -2h-9q-35 0 -56.5 14t-21.5 39z" />
<glyph unicode="Y" horiz-adv-x="874" d="M10 1319q0 23 16.5 38t39.5 15q14 0 24 -2q16 -2 28.5 -3t16.5 -1h9.5t17.5 2h16q45 0 70 -29q10 -16 17 -33.5t20 -70.5q6 -31 18 -43l6 -10l6 -11q8 -14 11.5 -20t13.5 -29q10 -20 22.5 -41.5t28.5 -44.5q4 -8 11.5 -23.5t17.5 -41.5q14 -25 20 -25q10 0 23.5 29 t40.5 106q4 12 7 18.5t13 20.5q8 10 15.5 25.5t15.5 32.5q2 8 6 15t8 15l15 23q8 12 12 31l12 47q4 20 24.5 39.5t37.5 21.5q2 0 17 -2t38 -6q6 -2 16 -2q12 0 17 2q23 4 38 5t17 1q23 0 38 -21.5t15 -56.5q0 -29 -4 -41t-20 -43q-4 -6 -5 -9t-10 -17q-10 -20 -17 -37 t-15 -31q-4 -8 -8.5 -16.5t-8.5 -18.5q-8 -31 -22 -59q-6 -14 -12.5 -27.5t-14.5 -23.5q-10 -18 -13 -24.5t-9 -24.5l-19 -44l-16 -28l-17 -41q-8 -16 -16 -33.5t-18 -36.5q-31 -61 -43.5 -96t-12.5 -57q0 -8 1 -16.5t5 -49.5q2 -8 2 -15v-14q0 -10 -2 -19t-6 -38 q-6 -37 -6 -61q0 -4 1 -21.5t3 -44.5v-29v-24q-2 -27 -3 -43.5t-1 -18.5q0 -23 8 -47q8 -29 9.5 -37t1.5 -22q0 -51 -14.5 -71.5t-53.5 -20.5q-8 0 -15.5 1t-41.5 7q-4 2 -19 2q-14 0 -22 -2q-37 -4 -45.5 -5t-16.5 -1q-74 0 -74 57v19.5t2.5 19.5t7.5 33.5t13 58.5 q8 33 8 68q0 47 -6 96q-6 35 -7 47t-1 31v26.5t4 30.5q0 8 2 24.5t3 32t2 27.5l1 12l-4 31l2 43q0 10 -18 45l-11 23l-8 31q-33 98 -78 159q-20 27 -26 38t-17 34q-4 10 -9 21.5t-11 21.5q-20 33 -24.5 42t-8.5 28q-4 8 -6 14t-16 39q-27 59 -43.5 108.5t-16.5 65.5z" />
<glyph unicode="Z" horiz-adv-x="884" d="M31 51v20.5t2 22.5q2 10 2 16.5v10.5q0 6 -1 23.5t-3 43.5v21q0 23 9 41t36 51q4 4 7 9t7 14q39 109 66 172q12 23 28.5 59.5t36.5 77.5q6 10 11.5 22.5t13.5 24.5q10 16 22.5 34.5t24.5 41.5q20 33 35.5 58.5t29 50t26.5 50t32 60.5l10 24q8 16 13 26.5t8.5 17t3.5 12.5 v16q0 55 -45 55q-29 0 -47.5 -2t-57.5 -6l-39 2q-2 0 -18 -4q-35 -12 -66 -12q-35 0 -59.5 28.5t-24.5 71.5q0 8 1 13.5t5 33.5l-2 49q4 39 52 60q6 4 20 9t16 5l150 -8h2q4 0 8 2q20 4 21 4l63 -6l80 2q20 -2 35.5 -2h27.5h8.5t11.5 -1t21.5 -3t38.5 -4q6 0 29 6 q14 4 28.5 6t22.5 2q35 0 56.5 -24.5t21.5 -63.5v-10t-4 -39l8 -68q0 -25 -39 -71q-6 -10 -12 -18.5t-12 -16.5q-4 -6 -16.5 -33t-35.5 -74l-14 -28l-12 -25q-18 -31 -31 -74q-8 -23 -13 -36t-9.5 -23t-10.5 -20.5l-14 -24.5q-16 -31 -36.5 -68t-43.5 -82q-23 -35 -35 -54 t-19 -32.5t-13.5 -22.5t-14.5 -24q-12 -18 -16 -26t-10 -25l-21 -41q-10 -16 -13 -26.5t-3 -26.5q0 -45 41 -51q2 0 4 -1t8 -1h19.5h35.5h10q16 -2 25.5 -2h11.5q41 0 69 1t49.5 3t37.5 5t35 7q23 8 45 8q27 0 49.5 -27.5t22.5 -60.5q0 -4 -5 -24q-4 -20 -4 -19q0 -12 6 -39 l3.5 -14t1.5 -14q0 -80 -88 -80q-25 0 -38.5 1t-54.5 11q-10 2 -30 2q-10 0 -22.5 -1t-47.5 -5q-10 -2 -20.5 -2h-20.5q-8 0 -15 1t-44 7h-13q-8 0 -16 -1t-53 -7l-129 8q-8 0 -17 -2q-68 -12 -92 -12q-45 0 -74.5 18.5t-29.5 46.5z" />
<glyph unicode="[" horiz-adv-x="727" d="M201 -97.5q0 13.5 2 34.5q2 10 2 16v29q0 12 6 67l-6 62q0 2 1 7l3 15q6 27 6 39l-6 109q2 39 3 48t1 21q0 29 -1 44.5t-3 25.5q-2 4 -2 9v9t-2 8l6 78v6q-2 2 -2 9v4l8 137v4q0 2 -1 3t-1 5l-2 31q0 4 1 25.5t3 56.5v22v20.5t-2 26.5q-2 23 -2 39.5v30.5q0 12 1 24.5 t3 28.5q2 10 3 30t3 41.5t3 41.5t1 33v44t-4 48q-6 57 -6 74q0 29 18.5 50t40.5 19q39 -4 80 -6t70 -2q6 0 14.5 1t48.5 7q14 2 24.5 3t21.5 1q74 0 101.5 -25.5t27.5 -96.5q0 -102 -68 -103h-20.5t-38.5 4q-8 2 -23 2q-23 0 -37 -19.5t-14 -49.5q0 -14 1 -29.5t3 -32.5 q4 -16 4 -23.5v-15.5v-13t-2 -15q-2 -18 -3 -30.5t-1 -16.5v-9.5t2 -15.5q2 -8 2 -14l-4 -64l8 -51q-4 -45 -5 -53.5t-1 -16.5q0 -10 1 -16t5 -35q0 -2 -2 -39t-6 -110l2 -39l-6 -47q4 -59 5 -71.5t1 -23.5v-14q-2 -23 -2 -35v-14l2 -31l-4 -67q2 -25 3 -39.5t1 -24.5v-21.5 v-29.5q0 -20 10 -34.5t25 -14.5q8 0 37 6q8 2 24 2q94 0 94 -117q0 -104 -88 -104h-32q-18 2 -25.5 2t-30.5 2h-27.5t-50.5 4q-4 0 -12 -1t-20 -3q-16 -4 -28.5 -4h-35.5q-57 0 -81.5 23.5t-24.5 78.5v25.5z" />
<glyph unicode="\" horiz-adv-x="899" d="M63 1284q0 72 82 72q4 0 13.5 -1t21.5 -3q10 -2 27 -2h13t22 2q10 2 26 2q57 0 84 -41q4 -10 7 -20.5t10 -47.5q20 -57 31.5 -91t20.5 -57.5t16 -43t18 -47.5l30 -70q20 -53 25 -72l4 -18l8 -19l33 -69q14 -35 27 -56q4 -14 8 -29.5t8 -31.5t10 -39.5t10 -40.5 q2 -12 41 -84q10 -20 19.5 -38.5t13.5 -39.5l6 -32l21 -39q8 -27 16 -52.5t17 -54.5q4 -8 11 -23.5t21 -37.5l47 -127q2 -6 12.5 -24.5t20.5 -39t20.5 -39t14.5 -24.5q23 -35 28 -50.5t5 -33.5q0 -37 -18.5 -50.5t-65.5 -13.5h-8t-10.5 1t-17.5 2t-32 3l-86 -6 q-35 0 -53 24.5t-33 84.5l-14 63q-6 27 -29 72q-14 33 -16 47q-12 45 -18.5 60.5t-12.5 21.5q-14 18 -20 43q-4 12 -9.5 25.5t-11.5 27.5l-10 21q-6 23 -12 39l-6 20l-7 19q-10 29 -21 53t-22 49l-24 51q-10 29 -19.5 52.5t-17.5 43.5l-14 43l-25 46q-10 23 -14 36t-13 48 q-4 8 -7 16t-7 18t-4 9.5t-4 9.5q-14 33 -22.5 51t-15.5 34.5t-13 36t-19 50.5q-14 37 -21 57.5t-12 30.5q-6 10 -6 14q-10 16 -18 33.5t-19 34.5q-23 41 -32 72.5t-9 68.5z" />
<glyph unicode="]" horiz-adv-x="727" d="M63 -102q0 102 68 102h20.5t38.5 -4q8 -2 23 -2q23 0 37 19.5t14 49.5q0 14 -1 30t-3 32q-4 16 -4 23.5v15.5v13t2 16q2 18 3 30.5t1 16.5v8t-2 16q-2 8 -2 17l2 61l-6 51q4 45 5 53.5t1 16.5q0 10 -1 16t-5 35l4 49l-2 25q4 72 6 111.5t4 50.5q-4 59 -5 71.5t-1 22.5v14 q0 10 1 19.5t1 15.5v14l-2 31l2 76q0 4 -1 17t-3 32v6l2 61q0 12 -12 25.5t-23 13.5q-10 0 -37 -6q-16 -4 -24 -4q-94 0 -94 119q0 104 92 104h12t16 -2h23.5t32.5 -2q14 0 82 -6q2 2 8 2h9t11 2q14 4 28.5 4h37.5q55 0 79.5 -23.5t24.5 -78.5q0 -12 -1 -27.5t-3 -31.5 q-2 -4 -2 -13v-4l2 -43l-6 -53l6 -59q0 -6 -6 -27q-6 -25 -6 -37l8 -109q-2 -20 -3 -31.5t-1 -17.5v-11v-11q0 -27 1 -43.5t3 -26.5q0 -4 1 -8t1 -8t2 -6l-8 -80v-2q0 -4 2 -6q2 -6 2 -13l-8 -137v-2q0 -6 2 -8l2 -29q0 -4 -1 -26.5t-5 -57.5v-24v-18.5t2 -26.5 q2 -23 3 -41.5t1 -30.5q0 -10 -1 -23.5t-3 -27.5q-2 -10 -4 -29.5t-3 -42.5t-2 -43t-1 -31v-44t4 -48q6 -59 6 -74q0 -29 -18.5 -50t-40.5 -19q-39 4 -80 6t-74 2h-10t-17 -2q-37 -4 -50 -6t-25 -2q-78 0 -105 25.5t-27 97.5z" />
<glyph unicode="^" d="M25 709q0 4 1 10t8 20.5t21.5 43t38.5 77.5q8 16 14.5 31.5t14.5 30.5l22 61q8 16 15.5 30.5t15.5 28.5q16 33 27.5 54.5t19.5 40t16.5 38t20.5 50.5q6 14 15.5 32.5t20.5 39t21.5 38t16.5 29.5q8 10 33 10l75 -4l70 4l70 -4l75 4q10 0 16.5 -1t12.5 -8t14.5 -21.5 t22.5 -40.5q4 -10 11 -24.5t16 -37.5q6 -16 10 -22.5t20 -34.5q10 -18 27 -64q4 -10 10 -24.5t17 -34.5q6 -10 12 -24.5t16 -35.5q8 -20 33 -59q8 -14 11 -21.5t14 -39.5q2 -8 4 -12.5t5 -10.5t8 -14t15 -23q6 -10 14.5 -26.5t15.5 -33t11 -30.5t4 -20q0 -18 -16 -22.5 t-86 -4.5l-61 4l-68 -2q-12 0 -20.5 3t-16.5 16.5t-20.5 41t-32.5 76.5q-4 8 -15.5 32t-21.5 48.5t-19.5 45t-11.5 22.5q-12 23 -20 36t-14.5 24t-12.5 24.5t-16 36.5q-16 33 -33 32q-10 0 -15 -5t-18 -27q-35 -59 -49 -105q-2 -6 -11 -27.5t-20.5 -46t-21.5 -45t-15 -26.5 q-16 -31 -30.5 -61.5t-30.5 -63.5q-12 -29 -25 -31h-4h-10t-24.5 -1t-47.5 -3l-59 4q-72 0 -89 3t-17 20z" />
<glyph unicode="_" d="M0 -96q25 2 30 2h9h27q10 0 16 1t12 1h12l72 -4l96 2h11q4 0 11 -1t15 -1h35h12.5t17.5 1t32.5 2t62.5 3q45 -4 72.5 -4h72.5h38t59 4q14 2 24.5 2h20.5t21.5 -1t66.5 -7q29 2 44 3t23.5 1h12.5h8h21.5t23.5 -2t17 -2h10h18v-232l-14 -2l-11 -2l-88 -4l-65 4l-68 -6 l-65 8q-18 0 -45 -1t-55.5 -2t-55.5 -2t-45 -1l-68 6l-102 -8q-2 0 -10 1t-21 3q-14 2 -24.5 3t-20.5 1l-88 -2l-65 2l-72 -4q-10 0 -41 6v232z" />
<glyph unicode="`" d="M266 1364q0 43 49 43q4 0 14.5 -1t63.5 -5q33 4 40 5t24 1q35 0 47 -15.5t24 -68.5q6 -31 15 -43q10 -20 20 -43t23 -45q4 -10 6 -17.5t2 -11.5q0 -10 -11.5 -22.5t-21.5 -12.5l-59 2l-13 -2q-23 -6 -30 -6q-31 0 -68 62q-16 27 -27.5 40t-37.5 40q-35 31 -47.5 51 t-12.5 49z" />
<glyph unicode="a" horiz-adv-x="929" d="M33 358q0 37 9 77t24.5 76t36 65.5t44.5 46.5q37 27 59.5 36t55.5 13q82 10 126 15t54 5q20 0 45 -3t41 -9q14 -4 24.5 -6t16.5 -2q29 0 29 37q0 29 -8 58.5t-19 39.5q-10 12 -22 16t-37 6q-16 2 -35.5 3.5t-42.5 5.5q-2 0 -9 -1t-52 -12q-10 -2 -15.5 -3t-13.5 -5 t-20.5 -12t-32.5 -23q-16 -10 -49 -10q-61 0 -80 62q0 2 -6 104q0 47 61.5 80t149.5 33l75 -2l101 4q14 0 38.5 -5.5t51 -13.5t50.5 -18t38 -21q12 -8 26.5 -21t27.5 -29.5t23.5 -32t14.5 -27.5q8 -23 13 -39.5t9.5 -37t7.5 -51t7 -81.5q-8 -53 -9 -64.5t-1 -19.5v-10.5 t2 -36.5l-4 -96q0 -8 2 -19q2 -10 2 -16v-11q-4 -72 -5 -115.5t-1 -92.5q0 -33 14 -84q10 -41 10 -62q0 -23 -17.5 -40t-39.5 -17q-6 0 -15.5 1t-19.5 3t-26.5 2h-36.5q-14 0 -20.5 -1t-35.5 -5h-10q-20 0 -28.5 6t-22.5 31q-4 10 -15 10q-6 0 -11 -3t-32 -24 q-59 -41 -141 -41q-8 0 -25.5 2t-38 5.5t-40 6.5t-27.5 5q-18 6 -41.5 20.5t-47.5 35t-46.5 44t-36.5 45.5q-25 39 -25 43l-16 84q-8 31 -10 50.5t-2 45.5zM268 334q0 -25 9.5 -48.5t24.5 -42t33.5 -29.5t37.5 -11q100 0 141 20q29 14 53.5 53t24.5 74q0 29 -13.5 56.5 t-33.5 46.5q-16 12 -49 19t-74 7q-53 0 -81 -12t-44 -43q-29 -51 -29 -90z" />
<glyph unicode="b" horiz-adv-x="1030" d="M72 1274q0 43 20.5 70.5t50.5 27.5q10 0 18.5 -1t45.5 -5q41 4 48 5t17 1h15h7q25 0 44 -24q17 -22 17 -49q0 -7 -1 -15q-6 -43 -10 -66.5t-6 -39t-2 -26.5v-30l-2 -43q-2 -6 -2 -11v-9q0 -6 1 -12.5t3 -14.5l4 -26v-39q0 -12 12 -13q4 0 19 11q4 4 26.5 18t63.5 39 q23 12 55.5 20.5t63.5 8.5q74 0 144.5 -31t123.5 -84q4 -4 15 -18.5t22.5 -31t22 -32.5t14.5 -25q6 -12 14 -31.5t15 -38t12.5 -33.5t7.5 -21l14 -105q6 -35 8 -53.5t2 -48.5v-26.5t-2 -23t-6 -32t-10 -51.5q-6 -35 -11 -56.5t-10.5 -38t-11.5 -30t-16 -27.5 q-4 -10 -10.5 -19.5t-10.5 -19.5q-12 -23 -20 -36t-15.5 -23.5t-15.5 -18.5t-22 -20q-10 -8 -13.5 -11.5t-13.5 -17.5q-4 -4 -15.5 -13t-27.5 -18.5t-33.5 -18.5t-32.5 -15q-41 -18 -114 -19q-35 0 -60.5 5t-56.5 20q-18 8 -28.5 12t-18.5 10t-18.5 15.5t-28.5 25.5 q-12 12 -23 12q-12 0 -12 -12q0 -6 2 -10v-10q0 -18 -13.5 -29.5t-33.5 -11.5q-10 0 -26.5 2t-26.5 4q-16 4 -19 4q-6 0 -14 -2q-10 -2 -35 -6q-4 -2 -14 -2q-45 0 -64.5 29.5t-19.5 101.5q0 10 1 19.5t3 19.5l6 35v12v84v20v11v14l-6 53q4 43 5 54.5t1 33.5v78l-2 84 q-2 10 -3 18.5t-1 14.5q-2 8 -2 12q2 16 3 47t2 63.5t2 62.5t1 46v17.5t-2 29.5t-2 30.5v27.5l2 49v39v24t1 19.5t1 25.5l-6 37q-6 37 -6 72zM326 508q0 -133 51 -209t139 -76q27 0 45.5 1t32.5 6.5t26.5 13.5t30.5 22q20 16 32.5 27.5t21 25t12.5 31t10 45.5q8 35 13 75 t5 56q0 41 -10 85t-28 91q-6 12 -27 35t-37 33q-14 10 -40.5 16.5t-49.5 6.5q-45 0 -121 -35q-10 -4 -24.5 -16.5t-27.5 -28t-24.5 -30.5t-15.5 -28q-4 -14 -7 -26.5t-5 -27.5t-2 -37.5v-55.5z" />
<glyph unicode="c" horiz-adv-x="692" d="M33 489q0 27 4 65t11 79t16.5 82t19.5 76q41 131 145 192q16 8 21.5 12t28.5 21q20 14 36.5 19t67.5 12q39 4 53.5 5t30.5 1q92 0 141 -22.5t49 -65.5v-16.5t-2 -26.5q-2 -8 -2 -23v-14q6 -43 6 -49q0 -16 -17 -32t-36 -16q-18 0 -37 9q-41 16 -63 16q-39 0 -78 -9 t-57 -24q-25 -23 -42.5 -48t-23.5 -52q-4 -12 -5 -25.5t-5 -27.5q-8 -31 -10 -49.5t-2 -49.5q0 -76 19.5 -133t59.5 -110q6 -6 10.5 -11.5t11.5 -9.5t20.5 -11t35.5 -20q16 -10 49 -18t48 -8l86 4q14 0 29.5 -19.5t15.5 -37.5v-17q-2 -8 -2 -18q0 -6 1 -13.5t5 -29.5 q4 -20 4 -29q0 -61 -68 -78q-4 0 -16 -2t-28.5 -3t-32 -2t-23.5 -1q-31 0 -75 12.5t-89 32t-84 42t-57 44.5q-33 35 -51.5 54.5t-28.5 33t-16.5 25.5t-14.5 33q-12 25 -22.5 58.5t-18.5 69t-13 68.5t-5 55z" />
<glyph unicode="d" horiz-adv-x="1032" d="M33 518q0 41 8 89t22.5 96.5t33 91.5t40.5 73q8 12 23.5 29.5t34 36t36 34t29.5 23.5q47 31 86 44.5t84 13.5q23 0 40 -2.5t33.5 -8.5t36 -16t46.5 -25q23 -16 36 -21t27 -5q45 0 45 61q0 14 -1 37t-3 45.5t-3 41t-3 26.5q-2 4 -4 32.5t-6 81.5q0 31 18.5 51.5t44.5 20.5 h19q23 -2 36 -3t15 -1t16.5 1t36.5 3q8 2 23 2q29 0 49 -21.5t20 -56.5q0 -6 -1 -11t-7 -30q-2 -10 -3 -25.5t-1 -33.5v-23.5t4 -42.5l-4 -180v-35t4 -57v-51v-36t-2 -30v-18v-21.5v-38t1 -37.5l1 -16v-22q0 -6 2 -11q-6 -47 -7 -56t-1 -13q0 -6 1 -18.5t2 -26t2 -25.5 t1 -16t1 -8t1 -9q0 -4 2 -6q0 -12 -6 -51q-2 -2 -2 -6v-2l2 -80q0 -6 -2 -12q-6 -41 -6 -51q0 -14 6 -52.5t14 -68.5q4 -20 4 -31q0 -53 -67 -53q-12 0 -31.5 2t-30.5 4q-16 4 -14 4q-6 0 -14 -2q-16 -4 -37 -6q-6 -2 -14 -2q-49 0 -64 39q-6 18 -16 18t-27 -10 q-33 -25 -49 -35t-31 -14q-8 -4 -23.5 -7.5t-31.5 -6.5t-30.5 -5t-20.5 -2q-37 0 -80 15.5t-86 41t-81 59.5t-65 73q-53 76 -82.5 172t-29.5 192zM285 518q0 -12 3 -37.5t7 -52.5t8 -47.5t6 -26.5q20 -37 36.5 -56t43.5 -40q25 -18 60.5 -30.5t68.5 -12.5q37 0 62.5 18.5 t48.5 61.5q6 10 12 19.5t12 21.5l17 22q2 2 6 17.5t9 33t8 34t3 22.5l-8 123q0 49 -8 74.5t-33 58.5q-27 33 -67.5 52.5t-83.5 19.5q-98 0 -154.5 -73t-56.5 -202z" />
<glyph unicode="e" horiz-adv-x="905" d="M33 535v32q0 78 28.5 170t75.5 162q20 29 45 49.5t72 46.5q39 23 88 36t86 13q68 0 109 -2t73.5 -10t62 -25.5t72.5 -45.5q29 -18 53.5 -53.5t43 -80.5t29 -97t10.5 -103q0 -47 -33 -85t-74 -38q-4 0 -17.5 1t-29.5 3q-10 2 -16 2h-13l-53 -2q-8 -2 -13 -2h-9l-150 4h-22 q-16 -2 -43 -2h-41q-16 0 -22.5 -4t-16.5 -21q-10 -14 -13.5 -26.5t-3.5 -34.5q0 -39 17.5 -86t44.5 -80q45 -57 141 -57q106 0 188 75q25 23 48 23q29 0 43 -17.5t24 -58.5l8 -24l29 -35q18 -25 18 -56q0 -45 -27.5 -68.5t-94.5 -37.5q-8 -2 -13.5 -3t-34.5 -11 q-27 -10 -80 -16.5t-98 -6.5q-47 0 -84 3t-65.5 10.5t-54 18.5t-50.5 28q-70 47 -117 100t-69 113q-16 43 -25.5 72.5t-14.5 56t-7 52t-2 58.5zM332 715q0 -16 18.5 -23.5t61.5 -7.5h14t12 -1t16.5 -2t26.5 -3l41 8l37 -2q23 0 38 9t15 24q0 25 -5 42t-25 52q-25 43 -101 43 q-63 0 -106 -40t-43 -99z" />
<glyph unicode="f" horiz-adv-x="534" d="M23 952q0 18 1 28.5t6 18t16 12.5t32 11q16 4 26.5 20.5t10.5 34.5q0 8 -1 26.5t-3 45.5q-2 10 -2 33q0 49 9 78.5t29 48.5q29 23 68 41t61 18l70 -2h31q86 0 120.5 -14.5t34.5 -48.5v-17.5t-2 -21.5l-2 -11v-73q0 -16 -18 -33t-39 -17q-10 0 -23.5 3.5t-35.5 7.5 q-20 4 -27 4q-43 0 -43 -74q0 -23 10 -37t27 -14q16 0 27 2q10 2 30 2q29 0 49.5 -20.5t20.5 -51.5v-12t-2 -18v-15v-14q2 -16 3 -27.5t1 -15.5q0 -18 -16.5 -34.5t-36.5 -16.5q-4 0 -7.5 1t-21.5 5q-4 2 -14 2q-47 0 -47 -53v-11.5t2 -13.5q2 -10 2 -15v-7q0 -4 -1 -14.5 t-3 -24.5q-2 -12 -3.5 -22.5t-1.5 -20.5q0 -12 1 -29.5t4 -40.5q2 -20 2 -32.5v-26.5l-2 -68l-3.5 -31.5t-1.5 -17.5q0 -8 2 -14q2 -27 2.5 -36.5t0.5 -39.5q0 -8 1 -23.5t3 -38.5q-4 -37 -4 -44v-15q0 -14 1 -24.5t11 -49.5q2 -10 3 -21.5t1 -21.5q0 -61 -72 -61h-20t-35 2 l-57 -2q-49 0 -71 26.5t-22 89.5v22.5t1 18t4.5 20.5t7.5 32q2 6 2 22v9.5t-4 33.5l2 39q-4 35 -5 41t-1 16v17.5t2 19.5q0 4 1 6.5t1 6.5v6l-6 84l4 104q0 10 -1 17.5t-8 48.5q4 35 4.5 42t0.5 15q0 25 -1.5 38t-8.5 21.5t-21.5 14.5t-40.5 14l-12 8l4 76q0 2 -1 6t-3 15 q-2 6 -2 32z" />
<glyph unicode="g" horiz-adv-x="980" d="M43 657q0 25 2 42.5t7 37t16.5 45t29.5 66.5q16 35 26.5 54.5t24 32.5t35 25.5t58.5 30.5t60.5 29.5t41.5 16.5t36.5 6t49.5 1q27 0 46.5 -1t39 -4t43 -9t62.5 -18q20 -6 36 -6q27 0 58 38q18 25 34.5 35.5t38.5 10.5q57 0 91 -58q8 -8 18 -28l43 -37q14 -8 14 -31 q0 -47 -53 -80q-49 -33 -58 -41t-9 -20q0 -8 10 -25q16 -27 26.5 -49.5t10.5 -28.5q0 -16 1 -24.5t2 -16.5t2 -18t3 -29q-14 -117 -19 -121q-8 -23 -26.5 -52.5t-40.5 -53.5q-16 -16 -32.5 -27.5t-55.5 -32.5q-25 -14 -25 -20q0 -8 15.5 -12t52.5 -9q49 -6 91 -29.5 t69 -62.5q16 -20 18 -28.5t6 -40.5q4 -33 6 -44.5t2 -19.5q0 -10 -5 -29.5t-12 -41t-14.5 -40t-11.5 -24.5q-18 -23 -32.5 -38t-32 -27.5t-40 -23.5t-59.5 -26q-45 -16 -98 -28.5t-90 -12.5h-71.5t-44 1t-29 2t-23.5 6q-66 14 -102.5 23t-57 14.5t-30 9.5t-19.5 8 q-59 25 -92 60.5t-33 74.5q0 20 3 27.5t26 31.5q6 8 14 21q14 29 22.5 44t14.5 22.5t10 9.5t13 2q10 0 39 -25q31 -20 50 -32.5t36.5 -20.5t33 -13.5t37.5 -9.5q37 -4 49 -12l29 -10q31 -10 78 -10q51 0 78 10q29 10 50 31.5t21 40.5q0 16 -17 31.5t-44 23.5q-4 0 -13.5 3 t-19.5 5t-19 4l-9 2q-39 -4 -48.5 -5t-23.5 -1l-29 -2l-43 -10h-16q-31 0 -50.5 17.5t-19.5 45.5q0 10 2 14.5t17 20.5q10 10 10 21q0 20 -53 28q-47 10 -86 37t-84 86q-31 41 -49.5 112.5t-18.5 157.5zM283 641q0 -94 47 -145.5t133 -51.5q184 0 184 172q0 84 -45 142 q-8 8 -23.5 19t-33 21.5t-35 17.5t-29.5 7l-73.5 -12t-26.5 -4q-41 -16 -69.5 -64.5t-28.5 -101.5z" />
<glyph unicode="h" horiz-adv-x="911" d="M72 106v16.5t1 15.5t3 22.5t6 38.5v30v103v28v29v17l-6 75l2 13l2 57l2 49v23l-2 49v12v16.5t4 63.5l4 190v25.5t-2 19.5q-2 6 -2 15v6l4 74l-2 12l-4 12l6 86q-2 4 -2 8t-1 8.5t-1 10.5q-2 10 -3 18t-1 19q0 100 80 100q12 0 33 -4q2 -2 8 -2q2 0 2 -2l90 10 q2 0 17.5 -11t19.5 -18q20 -18 20 -55q0 -10 -18 -176v-14v-21.5t2 -25.5l4 -58q0 -53 27 -53q8 0 41 33q60 67 171 67h3q61 0 123.5 -37.5t95.5 -97.5q8 -12 14 -32.5t8 -32.5q4 -31 7 -63t8 -64v-9.5t-2 -13.5q-2 -20 -3.5 -35.5t-1.5 -29.5v-14.5t2 -24.5v-25 q0 -6 -1 -12t-5 -35l9 -55l-3 -41l5 -35q-4 -57 -6.5 -88t-2.5 -39q4 -63 5.5 -99t3.5 -46q6 -31 6 -56q0 -29 -21.5 -47t-54.5 -18h-14q-10 2 -18.5 2t-14.5 2q-8 0 -14 2h-7.5t-15.5 -2t-31 -2q-39 0 -64.5 24.5t-25.5 63.5q0 8 2 25.5t6 43.5q4 23 6.5 52.5t2.5 60.5 q0 23 -1.5 41t-3.5 35q0 6 -1 10t-1 8v8l4 170q0 8 -1 14.5t-7 41.5l2 47q0 55 -25.5 89t-68.5 34q-35 0 -61.5 -22.5t-55.5 -80.5q-12 -25 -14 -32t-4 -27q-2 -23 -2 -39t-2 -27q4 -35 5 -43t1 -22t-1 -27.5t-3 -23.5q-2 -4 -2 -11v-4l8 -61l-4 -82v-35q-2 -23 -3 -35 t-1 -16q0 -6 2 -18.5t6 -28.5q8 -39 8 -60q0 -33 -15 -53t-38 -20h-15.5t-21.5 2q-10 2 -23.5 2h-23.5h-29q-10 -2 -19 -2h-15q-80 0 -80 114z" />
<glyph unicode="i" horiz-adv-x="419" d="M72 94q0 10 2 24.5t6 35.5q6 37 6 49l-2 73v33l-2 101q-2 14 -2 25v18v23t2 22q2 16 3 29.5t1 17.5v12q-4 18 -4 30.5v18.5l4 195q-2 18 -4 44.5t-4 51.5t-4 44.5t-2 21.5q0 25 17 43t40 18q8 0 16.5 -1t18.5 -3q33 -6 47 -6q2 0 19.5 1t43.5 5h19q49 0 49 -49l-4 -88 q-6 -35 -12 -144q-2 -8 -2 -18v-6l2 -131v-21.5v-20t-1 -27.5t-3 -48l2 -16v-29v-19q-2 -8 -2 -18v-6q0 -4 1 -12.5t3 -20.5q2 -16 2 -26.5v-51.5l4 -55l-2 -49q0 -4 1 -14.5t11 -57.5q2 -14 3 -24.5t1 -20.5q0 -25 -16.5 -42t-38.5 -17q-6 0 -13.5 1t-17.5 3q-25 6 -37 6 q-2 0 -18.5 -1t-40.5 -5q-8 -2 -21 -2q-35 0 -53 27.5t-18 76.5zM76 1286q0 88 67 88h11.5t27.5 -4q12 -2 22.5 -3t20.5 -1q14 0 23 2q10 2 16 3t8 1q4 0 9.5 -1t29.5 -9q33 -10 31 -43l-4 -57q4 -39 4 -47.5v-18.5q0 -41 -16.5 -55.5t-59.5 -14.5h-18t-17 2l-36 2h-12.5 t-16.5 -2q-8 -2 -15.5 -2h-11.5q-51 0 -57 43q0 4 -1 19.5t-2 34l-2 37t-1 26.5z" />
<glyph unicode="j" horiz-adv-x="432" d="M-18 -49q0 10 6 21.5t14 15.5q4 2 8 3t33 5q50 9 50 97q0 9 -1 20l-2 51v6q0 8 2 14q2 10 2 16.5v12.5l-4 119q-2 6 -2 14v6l2 49l-6 82q0 4 1 10.5t3 16.5q6 31 6 47q0 4 -1 15.5t-3 27.5l-2 64q0 14 1 34.5t3 32.5q2 20 3 33.5t1 15.5q-2 23 -3 36t-1 19.5t-1 9.5t-1 7 q0 18 -1 24.5t-5 28.5q-4 18 -4 23.5v11.5q0 37 16.5 61.5t40.5 24.5h15.5t17.5 -2q16 -2 29.5 -3t19.5 -1q20 0 51 6q10 2 17.5 2h13.5q23 0 39 -20.5t16 -51.5q0 -8 -1 -17t-3 -21l-4 -17l4 -63q-4 -18 -6 -40t-4 -41.5t-3 -35.5t-1 -23l4 -82l-4 -75v-9q2 -10 2 -16v-10 q0 -10 -2 -14q0 -6 -1 -9.5t-1 -7.5v-6l4 -41l-6 -70q0 2 4 -18q2 -10 3 -17.5t1 -11.5l-4 -61q2 -20 3 -32.5t1 -24v-24.5v-36l2 -59q0 -12 -1 -21.5t-1 -19.5t-1 -26.5t-3 -47.5q0 -31 -1 -49.5t-5 -29.5t-11.5 -21.5t-19.5 -24.5q-25 -31 -44 -44t-54 -21 q-2 0 -21.5 -2.5t-44 -3.5t-48 -2t-34.5 -1q-31 2 -50 22.5t-19 49.5l2 53zM90 1284v19q0 31 20.5 51t51.5 20q20 0 31 -2q4 -2 9 -2h9t8 -2q25 2 38 3t19.5 1h8.5h4q71 0 71 -65v-15q0 -8 -2 -14q-6 -35 -6 -47q0 -6 2 -12q2 -10 2 -19.5v-19.5q0 -27 -18.5 -41.5 t-48.5 -14.5q-8 0 -15.5 1t-44.5 5q-35 -4 -42 -4h-11q-84 0 -84 50v22q2 10 2 25v15t-2 24q-2 12 -2 22z" />
<glyph unicode="k" horiz-adv-x="847" d="M72 92q0 33 6 70q6 39 7 53t1 39v27q-2 23 -2 39v22v23.5t2 29.5l-6 107v13t2 32v59q0 45 1 84t3 53q2 10 2 15.5v7.5l-2 51l4 105q-2 29 -3 44t-2 24t-1 15.5v14.5v20.5t4 28.5l-4 53q2 2 2 6q0 10 2 19q4 20 4 27q0 33 -8 67q-2 10 -3 19.5t-1 15.5q0 35 23.5 64.5 t50.5 29.5q4 0 11 -1t17 -3q6 -2 16.5 -2h22.5h23q43 6 51 6q23 -2 40 -23.5t17 -48.5v-8t-1 -12t-3 -21.5t-6 -37.5q-4 -23 -6 -43.5t-2 -26.5l2 -59l-6 -93q0 -10 6 -41q2 -12 3 -21t1 -13q0 -10 -2 -31t-6 -49q-2 -10 -2 -18.5v-16.5v-10t2 -25v-12t2 -27q0 -41 14 -41 q8 0 30.5 21.5t29.5 36.5q12 25 16 31.5t14 25.5q10 20 15.5 33.5t15.5 36.5q8 18 11 25t16 26q2 2 18 45q10 25 33.5 40t52.5 15q10 0 18.5 -1t53.5 -9q47 6 56 7t17 1q29 0 45.5 -15.5t16.5 -39.5q0 -25 -10.5 -43.5t-46.5 -59.5q-6 -8 -24.5 -37.5t-37.5 -62.5 q-10 -16 -15 -26.5t-13.5 -22.5t-21.5 -30.5t-36 -51.5q-12 -18 -19.5 -29.5t-10.5 -18.5t-4 -13.5t-1 -16.5q0 -20 5.5 -37.5t19.5 -38.5q6 -10 12 -18t10 -19q14 -31 25.5 -56t22.5 -44q39 -68 38 -67l13 -21l28 -57q4 -10 9.5 -18.5t11.5 -14.5q8 -10 20.5 -21.5 t24.5 -21.5q10 -10 20.5 -34.5t10.5 -43.5q0 -23 -15.5 -39t-38.5 -16q-6 0 -16 1t-61 7q-49 -8 -59.5 -9t-18.5 -1q-41 0 -72 20q-6 6 -11 10.5t-9.5 15.5t-12.5 32.5t-20 62.5l-10 25l-19 28q-6 8 -11 15.5t-11 17.5q-10 20 -15 25l-26 71q-10 23 -25.5 43.5t-26.5 20.5 q-20 0 -20 -47l-4 -72q-2 -16 -2 -34.5v-41.5v-23t2 -20.5t4 -27t8 -43.5q2 -8 2 -23q0 -18 -19.5 -35.5t-39.5 -17.5q-6 0 -18.5 2t-28.5 6q-10 2 -27 2q-4 0 -11 -1t-44 -7h-10q-35 0 -57.5 26.5t-22.5 71.5z" />
<glyph unicode="l" horiz-adv-x="423" d="M72 80v21.5t1 19.5t4 25.5t7 41.5q2 10 2 21.5v26.5q0 14 -1 24t-5 51v29v20q0 10 1 20.5t1 16.5q0 8 2 15l-8 69l6 51v181q2 20 2 37.5v33.5v52v19t2 28q2 10 2 15v9l-2 49q-2 47 -3 104.5t-1 84.5v16l-4 92v13q0 47 21.5 75.5t56.5 28.5h13t13 -2t15 -2q4 0 6 -2 q45 4 53 5t12 1q84 0 84 -90q0 -16 -1 -24.5t-9 -36.5q-4 -12 -12 -99q-2 -10 -2 -18v-12q0 -8 1 -21.5t3 -34.5q2 -18 3 -36.5t1 -36.5q0 -16 -1 -27.5t-3 -56.5q-2 -25 -3 -46.5t-1 -44.5v-34.5t2 -32.5q2 -23 3 -38t1 -22v-15t-2 -23q-2 -29 -3 -50.5t-1 -38.5v-32.5 t4 -40.5l2 -33v-57l2 -66q2 -10 2 -19.5v-17.5q0 -23 -2 -30q-2 -20 -3 -33t-1 -15v-4t1 -10t4 -25.5t7 -50.5q6 -37 6 -49q0 -29 -17.5 -47t-45.5 -18q-10 0 -31 4q-20 4 -34.5 6t-18.5 2q-8 0 -29 -6q-29 -6 -39 -6q-63 0 -63 96z" />
<glyph unicode="m" horiz-adv-x="1431" d="M72 102q0 16 1 24.5t9 47.5q2 10 3 22.5t1 28.5v17.5t-1 16.5t-2 22.5t-3 37.5q-2 12 -2 27.5v38.5v18.5t2 30.5l-4 68v6q0 8 2 14q2 16 3 33.5t1 36.5v16q-2 29 -2 48.5v25.5v7t2 16l2 75q0 27 -2 46.5l-6 58.5q-2 16 -3 29.5t-1 25.5q0 31 19.5 60.5t41.5 29.5l88 -2 q14 2 31.5 2h30.5q35 0 49 -12t18 -45q2 -29 19 -29q10 0 17 5t40 36q14 14 25.5 22.5t30 13.5t46 9t72.5 10q16 0 40 -5t46 -15q12 -6 20.5 -9t15.5 -8.5t15 -14.5t23 -25q10 -10 24.5 -18.5t24.5 -8.5q6 0 11 1t11.5 4t17.5 11.5t32 24.5q39 29 98 45t131 16 q41 0 87 -25.5t73 -64.5q4 -6 10 -12t10 -14q20 -23 26.5 -33t10.5 -27q4 -16 8 -42.5t4 -35.5l-2 -45l4 -57q-2 -33 -2 -39v-14v-13.5t2 -31.5l-6 -62l8 -67v-4q0 -2 -1 -4.5t-1 -6.5q-4 -20 -4 -18q2 -20 2 -33.5v-19.5l7 -68q-2 -8 -3 -18q-2 -10 -2 -21.5t-2 -28.5 q-2 -6 -2 -20q0 -8 2 -24.5t5.5 -36t6.5 -40t7 -34.5q2 -6 2 -25q0 -67 -62 -67h-2q-14 0 -37.5 1t-31.5 3t-17 2l-73 -6q-4 0 -18.5 8t-22.5 18q-20 18 -21 56q0 16 1 26t7 51q2 10 2 18.5v18.5v19l-2 37v30v44.5t-2 27.5q-2 6 -2 16v6l4 74q-4 35 -4 41v15v11t2 29 q-6 37 -6 99q0 129 -102 129q-29 0 -56.5 -18.5t-50.5 -51.5q-14 -23 -19 -46t-7 -62v-23.5t-4 -38.5l6 -71q0 -6 -2 -13q-2 -8 -2 -16q0 -4 -2 -6l8 -115v-4q0 -2 -1 -5t-1 -7q-2 -14 -3 -34t-1 -44q0 -29 1 -44.5t7 -58.5q2 -12 3 -21t1 -20q0 -31 -17.5 -52t-41.5 -21 q-14 0 -23 2q-20 2 -34.5 3t-20.5 1q-8 0 -17 -2l-47 -2q-76 0 -76 100q0 18 2.5 43t6.5 43q6 37 6 45q-4 35 -4 61.5t-2 45.5q0 10 -1 23.5t-3 29.5v6q0 4 1 8t1 11q2 6 2 24v33q-2 14 -2 23.5v45.5v21.5t-5 24.5l3 61q0 12 -7.5 39t-15.5 43q-18 37 -70 37q-80 0 -127 -94 q-10 -23 -15 -49.5t-5 -71.5v-29.5t2 -24.5v-14l-4 -86l6 -70v-4q0 -2 -1 -5t-1 -7l-4 -139q0 -20 2 -29q4 -20 6 -37.5t4 -29.5q2 -14 4 -27q0 -8 -10 -21.5t-20 -21.5q-8 -4 -17.5 -6t-30.5 -2q-23 0 -43 4q-12 2 -19 3t-9 1q-6 0 -33 -6q-6 -2 -20 -2q-78 0 -78 112z" />
<glyph unicode="n" horiz-adv-x="907" d="M73 122q1 16 3 32q4 20 5 53t1 61v11q0 4 -1 9t-1 13v57v23.5t2 44.5l-6 63l4 84l2 56l-2 90l6 69q-6 43 -8 68t-4 37t-2 16v11q2 106 86 106h16t19 -2q8 -2 14 -2l98 2q6 0 16.5 -8t14.5 -19q4 -4 10 -45q6 -25 16 -24q6 0 17 16q16 23 46 45.5t52 30.5q6 2 21.5 5t33 5 t33 4t23.5 2q35 0 77 -18.5t78 -50.5q39 -35 60.5 -83t23.5 -108l4 -71l-4 -183l2 -63v-21v-50t2 -30l3 -45q0 -4 -1.5 -13l-3.5 -21l-2 -29q0 -43 2 -70.5t7 -73.5q2 -6 2 -14q-4 -66 -12.5 -84t-34.5 -18q-16 0 -25 2q-14 2 -25.5 2h-21.5h-21.5t-21.5 -2q-14 -2 -23.5 -3 t-17.5 -1q-31 0 -50.5 24.5t-19.5 65.5v14t1 15.5t3 23.5t6 39q2 10 3.5 21.5t1.5 21.5q0 8 -1 32.5t-4 35.5q-2 10 -2 20v18t-2 17l4 74l-2 73v10.5t5 24.5l-7 55l2 62q0 29 -12 56.5t-29 41.5q-20 16 -28 19.5t-29 3.5q-31 0 -54.5 -16.5t-51.5 -57.5q-20 -31 -27.5 -58.5 t-7.5 -80.5v-78q2 -8 2 -16q0 -10 -2 -17q-2 -10 -2 -17v-9l4 -84q0 -29 -1 -70t-3 -76v-4t1 -10t4 -26.5t7 -51.5q2 -10 3 -20.5t1 -18.5q0 -25 -19.5 -40t-47.5 -15h-11.5t-17.5 2l-49 2h-17q-16 -2 -28.5 -3t-16.5 -1q-69 0 -69 97q0 19 1 35z" />
<glyph unicode="o" horiz-adv-x="989" d="M33 498q0 35 1 55t4 41.5t11 50.5t23 80q8 31 14 50.5t14.5 35.5t20.5 33.5t31 42.5q20 27 32.5 43t21.5 25.5t19.5 16.5t26.5 17q41 29 65.5 39t55.5 14q35 4 75.5 8.5t63.5 4.5q53 0 110.5 -13.5t79.5 -29.5q2 -2 4.5 -4t8.5 -6.5t16 -11.5t31 -19q12 -8 32.5 -30.5 t41 -49.5t37 -52.5t22.5 -41.5q12 -37 15 -46.5t12 -27.5q10 -20 17 -59t9 -68l4 -45q4 -14 4 -23.5v-13.5q-4 -61 -6 -95t-5 -55.5t-8 -40t-13 -44.5q-12 -37 -24.5 -65t-29 -52.5t-39 -47t-55.5 -48.5q-33 -27 -60.5 -43.5t-62.5 -28.5q-12 -4 -36.5 -8t-52 -8.5 t-54.5 -7.5t-41 -3q-41 0 -95.5 15.5t-105.5 42.5q-63 31 -111 84t-75 118q-10 25 -18.5 60t-15.5 72.5t-11 73.5t-4 65zM287 483q10 -94 14 -104q2 -4 6 -19.5t12 -44.5q4 -16 23.5 -44.5t36.5 -43.5q45 -39 94 -39t92 19.5t66 52.5q8 10 17 28.5t18.5 38t16.5 37t9 25.5 q0 6 1 21.5t2 35l2 39t1 33.5q-2 29 -3 52.5t-1 39.5q-2 14 -5 24.5t-13 33.5l-11.5 23t-9.5 22q-16 35 -29.5 54t-31.5 34q-14 10 -42 19t-46 9q-70 0 -121 -45q-6 -6 -16.5 -20t-20.5 -31.5t-19.5 -35t-11.5 -27.5q-25 -109 -26 -111v-20v-23.5t-4 -32.5z" />
<glyph unicode="p" horiz-adv-x="1026" d="M72 -166q0 16 1 25.5t11 46.5q2 10 3 19t1 14l-2 43v61.5t1 42.5t2 46t3 69q-2 20 -3 33.5t-1 25.5t-1 26.5t-1 41.5q0 14 -1 26.5t-3 65.5q0 57 6 125l-4 88q0 6 1 10t1 10v17.5v31.5q2 20 2 29.5t2 46.5v21v14q0 8 -3 26.5t-7 43.5q-8 31 -8 61q0 45 19.5 63.5 t64.5 18.5h11t17 -2q16 -2 26.5 -2h16.5h29q10 2 19.5 2h17.5q29 0 47 -20q14 -18 18 -21.5t9 -3.5q8 0 26 12q16 12 41 23.5t50.5 18.5t52 12.5t47.5 5.5q115 0 221 -90q31 -27 49 -43.5t30.5 -32t21.5 -35t26 -53.5q23 -51 35 -82t17 -62.5t6 -73.5t1 -116q0 -53 -12 -120 t-31 -118q-4 -10 -13 -26.5t-21.5 -36t-26 -36.5t-23.5 -30q-23 -25 -35 -39t-22 -23t-21.5 -15.5t-29.5 -14.5q-31 -14 -47.5 -22.5t-27.5 -11.5t-21.5 -4t-26.5 -1h-10.5t-26.5 2l-53 -2q-16 0 -55 12.5t-89 34.5q-16 4 -26 4q-33 0 -33 -55v-19.5t1 -14.5t4 -18t7 -30 q6 -25 6 -51q0 -70 -57 -70q-10 0 -20.5 1t-22.5 3q-6 2 -11 2h-7q-4 0 -15.5 -1t-27.5 -3q-10 -2 -31 -2q-94 0 -94 76zM332 524q0 -6 1 -15t3 -22q2 -10 2 -17v-11v-17q0 -74 11 -104.5t48 -58.5l45 -35q6 -4 20.5 -8.5t32 -9.5t32 -8t18.5 -3q41 0 83 25.5t68 66.5 q12 18 24.5 55t14.5 60q2 20 3 46t5 54q0 59 -18 122t-43 89q-27 29 -45 37q-31 10 -39 12t-25 11q-16 4 -25 6t-32 2q-45 0 -66.5 -12.5t-46.5 -51.5q-23 -35 -37 -59.5t-21 -48t-10 -48t-3 -57.5z" />
<glyph unicode="q" horiz-adv-x="1028" d="M33 500q0 88 32.5 181t94.5 187q16 23 30.5 38.5t36.5 35.5q37 31 67 51.5t56.5 32.5t53 17.5t57.5 5.5q41 0 74.5 -11.5t74.5 -33.5q23 -14 33 -18.5t21 -4.5q14 0 17 4t9 27q4 16 29 16q14 0 22 -2q12 -2 31 -3t35 -1h19.5t19.5 2q16 2 26.5 2h20.5q25 0 43 -21.5 t18 -52.5q0 -12 -1 -24.5t-7 -57.5q-4 -29 -6 -43q-2 -8 -2 -16l2 -68l2 -28v-49q2 -12 2 -20.5v-10.5l-2 -60l2 -114q0 -4 -1 -15.5t-3 -25.5l-2 -25l2 -96v-10t-2 -23v-98v-14.5v-14.5t1 -21.5t3 -37.5l-2 -29q2 -20 3 -32.5t1 -21.5v-18.5v-25.5q0 -33 1 -45t7 -37 q2 -10 3 -19.5t1 -15.5q0 -31 -17 -54q-16 -20 -38 -20h-4q-41 4 -68.5 5.5t-29.5 1.5l-58 -7q-33 0 -55 18.5t-22 45.5q0 14 10 49q6 23 8 41t2 61q0 49 -22 50q-10 0 -31 -11q-14 -8 -41 -17t-56.5 -17.5t-57 -13.5t-44.5 -5q-31 0 -46 3t-46 20q-4 4 -17.5 8t-33.5 14 q-66 27 -158 152q-12 16 -33.5 62t-38.5 87q-6 14 -10 38t-8 49.5t-6 53t-2 50.5zM283 469q0 -55 17 -104.5t58 -104.5q20 -27 52 -44t61 -17q35 0 81 22.5t77 54.5q18 18 28.5 29.5t15.5 26t7 32t2 48.5l4 55q4 29 5 37t1 20q0 6 -2 21.5t-5 35l-6 39t-5 31.5q0 6 -6 19.5 t-14.5 29t-15.5 28.5t-11 20q-23 27 -55.5 43t-67.5 16q-43 0 -91 -31t-79 -78q-10 -14 -18.5 -41.5t-16.5 -59.5t-12 -66.5t-4 -61.5z" />
<glyph unicode="r" horiz-adv-x="608" d="M72 924q0 41 24.5 69.5t57.5 28.5h12t18 -2q8 -2 25 -2h10q14 2 24.5 4t20.5 4q8 2 19 2q16 -2 29.5 -18.5t13.5 -32.5v-18.5t-2 -18.5v-14q0 -20 14 -21q12 0 19.5 6.5t29.5 36.5q57 78 125 78q41 0 64.5 -18.5t23.5 -51.5q0 -12 -2 -21t-12 -48q-2 -8 -3 -14.5 t-1 -12.5q0 -8 1 -22.5t3 -34.5q2 -12 3 -25.5t1 -27.5q0 -68 -51 -68q-10 0 -15.5 1t-34.5 11q-8 2 -14 3t-12 1q-43 0 -72 -44t-33 -119l-6 -52l-8 -22q0 -2 -1 -5t-1 -11.5t-1 -23.5t-3 -42l4 -60l-4 -135q0 -35 10 -82q6 -37 6 -57q0 -55 -65 -55q-4 0 -13.5 1t-56.5 7 q-35 -6 -43 -7t-18 -1q-78 0 -78 98q0 10 1 17.5t5 41.5q2 12 3 27.5t1 34.5l-2 110l-4 164l2 25q0 4 1 8t1 8t2 6l-6 78l2 37l-2 55v15q2 18 3 30.5t1 20.5q0 25 -4 60.5t-8 66.5q-2 10 -3 18.5t-1 12.5z" />
<glyph unicode="s" horiz-adv-x="751" d="M43 782q0 111 74 185q25 25 47 41t52 25t68 13.5t91 4.5h26.5t19.5 -1t20.5 -3.5t31.5 -4.5q14 -2 20.5 -2t34.5 -2q49 -2 78 -25.5t29 -64.5v-18t-2 -19l-2 -24v-66q0 -18 -19.5 -32.5t-42.5 -14.5q-31 0 -75 29q-18 10 -26.5 14t-21.5 6q-8 2 -16 3t-18 5t-15.5 4.5 t-21.5 0.5q-45 0 -58 -13q-12 -10 -20 -28.5t-8 -36.5q0 -45 65 -82q6 -4 11.5 -6t12.5 -5t18.5 -7.5t33.5 -10.5q14 -4 19.5 -6t21.5 -10q133 -57 182 -121q76 -94 76 -219q0 -76 -33.5 -142.5t-97.5 -117.5q-18 -14 -31.5 -21.5t-39 -13.5t-71.5 -12.5t-130 -14.5 q-10 0 -28.5 2t-38 6.5t-39 9.5t-32.5 9q-23 10 -32 11t-21 5q-39 6 -50 10.5t-24 18.5q-16 23 -16 43v14t2 19q4 16 4 26.5v20.5v20.5t-2 22.5q-2 14 -3 24.5t-1 18.5q0 23 18.5 40t40.5 17q35 0 95 -59q23 -20 66.5 -34.5t84.5 -14.5q57 0 92 29.5t35 78.5q0 61 -74 88 q-18 8 -34.5 15.5t-30.5 17.5q-8 4 -15.5 8t-15.5 8l-51 19q-14 6 -34.5 17.5t-42 24.5t-40 26.5t-26.5 23.5q-35 35 -52.5 95.5t-17.5 131.5z" />
<glyph unicode="t" horiz-adv-x="542" d="M10 854v14.5t2 18.5q2 8 2 18q0 4 -1 16.5t-3 32.5v17q0 31 10.5 43t42.5 20q29 6 36 19.5t12 66.5l-7 78q0 14 6.5 35.5t10.5 26.5q14 14 33.5 20t66.5 10q16 0 49 8l17.5 3.5t15.5 1.5q59 0 59 -84q0 -10 -1 -17.5t-9 -40.5q-4 -10 -5 -27.5t-1 -33.5q0 -23 3 -36 t12.5 -19.5t29 -9.5t53.5 -3q74 -4 74 -49v-7t-4 -22v-39l-2 -45q2 -41 -8 -51t-49 -14q-53 -4 -65.5 -8t-18.5 -21q-4 -10 -8.5 -30.5t-4.5 -34.5q0 -4 1 -11.5t6 -42.5l-9 -39l4 -34l-2 -56l4 -43q-4 -31 -4 -37v-10v-14t2 -18l5 -62l2 -43q2 -29 6 -44t13 -22.5 t27.5 -10.5t49.5 -5q23 -4 37 -16.5t14 -28.5q0 -12 -2 -20t-2 -19q0 -4 -2 -6q0 -4 10 -55q2 -8 2 -16.5v-18.5q0 -29 -26.5 -40t-96.5 -13l-24 -2q-51 -10 -66 -11q-94 0 -151 93q-14 23 -23.5 43t-14.5 44.5t-7 54.5t-2 68l2 54v10q-2 10 -2 20.5v24.5v28.5t2 47.5 q0 2 1 11t1 19.5v20.5v14v18.5t-4 26.5q-2 14 -2.5 25.5t-0.5 21.5v13.5t5 27.5q-2 41 -3.5 63.5t-2.5 34t-2 14.5t-3 7q-4 16 -14 21.5t-37 9.5q-39 6 -39 45z" />
<glyph unicode="u" horiz-adv-x="905" d="M70 942q0 51 13 68.5t52 17.5h25q12 -2 19 -2h11h15.5t27.5 2q10 2 17.5 2h15.5q35 0 57.5 -23.5t22.5 -58.5q0 -16 -6 -47q-4 -20 -7 -52t-3 -67v-25.5t2 -41.5q2 -29 3 -54.5t1 -48.5v-43q0 -29 -1 -39t-5 -38l6 -72l-2 -39q8 -61 11 -72.5t7 -17.5q8 -16 32 -25.5 t52 -9.5q20 0 31.5 1t22 8t21.5 22.5t30 42.5q4 8 9 23.5t10 32.5t8 34.5t3 30.5v18t-2 29v28l2 88l-4 88l6 66l-2 78q-4 39 -4 47v25q0 59 13.5 84.5t42.5 25.5q8 0 16 -1t18 -3q25 -6 39 -6q4 0 16.5 1t28.5 3q8 2 15.5 2h13.5q63 0 64 -94q0 -20 -7 -53q-6 -33 -8 -50.5 t-2 -44.5q0 -20 2 -64t4 -77l-4 -53q0 -6 2 -13q0 -4 1 -8t1 -8t2 -6q-4 -35 -6 -64.5t-2 -66.5v-7t1 -11.5t2 -23.5t5 -44q-4 -23 -5 -36t-2 -21.5t-1 -15.5v-17q0 -35 2 -63.5t12 -82.5q2 -8 2.5 -16t0.5 -16q0 -76 -64 -76q-18 0 -37 6q-4 0 -7 1t-7 1t-6 2 q-29 -4 -45.5 -7t-24.5 -4t-11 -1h-7q-35 0 -48.5 11t-13.5 38q0 23 -2 29t-10 6q-4 0 -8 -4l-27 -27q-70 -74 -188 -74q-33 0 -71 15.5t-71 40.5q-35 29 -50 48t-32 50q-27 53 -26 80l2 49l-6 39l4 47l-2 68q0 4 1 12t3 18l2 21v26q0 12 -1 28.5t-1 35.5v16v45l-2 45 q-2 16 -2 27.5v15.5t1 10.5t3 16.5l2 20l-6 62l2 45q-6 51 -7 63.5t-1 28.5z" />
<glyph unicode="v" horiz-adv-x="792" d="M2 1010.5q14 21.5 39 21.5q6 0 22 -4l22.5 -5t10.5 -1h7t9.5 1l19.5 3t36 6h14q78 0 84 -88q2 -23 4 -32t9 -29q8 -12 14 -43l14 -74l19 -72q6 -16 16 -47t27 -78q2 -10 5 -17t5 -19.5t6 -33t10 -53.5q4 -20 5 -26t6 -17q4 16 5 22.5t3 18.5q0 18 6 41q2 4 4 21.5t6 48.5 l8 31q4 16 7.5 30.5t7.5 28.5l6 49l10 47q10 37 16.5 62.5t10.5 47t6 42t4 49.5q4 29 11 45.5t24 28.5q11 8 25 14q10 4 19 4h5l72 -8l83 6q59 0 60 -67q0 -23 -2 -33t-12 -33q-2 -4 -6.5 -19.5t-14.5 -41.5q-29 -74 -31 -95q-8 -31 -12 -47t-7 -26.5l-5 -17.5t-6 -19 t-5.5 -19.5t-5.5 -35.5q0 -4 -10 -31q-6 -16 -10 -29.5t-9 -34t-13.5 -53.5t-20.5 -88q-4 -27 -7 -37t-14 -31q-8 -16 -12 -26t-6 -17.5t-4 -15.5t-4 -20q-10 -59 -17.5 -98.5t-16.5 -62t-20.5 -30.5t-25.5 -8h-11.5t-15.5 2l-98 2q-20 0 -29 -2q-12 -2 -20 -3t-10 -1 q-23 0 -46.5 24.5t-39.5 65.5q-6 16 -9.5 28.5t-11.5 57.5q-2 10 -8 42t-10 48q-6 16 -13.5 32.5t-15.5 35.5l-8 28l-6 45q0 4 -15 48q-4 16 -9 30.5t-11 30.5q-2 4 -6 19.5t-4 25.5q-4 12 -8.5 24.5t-8.5 26.5q-8 16 -10 24.5t-6 26.5q-2 14 -4 24.5t-6 20.5l-25 82l-10 25 q-4 10 -9.5 20.5t-9.5 20.5q-26 51 -26 100q0 39 14 60.5z" />
<glyph unicode="w" horiz-adv-x="1314" d="M-12 993q0 37 49 37h22.5t26.5 -2q10 -2 17.5 -2h9.5q8 0 25.5 1t41.5 3q10 2 25 2q33 0 49 -19.5t27 -70.5q16 -55 28.5 -104.5t26.5 -92.5l10 -34l8 -62l8 -31l21 -55q12 -35 21.5 -71.5t9.5 -63.5q4 -25 12 -25t12 15.5t6 40.5q4 41 5.5 52t5.5 28q18 82 37 149 q14 68 23 105.5t12 64.5t4 48.5t1 54.5q0 8 8.5 27.5t14.5 27.5q14 16 45 16h21.5t33.5 -4l72 6h12q29 0 47.5 -26.5t18.5 -67.5v-22q-2 -6 -2 -13v-6q0 -68 59 -293l4 -26l6 -41l13 -47l8 -35q2 -20 3 -26.5t7 -16.5q8 31 11.5 46t7.5 50l12 72l10 36l6 25l6 35 q4 31 9.5 56.5t13.5 45.5l6 21l8 49l11 37l4 24q8 119 94 119q20 0 31 -4q4 0 6 -1t4 -1h4l119 8q4 0 19 -8t20 -14q10 -8 16 -24.5t6 -31.5q0 -16 -4 -28.5t-31 -59.5q-12 -23 -16 -33t-10 -34q-4 -14 -19 -45l-12 -25l-4 -27q-2 -29 -4 -39t-10 -26l-19 -49q-4 -25 -6 -34 t-8 -30q-10 -23 -12.5 -34t-6.5 -46q-4 -18 -5 -25t-5 -18l-10 -41q-4 -23 -12 -43l-13 -28q-23 -55 -29 -93t-8 -96q0 -106 -67 -106h-18.5t-20.5 2q-14 2 -23.5 3t-17.5 1q-6 0 -18.5 -1t-28.5 -3q-10 -2 -18.5 -2h-14.5q-84 0 -96 125q-4 23 -5 29t-5 16 q-14 39 -22.5 61.5t-22.5 57.5q-12 41 -17.5 68.5t-9.5 68.5q0 20 -8 20q-10 0 -15 -45l-12 -47q-4 -10 -6 -19.5t-4 -17.5q-12 -49 -49 -155q-12 -20 -19 -52v-55q0 -20 -15 -35.5t-34 -15.5q-12 0 -41 1t-63 3h-23q-16 0 -24 -2l-27 -2q-25 0 -50.5 21.5t-29.5 43.5 q-4 16 -7 33t-7 35t-6 26.5t-7 41.5q-4 18 -6 32.5t-7 29.5t-13 35.5t-23 51.5l-6 19l-6 45l-18 57q-6 12 -10.5 21.5t-6.5 18.5t-4 21.5t-4 32.5l-6 27l-21 41l-8 28q-4 18 -9 40t-9 38t-6 24.5t-7 22.5l-12 37q-4 18 -8 30.5t-6 16.5q-6 14 -13.5 27.5t-15.5 28.5 q-6 12 -12 35.5t-6 33.5z" />
<glyph unicode="x" horiz-adv-x="921" d="M8 74q0 29 27 63q14 18 18 25.5t8 17.5t14.5 31.5t26.5 52.5q4 8 29 45q6 14 12.5 27.5t10.5 28.5l16 30q10 14 20.5 27.5t20.5 30.5q2 2 9 24.5t15.5 48t14.5 48t6 26.5q0 8 -3 15.5t-26 46.5q-4 10 -9 20t-11 20q-2 10 -29 54q-2 4 -8 17t-20 40q-6 16 -26 44t-40 50 q-8 12 -15.5 31.5t-7.5 36.5q0 16 10.5 31.5t26.5 19.5q12 4 66 4h14q16 -2 27.5 -3t15.5 -1t10.5 1t16.5 3t17 2h16q29 0 43 -14t36 -74l15 -24l14 -25q8 -10 16.5 -29.5t22.5 -58.5q16 -47 29 -47q6 0 13 12t19 47q4 10 9.5 22.5t11.5 24.5l20 33l9 29q10 39 16 53t23 27 q29 23 55 22q6 0 15 -1t24 -3q27 -6 47 -6q18 0 29 2q10 2 16 2h10q27 0 45.5 -21.5t18.5 -50.5q0 -12 -1 -21t-7.5 -21.5t-18.5 -30t-35 -48.5q-6 -8 -11 -16t-9 -16l-37 -74q-4 -10 -8 -16.5t-15 -22.5q-6 -10 -12 -20.5t-10 -18.5l-15 -18l-16 -19q-6 -10 -6 -18v-11.5 t3 -11.5t9 -17t17 -30l10 -26l8 -29q14 -29 35 -49q16 -23 22.5 -34t14.5 -34q12 -27 26 -53l17 -27l12 -30q4 -10 11 -19.5t16 -19.5q10 -12 13 -16.5t9 -14.5q8 -23 31 -49q14 -20 18 -30.5t4 -29.5q0 -63 -69 -63q-6 0 -14.5 1t-53.5 5q-4 0 -20 -4q-18 -4 -31.5 -6 t-19.5 -2q-16 0 -38 5t-32 11q-18 14 -25.5 28.5t-13.5 59.5q-4 18 -9 31.5t-16 32.5q-6 10 -11 18t-9 19l-10 18l-27 35l-12 20q-23 41 -33 54.5t-23 13.5q-16 0 -38 -41l-21 -41q-4 -8 -9 -16.5t-9 -18.5l-15 -35l-4 -18q-18 -63 -30.5 -98t-24.5 -51.5t-30.5 -19.5 t-49.5 -3h-18.5t-32.5 4q-43 -6 -51.5 -7t-12.5 -1q-43 0 -67.5 21.5t-24.5 60.5z" />
<glyph unicode="y" horiz-adv-x="868" d="M-18 -115q0 4 2 9.5t14 27.5q4 4 8 15.5t12 29.5q23 70 70 70q41 0 105 -51q6 -4 26.5 -9.5t34.5 -5.5q29 0 52.5 30t23.5 65q0 41 -11.5 72.5t-44.5 84.5q-18 29 -26 51q-6 14 -6 13.5t-4 13.5q-8 31 -10.5 36l-4.5 9l-14 31q-4 10 -9 20.5t-10 20.5l-12 31l-8 26 q-4 12 -9 26.5t-9 30.5l-11 29q-16 49 -22 64l-13 26l-12 25q-4 16 -8 34.5t-8 39.5q0 6 -6 21t-13.5 32.5t-14.5 33t-11 21.5q-23 39 -28 51.5t-5 34.5q0 37 22.5 59.5t57.5 22.5q10 0 18 -1t19 -3q4 -2 10 -2q2 0 4 -2l92 6q4 0 19.5 -10t21.5 -17q10 -10 15.5 -24.5 t9.5 -42.5q4 -29 7 -41t13 -33l10 -25q4 -18 8.5 -34.5t8.5 -30.5q4 -18 6 -25.5t8 -21.5q4 -10 8 -19.5t9 -19.5q4 -12 7 -22.5t7 -20.5l14 -35q8 -18 12.5 -30.5t8.5 -26t9 -30.5t11 -44q6 -23 19 -68q4 27 8 47.5t8 32.5l10 41l8 39l11 37l26 72q6 14 16.5 56t22.5 95 q4 20 6 39t7 37l8 27q16 53 34.5 75.5t47.5 22.5q6 0 23.5 -1t45.5 -3h17h14q23 2 37 3t16 1q27 0 50.5 -22.5t23.5 -47.5q0 -10 -11.5 -35.5t-43.5 -89.5q-6 -12 -10.5 -20t-7.5 -19.5t-8 -29t-13 -47.5q-6 -25 -9.5 -37t-11.5 -31q-4 -10 -10 -27.5t-12 -42.5 q-6 -18 -9.5 -28t-13.5 -33q-16 -43 -26.5 -71.5t-26.5 -75.5q-8 -27 -15.5 -52.5t-17.5 -54.5q-16 -49 -21 -66.5t-10 -39.5l-10 -58l-14 -43l-23 -92q-14 -51 -30.5 -82t-42.5 -53q-76 -66 -168 -66q-2 0 -25.5 1t-56.5 3h-47q-41 0 -80 11.5t-70 28t-50 38t-19 43.5z" />
<glyph unicode="z" horiz-adv-x="739" d="M31 59v18.5t2 18.5l4 25v57q2 14 10 28.5t41 55.5q20 41 37 66q10 16 9 16t9 16q4 10 9.5 20.5t11.5 18.5l22 35q12 20 29.5 49t28.5 52q12 23 22 44t21 37l37 54q41 49 41 84q0 33 -35 32q-10 0 -21.5 -1t-25.5 -3l-74 -6l-59 -2q-31 -6 -44 -6q-20 0 -33.5 15.5 t-13.5 37.5q0 20 2 29q0 4 1 7t1 7t3 6l-5 88q0 4 12.5 21.5t22.5 28.5q26 24 61 24h3h13t14.5 -1t25.5 -3t45 -4q8 -2 23 -2q6 0 8 -2q39 4 59.5 7t31.5 4t14 1h7q10 0 21.5 -1t23.5 -3q25 -4 43.5 -7t28.5 -3h7t14 2q33 4 45 6t24 2q33 0 49 -10q10 -4 20.5 -19.5 t10.5 -25.5l-2 -80q0 2 4 -19q2 -10 3 -19t1 -17q0 -20 -8 -41t-31 -54q-14 -20 -23 -33.5t-15.5 -22.5t-10.5 -16t-8 -16q-10 -16 -18.5 -34.5t-18.5 -36.5q-6 -10 -12 -21.5t-14 -21.5l-33 -47q-4 -6 -10.5 -18.5t-18.5 -39.5l-55 -110q-4 -8 -9.5 -15.5t-9.5 -15.5t-5 -8 t-5 -6q-8 -10 -8 -19q0 -14 12.5 -19t52.5 -10l43 3l62 -7q4 0 11 2t44 15q14 6 33 6q27 0 39 -17.5t16 -62.5l6 -43q6 -29 7 -47q0 -41 -41 -69.5t-103 -28.5h-68.5t-57 2t-64.5 5t-88 7q-2 0 -14.5 -1t-28 -2t-28.5 -2t-17 -1q-61 -6 -82 -6q-84 0 -84 73z" />
<glyph unicode="{" d="M244 508v151q2 16 6 23.5t20 11.5q86 29 86 140q0 8 -1 21t-3 34q-2 10 -2 18v19q0 10 1 20t7 58l-4 59q0 98 11.5 151.5t40.5 88.5q35 45 97 65.5t161 20.5l135 -5q27 -2 26 -34l-2 -72l2 -70q0 -14 -1 -21t-8 -11.5t-23.5 -5.5t-44.5 -1q-31 0 -57.5 -4t-37.5 -12 q-23 -14 -28 -45q-2 -4 -2 -8v-25q0 -10 -2 -20l4 -70l-4 -57l6 -58q-6 -72 -10.5 -110.5t-6.5 -46.5q-6 -23 -10 -37t-12 -26.5t-22.5 -25t-39.5 -32.5q-8 -4 -8 -14t6 -16.5t27 -20.5q23 -14 39 -44t22 -67q6 -25 13 -147l-4 -84v-31l2 -47q-2 -47 2 -75t21.5 -42t52 -18 t96.5 -4q31 0 30 -33l-2 -74l2 -74q0 -12 -4 -20t-20.5 -11t-49 -4.5t-89.5 -1.5q-111 0 -174.5 25t-96.5 80q-27 43 -33 119q-2 12 -2 20v37v26.5v22.5t-1 30.5t-3 51.5v10.5t2 20.5q2 16 2 36.5v43.5q0 49 -3 80.5t-12 52t-26.5 34t-44.5 23.5q-16 6 -20 11.5t-6 19.5z " />
<glyph unicode="|" horiz-adv-x="1032" d="M379 446q4 41 6 101.5t2 99.5l-6 90q0 2 1 13.5t3 31.5q2 10 2 18.5v18.5v11.5t-1 14.5t-2 25.5t-3 44.5q-2 10 -2 19.5v19.5v21.5t4 64.5l-2 78l6 68l-6 84q0 78 12 90q10 6 94 8l58 -4l63 2q27 0 34 -8t7 -37v-67.5t-2 -67.5v-37v-12.5t1 -17.5t2 -32.5t3 -60.5l-2 -41 q-2 -14 -2 -46v-60v-42.5t4 -54.5q2 -16 2 -27.5v-21.5v-7t-1 -11t-3 -23.5t-4 -44.5l4 -67l-4 -66l4 -68l-4 -67l6 -68l-8 -67l4 -68l-2 -67l6 -68l-8 -66l10 -108q0 -4 -1 -10.5t-3 -16.5q-6 -23 -6 -26l4 -119q0 -20 -9 -27.5t-36 -7.5h-28.5h-21.5t-25.5 1t-41.5 3 l-65 -4q-23 0 -31 8t-8 35q0 20 1 37.5t3 32.5l2 30l-8 105l6 67q-4 37 -5 67t-2 59.5t0 63.5t5 79l-2 67l2 68z" />
<glyph unicode="}" d="M199 -55q0 27 10 32t70 5q29 0 55 5t37 13q23 14 28 43q2 6 2 10v25q0 10 2 20l-4 70l4 57l-6 58q6 72 10.5 110.5t6.5 46.5q6 23 10 36t13 25.5t23.5 26t39.5 33.5q6 6 6 14q0 10 -5 15.5t-28 19.5q-20 14 -37.5 45t-23.5 66q-6 25 -13 149l7 72q-2 20 -3.5 31.5 t-1.5 19.5t1 16.5t1 22.5q0 47 -4 75t-21.5 42t-52 18t-96.5 4q-31 0 -30 33l2 74l-2 72q0 35 32 34q2 2 29 2l102 3q207 0 271 -105q27 -43 33 -119q2 -12 2 -19v-38q0 -23 1 -56.5t3 -76.5v-8q0 -4 -1 -9.5t-1 -11.5l-2 -82q0 -49 3 -79.5t12 -51t26.5 -34t44.5 -23.5 q16 -8 20 -13.5t6 -19.5v-151q-2 -16 -6 -22.5t-20 -10.5q-86 -29 -86 -142q0 -6 1 -19t3 -34q2 -10 2 -19v-20v-8t-1 -11t-3 -19.5t-4 -36.5l4 -60q0 -98 -11.5 -152.5t-40.5 -89.5q-37 -45 -96 -64.5t-160 -19.5q-59 0 -91.5 1.5t-48 5.5t-19.5 11t-4 21l2 72z" />
<glyph unicode="~" horiz-adv-x="1366" d="M193 1251q0 10 9 34t23.5 50.5t30.5 52t31 42.5q80 98 209 98q20 0 41.5 -3t51 -11.5t74 -23.5t111.5 -40q35 -14 60.5 -19.5t50.5 -5.5q41 0 69.5 16.5t57.5 55.5q16 25 28 25q6 0 29 -13l76 -43q16 -10 22.5 -16t6.5 -16t-8.5 -30t-22 -42.5t-28.5 -46t-30 -39.5 q-45 -51 -104 -79t-125 -28q-18 0 -33.5 2.5t-43 10.5t-72.5 23.5t-121 41.5q-39 14 -61.5 19.5t-45.5 5.5q-31 0 -61 -15q-12 -6 -18.5 -10t-13.5 -12t-15.5 -20.5t-22.5 -36.5q-12 -18 -26 -19q-10 0 -31 15l-72 47q-27 16 -26 30z" />
<glyph unicode="&#xa1;" horiz-adv-x="557" d="M133 -111q0 14 1 23.5t5 32.5l6 35l9 57q8 35 9 42t1 23v33q-2 20 -2 36.5v29.5v19t1 14.5t3 18.5t6 32q6 31 7 55.5t1 77.5q0 16 1 23.5t5 35.5l2 60l7 34q6 33 6 52q0 10 -2 23t-6 44l-3 35q0 39 23 51t92 12q29 0 36 -2t17 -16q16 -20 17 -47q0 -8 -1 -24.5t-3 -39.5 q-2 -10 -2 -17v-15q0 -29 2 -57.5t6 -61.5l8 -74l2 -41v-22t4 -23q2 -23 4 -55.5t4 -79.5q2 -12 2 -23.5t2 -25.5q4 -27 8.5 -68t8.5 -96v-13.5t-2 -27.5v-16q0 -6 1 -15.5t5 -58.5q2 -10 2 -29q0 -35 -19.5 -57.5t-48.5 -22.5h-13t-13 2q-18 2 -30.5 3.5t-16.5 1.5 q-8 0 -18.5 -1.5t-22.5 -3.5q-10 -2 -19.5 -2h-15.5q-76 0 -76 129zM150 1081q0 10 7 29.5t13 24.5q8 8 29.5 12t48.5 4h12t41 -4l53 2q23 0 45.5 -16.5t22.5 -34.5l-4 -107v-8q0 -4 1 -10t1 -15q2 -8 2 -26q0 -35 -12.5 -48.5t-44.5 -13.5h-17.5t-17.5 2q-35 6 -45 7 q-10 0 -35 -7q-10 -2 -19.5 -3t-17.5 -1q-29 0 -45 21.5t-16 56.5v19q2 10 2 17v9z" />
<glyph unicode="&#xa2;" d="M193 686q2 41 4 63.5t4 40t5 33t9 41.5q6 23 8 30t6 36q2 16 12.5 40.5t22.5 50.5t25.5 49.5t25.5 37.5q16 20 26.5 27.5t47.5 29.5q10 6 14.5 8.5t14.5 10.5q31 23 38 26.5t21 8.5q39 8 48.5 13t9.5 21q0 4 -1.5 14.5t-3.5 26.5q-2 4 -2 17q0 76 47 73l46 -2l41 2 q41 0 40 -47q0 -12 -1 -18t-9 -35q-2 -8 -2 -24q0 -33 33 -35q53 -4 73.5 -26.5t20.5 -74.5v-31.5t-2 -19.5v-8l2 -59q0 -12 -18.5 -25.5t-34.5 -13.5q-10 0 -17.5 2t-35.5 14q-25 10 -64 10q-10 0 -25.5 -2t-39.5 -6q-47 -8 -83 -51t-44 -103l-6 -49q-4 -25 -7.5 -41 t-3.5 -20q4 -49 7.5 -80t9.5 -54.5t16 -44t29 -48.5q10 -16 38.5 -40t57.5 -36q47 -23 55 -27t13 -4l118 6q10 0 26.5 -14t16.5 -25l-2 -55q0 -20 4 -41q2 -14 3 -24.5t1 -14.5q0 -72 -112 -72h-10q-23 0 -23 -28q0 -10 1 -20.5t3 -22.5q6 -41 6 -58q0 -23 -16 -29.5 t-64 -6.5q-23 0 -42 3t-27 7t-18.5 16t-10.5 19q0 2 2 13t6 32q2 4 2 12v14l-2 31v12v21q0 14 -51 37q-10 6 -19.5 12t-19.5 12q-8 4 -15 8.5t-15 8.5q-20 10 -27.5 15t-28.5 28q-10 10 -17 18t-18 16q-16 16 -24 27.5t-16.5 26t-17.5 37t-24 63.5q-10 25 -14 39t-7 23.5 t-4 18.5t-3 26z" />
<glyph unicode="&#xa3;" d="M76 47l2 92q0 18 2 29.5t11 18t27.5 9.5t49.5 3q29 2 39 17t18 67q4 43 13 57l10 47l6 57l4 50q2 12 2 17t2 15q0 16 12 70q8 25 10.5 38t2.5 23v72l12 43q8 25 8 53q0 10 -1 15.5t-9 8.5t-26.5 3h-51.5q-12 0 -26.5 12.5t-14.5 22.5l2 55l-2 39q0 29 22.5 43t63.5 14 q29 0 37 3t18 22l13 49q4 12 6 24.5t6 26.5l14 58q4 14 17.5 31.5t30 34t37 31.5t38.5 23q37 16 56.5 25.5t23.5 11.5q31 10 72 14.5t88 4.5q27 0 72 -9.5t67 -19.5q29 -12 48.5 -36.5t19.5 -47.5q0 -12 -4 -20.5t-27 -36.5q-10 -27 -14 -33q-14 -37 -30.5 -52.5 t-41.5 -15.5q-14 0 -25.5 6.5t-33.5 26.5q-37 35 -74 35q-23 0 -44.5 -16.5t-31.5 -42.5q-4 -4 -18 -76q0 -29 53 -29h18q10 2 18.5 2t14.5 2q8 0 14 2q29 0 49.5 -18.5t20.5 -42.5v-11t-2 -20l2 -74q-2 -12 -16.5 -23t-26.5 -11q-39 0 -64.5 2t-56.5 8q-16 0 -29.5 -18.5 t-15.5 -43.5v-20l-8 -29l-10 -47l-4 -63q-2 -14 -13 -41q-4 -10 -6 -17.5t-2 -9.5l2 -82q0 -4 -1 -8l-3 -12q-4 -12 -4 -15q-2 -4 -2 -6l4 -106q0 -2 -2 -8.5t-6 -16.5q-14 -31 -14 -57q0 -20 17 -36.5t36 -14.5l43 2q25 -4 30 -5.5t9 -1.5q31 0 49 31q4 8 9 24.5t10 36 t8.5 37t3.5 27.5q0 4 -1 10t-3 17q-2 10 -3.5 20t-1.5 21q0 41 31 64.5t82 23.5q53 0 84 -25.5t31 -68.5q0 -29 -13 -72q-16 -47 -20 -71.5t-4 -53.5q0 -8 1 -22.5t3 -34.5q2 -16 2 -28.5v-23.5q0 -63 -30.5 -87.5t-108.5 -24.5q-25 0 -203 18h-10l-60 -2q-2 0 -14 2t-33 6 q-10 2 -21 3t-24 1q-27 0 -67 -8q-31 -6 -74 -11t-64 -5q-47 0 -79.5 15.5t-32.5 37.5z" />
<glyph unicode="&#xa4;" horiz-adv-x="1368" d="M53 1270q0 6 3 10t14 16l90 90q20 16 28 17q4 0 18.5 -10.5t33 -27.5t40 -38.5t42.5 -46.5q41 -45 57 -58.5t27 -13.5q6 0 10 2t20 13q47 31 116 49t134 18q137 0 246 -65q16 -10 22.5 -12.5t12.5 -2.5q8 0 28 21l24.5 24.5t27.5 24.5l49 49l39 39t22 21.5t13.5 9.5 t9.5 2q8 0 29.5 -18.5t44 -41t40 -45t17.5 -30.5t-21 -31l-47 -53l-55 -43l-47 -54q-20 -20 -21 -32q0 -4 10 -25q41 -72 58.5 -130t17.5 -126q0 -66 -17.5 -128t-47.5 -116q-16 -25 -17 -34q0 -10 21 -31q18 -16 27.5 -26.5t17.5 -17.5t16 -16.5t21 -23.5q2 -2 18.5 -17.5 t50.5 -48.5q20 -20 21 -32q0 -8 -18.5 -30t-41 -45.5t-44 -41t-29.5 -17.5q-10 0 -31 21q-25 27 -46.5 46t-37.5 36q-10 8 -26.5 25.5t-38.5 43.5q-18 20 -33 21q-2 0 -5 -1t-12.5 -5t-29 -14.5t-56.5 -28.5q-29 -14 -72.5 -25.5t-72.5 -11.5q-90 0 -157.5 15.5t-121.5 47.5 q-23 12 -29.5 16.5t-15.5 4.5q-10 0 -45 -32t-86 -85q-35 -41 -53 -56t-29 -15q-6 0 -11 3t-15 13q-6 6 -19.5 18.5t-27 26.5t-25.5 26.5t-16 16.5q-16 16 -17 29q0 10 21 30q25 27 45 47.5t39 36.5l65 66q12 12 16.5 19t4.5 14q0 10 -12.5 35.5t-47.5 97.5q-23 45 -22 127 q0 78 18.5 147.5t48.5 116.5q10 14 13.5 20.5t3.5 12.5q0 10 -41 53t-133 131q-20 20 -21 33zM414 754q2 -16 3 -26.5t2 -16.5t2 -11.5t3 -13.5q0 -8 14 -37q4 -6 7.5 -14t7.5 -19q8 -25 29.5 -46t49 -38.5t60.5 -27.5t63 -10q66 0 123.5 17t89.5 46q8 8 21.5 24.5t26 34 t21.5 33t11 23.5q2 2 8 112q-6 51 -6 80q-2 14 -6 23.5t-18 30.5q-14 16 -27 38q-23 31 -40 47.5t-40 28.5q-18 10 -55 18.5t-59 8.5q-92 0 -162 -39q-10 -6 -23.5 -18.5t-27 -28t-23.5 -30.5t-14 -25q-35 -92 -35 -97v-18q-2 -16 -2 -21.5t-4 -27.5z" />
<glyph unicode="&#xa5;" d="M12 946q0 16 2 43t4 35q4 14 16.5 27.5t22.5 11.5l41 -4l23 6l24 -2q12 0 13 16q0 14 -15 37q-8 12 -19 39t-20.5 55.5t-16.5 55t-7 37.5q0 59 43 59q8 0 18.5 -1t20.5 -3q25 -6 41 -6q8 0 16 2q12 2 22.5 3t16.5 1q66 0 90 -113q10 -43 41 -103.5t74 -119.5 q6 -10 10 -18.5t21 -42.5q12 -29 22 -29q8 0 19.5 25.5t21.5 60.5q8 31 12 41t17 31q29 51 45 80.5t25.5 49t13.5 37t10 46.5q4 20 26.5 37.5t43.5 17.5h15t17 -2q20 -4 29.5 -5t17.5 -1q16 0 25 2q10 2 16.5 2h10.5q27 0 42 -20.5t15 -55.5q0 -27 -6 -44t-31 -56l-16 -39 q-6 -20 -19 -35q-12 -16 -12 -23q0 -6 9 -12t20 -6h5t25 2h17q41 0 53 -6t20.5 -29.5t8.5 -52.5q0 -43 -17.5 -61.5t-58.5 -18.5q-12 0 -16 2q-8 2 -13.5 2t-9.5 2q-6 0 -10 2q-4 -2 -8 -2t-9.5 -1t-11.5 -1q-6 -2 -20 -2h-15q-6 2 -11 2h-7q-25 0 -36 -14.5t-28 -69.5 l-16 -31q-10 -18 -13 -24t-3 -12q0 -8 5 -17.5t9 -9.5l82 4q0 -2 2 -2t4 -1t6 -1q20 -4 23 -4l102 6q20 -2 41 -27.5t21 -48.5q0 -29 -9.5 -52.5t-25.5 -33.5q-12 -6 -27.5 -7t-64.5 -1h-39q-10 -2 -17.5 -2h-9.5l-80 10q-33 -4 -52.5 -7t-28.5 -8t-11 -11.5t-2 -18.5 q0 -10 6 -29q4 -20 4 -28q0 -23 -10 -60l-3 -6t-1 -6q-2 -4 -2 -6l6 -115q-2 -2 -2 -4v-12q-6 -25 -6 -43q0 -39 12 -103q4 -20 6 -37.5t2 -33.5q0 -25 -16.5 -41.5t-40.5 -16.5q-10 0 -21.5 1.5t-23.5 3.5q-18 4 -25.5 5t-17.5 1t-16.5 -1t-41.5 -5q-10 -2 -19 -2h-19 q-29 0 -47.5 16t-18.5 41q0 23 14 65q10 33 15.5 71t5.5 67q0 16 -1 32.5t-3 32.5q-2 10 -3 18.5t-1 14.5q-2 8 -2 14l2 88l-2 45q2 16 3 27.5t1 13.5q0 20 -27 27h-61l-33 2q-14 2 -24.5 2h-14.5q-12 0 -26.5 -1t-30.5 -3q-12 -2 -21.5 -3t-13.5 -1q-12 0 -36 3t-30 7 q-14 6 -24.5 28.5t-10.5 51.5q0 45 27 68q8 6 25.5 13t21.5 7l53 -6l41 4q2 -2 7 -2q4 0 7 -1t7 -1q8 -2 13 -3t9 -1q66 0 82.5 4t16.5 24q0 10 -17 41q-8 20 -14 29q-39 86 -68 88q-4 -2 -10 -2q-4 -2 -10 -2t-12 -2q-4 -2 -17 -2h-10t-41 4q-29 -4 -34 -5t-9 -1 q-33 0 -53.5 15.5t-20.5 37.5z" />
<glyph unicode="&#xa6;" horiz-adv-x="1032" d="M379 199q2 39 3 59.5t3 30.5t3 13t5 5q4 4 94 10l60 -8l65 4q27 0 35 -14q2 -2 8 -143q-2 -4 -2 -9q0 -4 -1 -9t-1 -11q-2 -16 -3 -27.5t-1 -21.5l2 -92l-4 -70l2 -70l-4 -71l6 -78q0 -14 -2 -21.5t-13 -11.5t-31.5 -5t-57.5 -1l-58 4l-65 -4q-23 0 -30 8t-9 31 q-2 51 -2 89v69.5t1 61.5t3 69l-2 71l4 70zM379 1044l8 70l-4 211q0 14 2 23.5t13.5 13.5t32 5t56.5 1l58 -4l63 2q27 0 34 -9t7 -44v-17.5v-19.5t-1 -32.5t-1 -59.5v-39v-12.5t1 -17.5t2 -33.5t3 -63.5q-2 -43 -3 -77t-1 -75v-10v-13t1 -25.5t3 -47.5q-2 -37 -3 -57.5 t-3 -30.5t-4 -14t-4 -6l-94 -11l-58 8l-67 -4q-14 0 -21.5 2t-11.5 13.5t-5 35t-1 64.5l6 68l-6 69l2 70z" />
<glyph unicode="&#xa7;" d="M43 662q0 61 23.5 102t93.5 96q20 16 27.5 24.5t7.5 16.5t-21 33q-37 47 -37 123q0 12 3 34.5t7.5 46t8.5 44t8 30.5q14 33 53 70t82 57q27 12 43 20.5t25.5 12.5t15.5 5t14 3q27 4 63 8.5t48 4.5q94 0 172 -41q27 -16 43 -25.5t26.5 -18t19.5 -17.5t22 -23 q29 -37 40 -69t11 -71q0 -61 -46 -106t-110 -45q-47 0 -80 26.5t-33 65.5q0 8 2.5 14.5t10.5 28.5q6 14 6 27q0 23 -19.5 37t-54.5 14q-23 0 -41 -6t-49 -27q-29 -18 -29 -65t30 -83t99 -71l37 -27q12 -10 20.5 -13t43.5 -13q16 -4 27.5 -8.5t21.5 -8.5l10 -6l12 -6l33 -14 l31 -11q14 -8 26.5 -14t24.5 -14l21 -10q51 -25 69.5 -38.5t36.5 -39.5q37 -49 37 -105q0 -80 -27.5 -149.5t-68.5 -91.5q-29 -16 -35 -21.5t-6 -15.5q0 -14 12 -29q20 -29 24.5 -38t12.5 -34q10 -47 15 -74.5t5 -56.5q0 -18 -1 -30.5t-7 -27.5t-18.5 -38.5t-34.5 -66.5 q-8 -16 -13.5 -25.5t-12.5 -18t-18 -17.5t-30 -23q-53 -41 -131 -66t-156 -25q-88 0 -151.5 26t-130.5 87q-12 12 -18.5 19.5t-12.5 16.5t-14 24.5t-23 41.5q-20 39 -25 61.5t-5 59.5q0 86 39.5 136.5t109.5 50.5q57 0 95 -42t38 -106q0 -14 -3 -22.5t-19 -26.5 q-14 -16 -15 -33q0 -20 8.5 -29.5t43.5 -25.5q18 -10 29 -14t17.5 -7.5t11.5 -3.5h13q51 0 107 33q29 16 36 24.5t17 30.5q12 33 12 70q0 63 -45 86q-4 2 -22 8q-6 2 -11.5 3t-12.5 4.5t-20.5 7.5t-35.5 14q-10 4 -17.5 6t-13.5 5t-14 7.5t-23 12.5q-14 8 -40.5 20t-35.5 17 q-33 12 -40 15t-19 13q-6 4 -11 7t-32 16q-20 10 -45 26q-6 2 -43 25q-25 12 -47.5 39t-40 60.5t-27.5 69.5t-10 67zM307 676q0 -29 30 -57.5t77 -47.5l84 -30q18 -10 35.5 -18.5t33.5 -18.5q43 -23 64 -23q27 0 49 21.5t22 44.5q0 47 -71 67q-29 10 -40 14.5t-34 16.5 q-10 8 -27 14l-30 11q-29 12 -43.5 20t-42.5 37q-31 29 -49 29t-38 -27t-20 -53z" />
<glyph unicode="&#xa8;" d="M221 1227q0 14 2 35.5t4 42t5.5 38t5.5 21.5q6 14 16 18t37 4l102 3q27 0 47.5 -15.5t20.5 -36.5q0 -4 -1 -14t-3 -25v-30v-72q0 -23 -12.5 -37t-28.5 -14q-14 0 -39 6l-27 2q-4 0 -13 -1t-24 -3q-8 -2 -16 -2h-14q-61 0 -62 80zM557 1327q-2 23 10.5 41t28.5 18l162 5 q18 0 30.5 -13.5t12.5 -31.5q0 -10 -1 -37t-5 -82v-10q2 -8 2 -19q0 -20 -14.5 -36.5t-30.5 -14.5l-39 2h-41.5t-34.5 2l-43 -4q-8 0 -19.5 14.5t-13.5 24.5v43v16v4t-2 13z" />
<glyph unicode="&#xa9;" horiz-adv-x="1501" d="M51 721q0 33 5 70.5t13.5 75.5t19.5 73t26 64q102 211 241 292q51 31 78 41.5t62 20.5q12 4 18 5t29 9q35 10 54 15.5t34.5 8.5t29 3h35.5q68 0 124.5 -4t86.5 -15q106 -29 173 -58.5t120 -74.5q2 -2 18.5 -23.5t51.5 -62.5q12 -14 29.5 -40.5t35 -56.5t32.5 -57.5 t24 -45.5q33 -82 36 -97q10 -47 16.5 -90t6.5 -65q0 -20 -6 -47l-4 -19l-2 -43q0 -10 -2 -26.5t-9 -49.5q-4 -23 -10 -44t-10 -40q-2 -41 -33 -103.5t-78 -121.5q-14 -16 -27.5 -32.5t-25.5 -37.5q-10 -12 -16 -19t-15.5 -15.5t-25 -18.5t-41.5 -29q-29 -18 -46.5 -29 t-29.5 -17.5t-24.5 -9.5t-32.5 -9q-23 -6 -51.5 -11t-59.5 -9.5t-59.5 -6.5t-46.5 -2q-70 0 -121 3t-94 10.5t-85 21.5t-96 37q-31 12 -67.5 36.5t-70.5 53.5t-59.5 56.5t-33.5 48.5q-8 16 -17.5 34.5t-21.5 38.5q-6 10 -15.5 33t-18.5 51.5t-16 57t-11 51.5 q-2 16 -5.5 44.5t-5.5 60.5t-4 62.5t-2 51.5zM143 662q0 -6 3.5 -34t7.5 -58.5t8 -57.5t6 -33q14 -55 31.5 -99t29.5 -58q37 -45 65 -76t52.5 -53.5t47 -40t50.5 -31.5q47 -27 125 -42.5t164 -15.5q51 0 87 2.5t64.5 8.5t55.5 16t59 27q102 53 105 53q49 33 93 86t58 96 l6.5 19.5l4.5 13.5t5 12t7 17q2 6 4 10t6 18.5t12.5 42t22.5 76.5q14 51 14 103q0 23 -2 46t-6 48l-14 80l-8 65q-4 8 -7.5 15.5t-7.5 15.5q-12 18 -24 57q-10 29 -15.5 36t-23.5 30q-4 6 -14.5 18t-26.5 35q-90 113 -232 150q-14 4 -20 5t-33 11q-35 14 -79 21.5t-87 7.5 q-86 0 -189.5 -33t-185.5 -84q-16 -10 -26 -18.5t-23.5 -26t-33 -46t-52.5 -77.5q-2 -4 -11 -26.5t-20.5 -49t-19.5 -51.5t-10 -33q-2 -4 -7 -53t-16 -145zM436 721q0 25 2 45t8.5 40.5t15.5 43t23 51.5q27 51 49.5 79t65.5 56q20 14 48 27.5t57.5 23t58.5 15.5t51 6 q37 0 64.5 -7t38.5 -24q8 -10 13 -38.5t5 -63.5q0 -29 -17.5 -48.5t-39.5 -19.5q-8 0 -18.5 1t-20.5 3q-39 8 -52 9q-25 0 -51 -15.5t-43 -42.5q-23 -31 -40 -84t-17 -86q0 -8 2 -23.5t5 -31.5t6 -31.5t7 -23.5q47 -129 127 -129q6 0 10.5 1l22.5 5q4 2 13.5 2h17.5 q41 0 61.5 -18.5t24.5 -61.5l4 -19q4 -20 4 -28q0 -35 -30.5 -57.5t-80.5 -22.5q-23 0 -50 4t-54 10t-50.5 14.5t-37.5 18.5q-66 39 -112 95.5t-68 123.5q-8 23 -12.5 40.5t-6.5 37.5t-3 48t-1 75z" />
<glyph unicode="&#xaa;" horiz-adv-x="618" d="M27 766q0 47 22.5 95t54.5 71q14 10 22.5 15t18 8t23.5 5.5t39 6.5q41 4 56.5 6t27.5 2q16 0 33.5 -2t23.5 -6q8 -2 12.5 -3t8.5 -1q6 0 6 6q0 12 -4 28.5t-9 20.5q-4 4 -9 6t-17 4h-21.5t-25.5 4q-31 0 -80 -31q-16 -8 -41 -8q-35 0 -53 31q-2 4 -3 8t-2 11.5t-2.5 21.5 t-3.5 39q2 37 44 57.5t112 20.5h33q14 0 25.5 1t21.5 1h18q25 -2 61 -13.5t54 -21.5q16 -10 36.5 -32.5t27.5 -39.5q6 -14 9 -24.5t5 -22.5t3 -30.5t5 -51.5q-4 -29 -4 -36v-17v-21l-2 -57v-8q2 -8 2 -14q-4 -43 -4 -66.5v-56.5q0 -18 8 -45q8 -18 8 -39q0 -18 -15 -32.5 t-34 -14.5h-8t-16 2q-4 2 -16.5 2h-22.5h-8.5t-22.5 -4h-8q-10 0 -20.5 4t-14.5 12l-6 10h-2q-20 -18 -50 -28.5t-61 -10.5q-33 0 -67.5 8.5t-51.5 20.5q-35 23 -53 39t-35 45q-6 8 -11 22.5t-9 33t-6 37t-2 32.5zM199 752q0 -20 17 -41t34 -21q57 0 82 10q16 8 28.5 26.5 t12.5 35.5q0 61 -90 61q-33 0 -46.5 -5t-21.5 -21q-16 -23 -16 -45z" />
<glyph unicode="&#xab;" horiz-adv-x="976" d="M51 510q0 20 6 32.5t41 47.5q14 10 27 37q4 6 9 14t9 18l21 25l18 31q6 10 12.5 21.5t16.5 21.5q4 8 9 13l9 9l25 47q10 23 34.5 37.5t49.5 14.5q31 0 57 -17q16 -10 27.5 -15t17.5 -9q41 -14 56.5 -32t15.5 -52q0 -31 -13.5 -49.5t-58.5 -57.5l-12 -14l-35 -53l-18 -21 l-10 -8q-20 -25 -21 -35q0 -10 25 -35q23 -23 45 -50.5t47 -55.5l18 -21l8 -10q27 -23 35 -37t8 -31q0 -10 -2 -17t-10 -15t-22.5 -16.5t-40.5 -22.5q-20 -10 -25.5 -13.5t-19.5 -15.5q-12 -10 -19.5 -12t-21.5 -2q-29 0 -58.5 29.5t-74.5 103.5q-14 14 -21 22l-18 21l-9 12 q-23 33 -28.5 41t-14.5 12q-10 8 -17 15.5t-13 13.5q-10 12 -24.5 24.5t-31.5 28.5q-8 12 -8 25zM446 514q0 16 8.5 29.5t37.5 42.5q18 20 24 27.5t21 31.5q12 18 25 36.5t26 39.5q10 10 17 20.5t18 22.5l12 14l35 56q16 23 39.5 37t46.5 14q18 0 32.5 -7.5t32.5 -25.5 q4 -4 10.5 -9t16.5 -12q23 -16 35 -26t18 -18.5t8 -15.5t2 -19q0 -23 -14 -45.5t-53 -57.5q-10 -10 -13.5 -13t-13.5 -20q-10 -18 -20.5 -30.5t-18.5 -20.5q-27 -27 -26 -49q0 -10 5 -19.5t27 -29.5q16 -12 25 -27l27 -41q4 -2 14 -16q16 -16 35 -29q43 -37 43 -80 q0 -25 -8.5 -37t-34.5 -24l-25 -12l-22 -17l-21 -14q-25 -18 -45 -18q-27 0 -49.5 22.5t-56.5 79.5q-4 4 -8.5 10t-8.5 17q-8 8 -20 24l-35 43l-29 33q-8 8 -20 16l-17 17q-8 8 -19 20t-28 29q-27 27 -31 33t-4 18z" />
<glyph unicode="&#xac;" horiz-adv-x="1032" d="M68 426q2 39 3 61.5t3 32.5t3 13.5t5 7.5t100 10l68 -8l65 4l68 -2l66 4l65 -4l68 6l65 -8q18 0 45 1t55.5 2t54 2t44.5 1q35 -2 53.5 -3t27.5 -1t12 -1t7 -3q12 -6 12 -35v-12.5t-4 -59.5l11 -100q0 -2 -1 -9.5t-3 -19.5q-2 -14 -3.5 -23.5t-1.5 -19.5l2 -86l-4 -65 l4 -72q0 -23 -8 -31t-35 -8h-33.5t-27.5 2q-6 0 -10 1t-8 1t-7 2l-100 -6q-14 2 -21.5 6t-11.5 15.5t-5 34t-1 63.5l4 94q0 66 -7 80t-40 14h-39h-27.5t-28.5 1t-38 1h-37h-11t-16.5 -1t-34 -2t-61.5 -3l-39 2q-12 0 -22 1t-28.5 1h-49.5h-80q-31 0 -42 2t-15 8 q-4 4 -10 109z" />
<glyph unicode="&#xad;" horiz-adv-x="428" d="M0 457q0 14 2 22l2 35l-2 33q-2 10 -2 26q0 76 72 76h10t16 -2q20 -2 33.5 -3t28 -2t35 -1h55.5l43 -2h20q6 0 12.5 1t34.5 9q4 2 23.5 -8t26.5 -14q18 -18 18 -54v-11t-4 -46l4 -61q0 -23 -17.5 -44.5t-35.5 -19.5l-68 8l-61 2q-33 -4 -41 -4h-31h-24l-37 -4 q-10 -2 -17.5 -2h-15.5q-80 0 -80 66z" />
<glyph unicode="&#xae;" horiz-adv-x="1501" d="M51 721q0 33 5 70.5t13.5 75.5t19.5 73t26 64q102 211 241 292q51 31 78 41.5t62 20.5q12 4 18 5t29 9q35 10 54 15.5t34.5 8.5t29 3h35.5q68 0 124.5 -4t86.5 -15q106 -29 173 -58.5t120 -74.5q2 -2 18.5 -23.5t51.5 -62.5q12 -14 29.5 -40.5t35 -56.5t32.5 -57.5 t24 -45.5q33 -82 36 -97q10 -47 16.5 -90t6.5 -65q0 -20 -6 -47l-4 -19l-2 -43q0 -10 -2 -26.5t-9 -49.5q-4 -23 -10 -44t-10 -40q-2 -41 -33 -103.5t-78 -121.5q-14 -16 -27.5 -32.5t-25.5 -37.5q-10 -12 -16 -19t-15.5 -15.5t-25 -18.5t-41.5 -29q-29 -18 -46.5 -29 t-29.5 -17.5t-24.5 -9.5t-32.5 -9q-23 -6 -51.5 -11t-59.5 -9.5t-59.5 -6.5t-46.5 -2q-70 0 -121 3t-94 10.5t-85 21.5t-96 37q-31 12 -67.5 36.5t-70.5 53.5t-59.5 56.5t-33.5 48.5q-8 16 -17.5 34.5t-21.5 38.5q-6 10 -15.5 33t-18.5 51.5t-16 57t-11 51.5 q-2 16 -5.5 44.5t-5.5 60.5t-4 62.5t-2 51.5zM143 662q0 -6 3.5 -34t7.5 -58.5t8 -57.5t6 -33q14 -55 31.5 -99t29.5 -58q37 -45 65 -76t52.5 -53.5t47 -40t50.5 -31.5q47 -27 125 -42.5t164 -15.5q51 0 87 2.5t64.5 8.5t55.5 16t59 27q102 53 105 53q49 33 93 86t58 96 l6.5 19.5l4.5 13.5t5 12t7 17q2 6 4 10t6 18.5t12.5 42t22.5 76.5q14 51 14 103q0 23 -2 46t-6 48l-14 80l-8 65q-4 8 -7.5 15.5t-7.5 15.5q-12 18 -24 57q-10 29 -15.5 36t-23.5 30q-4 6 -14.5 18t-26.5 35q-90 113 -232 150q-14 4 -20 5t-33 11q-35 14 -79 21.5t-87 7.5 q-86 0 -189.5 -33t-185.5 -84q-16 -10 -26 -18.5t-23.5 -26t-33 -46t-52.5 -77.5q-2 -4 -11 -26.5t-20.5 -49t-19.5 -51.5t-10 -33q-2 -4 -7 -53t-16 -145zM436 1001q0 96 88 97q20 0 31 -2l23 -4h26h13.5h11.5t16 -1t27 -1q23 2 36 3t19 1h9h7q27 0 48.5 -2t42 -8.5 t42 -17.5t50.5 -30l28.5 -19t19.5 -17.5t21.5 -26t32.5 -43.5q10 -12 15.5 -22.5t8.5 -22t4 -27.5t1 -43v-4l6 -51l-6 -19l-6 -26q-20 -78 -60.5 -125t-118.5 -82l-16 -6q61 -49 66 -53q25 -12 73 -17q68 0 68 -53v-5t-4 -24l-2 -12v-35q0 -49 -90 -49q-41 0 -67 5t-54 22 q-16 8 -39 24.5t-47.5 38t-48 45t-39.5 41.5q-6 6 -9.5 8t-19.5 6q-10 0 -10 -34q0 -6 1 -12.5t7 -28.5q6 -25 6 -50q0 -23 -11 -37t-30 -12l-37 2l-77 -2q-51 0 -52 58q0 10 1 22t3 25l5.5 22t1.5 17q0 14 -2 20q0 4 -1.5 7t-1.5 5v5l5 43v2q-2 2 -2 4l-3 49v14t5 41 q-4 23 -4.5 29t-0.5 16v22.5v14.5t1.5 13.5l3.5 17.5q2 8 2 22.5v30.5v15.5t-4 25.5l4 27l-4 39v6q0 6 2 12v10q0 10 -1 25.5t-6 27.5q-6 23 -7 29t-1 14zM635 694q4 -43 4 -51t2 -12t18.5 -8.5t34.5 -4.5q14 0 24.5 3.5t35.5 13.5l26 8q16 4 20.5 8t18.5 23q0 2 27 35 q14 16 17 26t11 51q0 18 -13 47t-27 41q-37 37 -82 44l-23 6l-12 2q-29 0 -45.5 -2t-23.5 -12.5t-9 -32t-2 -60.5v-14t4 -64l-2 -8q-2 -16 -3 -25.5t-1 -13.5z" />
<glyph unicode="&#xaf;" d="M229 1245q0 41 9.5 58.5t37.5 25.5q23 6 32 7t24 3q18 0 39.5 1t46.5 3q33 -4 39 -5t14 -1q16 0 25 2q4 0 9 1t9 1t6 2l60 -6l24 2l47 -4l64 8q18 -2 41.5 -9t27.5 -15q4 -6 7.5 -27.5t3.5 -44.5q0 -29 -19.5 -51t-42.5 -20l-43 2l-37 -9q-37 0 -80 2.5t-61 6.5l-49 -2 l-64 2l-51 -7q-25 2 -39 3.5t-22 1.5t-12.5 1t-10.5 3q-35 10 -35 65z" />
<glyph unicode="&#xb0;" d="M197 1053v30.5t3 24.5t8 28.5t15 45.5q14 41 44 81t65 60q45 29 88 38t115 9q147 0 235 -121q29 -39 44 -88t15 -98q0 -59 -14 -111.5t-37 -81.5q-98 -119 -284 -118q-55 0 -116 23.5t-102 60.5q-45 45 -59 98q-8 25 -14 62.5t-6 56.5zM344 1044q6 -51 10 -59 q2 -2 17 -37q10 -27 49 -49t76 -22q41 0 74.5 10t54.5 31q12 10 29.5 36.5t21.5 36.5q0 2 1 20.5t3 53.5q-2 16 -3 29.5t-1 21.5q-2 10 -4 15.5t-10 17.5q-4 8 -9.5 14t-9.5 13q-45 66 -123 65q-51 0 -81.5 -16.5t-61.5 -61.5q-4 -6 -14.5 -33.5t-14.5 -35.5v-25v-7t-4 -18z " />
<glyph unicode="&#xb1;" d="M12 82v51v64.5t1 56.5t3 29q2 10 20.5 13t90.5 3l70 -6q37 2 68.5 4t63 3t66.5 -1t80 -4l70 2l69 -2l70 6q20 -2 48 -3t57.5 -2t56 -2t47.5 -1l76 4q14 0 23 -2t12.5 -17.5t4.5 -48t1 -92.5q0 -59 -7.5 -72.5t-37.5 -13.5h-40.5t-31.5 2q-8 0 -13.5 1t-9.5 1h-10 q-47 -4 -72.5 -5t-39 -2t-19.5 -1h-14h-10.5h-13.5t-24.5 1t-41.5 3l-80 -2l-70 4q-31 -2 -48 -3t-33.5 -1h-38h-58.5h-31q-10 -2 -18 -2h-15h-14l-92 8l-76 -4q-37 0 -39 31zM12 772q0 2 1 13.5t5 70.5l-6 86q0 14 3 21.5t14.5 11.5t34 5t63.5 1l68 -4q70 0 114.5 1t50.5 3 q10 4 13.5 12t3.5 31l2 66v36v11.5t-1 14.5t-2 25.5t-3 45.5q2 37 3 57t3 29.5t3 12.5t5 5q8 8 94 8q55 0 99.5 -2t50.5 -4q4 -2 7 -5t4 -13.5t1 -30.5v-59l4 -64q2 -14 2 -25.5v-19.5v-8t-1 -13.5t-2 -26.5t-3 -48q0 -10 4 -19.5t10 -13.5q4 -2 37 -4t64 -2l67 4l70 -4 l74 2q31 0 37 -14q2 -4 4 -39t2 -70q0 -41 -1 -65.5t-5.5 -37t-12.5 -16.5t-20 -4l-82 2l-72 -6l-71 8q-39 -2 -60.5 -3t-32 -3t-13.5 -4t-5 -4q-4 -4 -5 -13.5t-1 -56.5v-18t-4 -47l6 -99q-2 -43 -4 -65.5t-5 -32.5t-10.5 -11t-19.5 -1l-90 4l-86 -4q-31 0 -37 14 q0 2 -2 37t-6 100v7q0 4 1 8t1 10q4 16 4 26.5v22.5q0 45 -1 71.5t-6 39t-14.5 15.5t-27.5 3h-68l-67 4h-29h-20.5t-20.5 -2l-72 -2q-25 0 -33 8.5t-8 30.5z" />
<glyph unicode="&#xb2;" horiz-adv-x="655" d="M29 655v7q0 20 6 29t28 30q8 6 13.5 12t15.5 19q12 14 21.5 25t21.5 25.5t30.5 35t49.5 51.5q12 12 21 18q6 6 14 15.5t18 21.5l31 31q18 10 29 29q8 10 11 14t9 10q4 4 13.5 17.5t35.5 48.5q27 29 27 59q0 35 -25.5 60.5t-60.5 25.5q-29 0 -49.5 -5t-28.5 -15 q-6 -6 -13 -21.5t-7 -19.5l2 -45q0 -16 -18.5 -31t-39.5 -15h-12q-4 0 -6 1.5t-4 1.5h-2q-2 0 -9.5 -1.5t-19.5 -3.5h-8q-23 0 -40 17.5t-17 38.5q0 12 6 28l4 19l6 39q6 33 25.5 62.5t50 52t68.5 35t81 12.5q41 0 70 -1.5t49 -6.5t37.5 -13t38.5 -20q29 -18 39 -28.5 t26 -39.5q20 -31 23.5 -41t5.5 -39l2 -24q2 -14 3 -22.5t1 -12.5q0 -49 -20.5 -88t-71.5 -86q-8 -6 -12 -17q-10 -18 -23 -32l-16 -17l-23 -31q-10 -14 -16 -20t-31 -29q-4 -6 -10 -12l-10 -10l-19 -19l-26 -20q-10 -8 -16.5 -20.5t-6.5 -22.5q0 -12 14 -12q10 0 19 2 q6 2 14 2q4 0 9 -1t40 -6h13h12t27 5l51 -5q4 0 26 7q20 6 39 6q31 0 49 -19q4 -6 9.5 -14t5.5 -10t-1 -15.5t-1 -29.5q-2 -20 -2 -45q-6 -37 -64 -37q-10 0 -15 1t-28 5q-6 2 -25.5 3t-37.5 1t-25 -2q-4 -2 -10 -2h-4q-27 2 -32 2h-13h-29.5t-42.5 2l-18 -2l-52 4 q-2 0 -8 -1t-16 -3q-31 -6 -72 -6q-35 0 -55.5 2t-30.5 9t-13 19.5t-3 34.5v15z" />
<glyph unicode="&#xb3;" horiz-adv-x="655" d="M41 684q0 10 3 15.5t17 21.5q4 4 9.5 9t11.5 15q16 18 25.5 24.5t25.5 6.5q8 0 14.5 -1t14.5 -6t20.5 -17.5t34.5 -32.5q14 -10 41 -18.5t47 -8.5q59 0 103 56q10 12 19 40.5t9 42.5q0 88 -102 93q-18 2 -36.5 -1t-47.5 -10q-8 -2 -14.5 -3t-12.5 -1q-47 0 -53 47v15v18 t-4 35q0 27 33 37q4 2 16 3t51 5q49 4 81 31.5t32 62.5q0 29 -24.5 50.5t-59.5 21.5q-59 0 -84 -31q-27 -27 -57 -26q-18 0 -28.5 6t-29.5 28q-4 2 -8 7q-4 4 -9 8t-11 10q-18 14 -19 35q0 18 24.5 38.5t61.5 39t81 30t85 11.5q55 0 107.5 -19.5t78.5 -50.5l39 -43 q10 -16 20.5 -51t10.5 -51q0 -23 -16.5 -60t-44.5 -76q-4 -8 -4 -10q0 -4 6 -9t22 -17q49 -37 71.5 -79t22.5 -100q0 -78 -22.5 -130t-71.5 -93q-41 -31 -92 -48t-111 -17q-43 0 -91 14t-89 35.5t-68.5 48.5t-27.5 49z" />
<glyph unicode="&#xb4;" d="M430 1163q0 16 12.5 51t30.5 76l10 23l13 45q6 25 29.5 39t58.5 14h13t19 -2q8 -2 19 -2q4 0 13 1t20 3q8 2 15 2h13q27 0 43.5 -13.5t16.5 -33.5q0 -31 -33 -57l-12 -13l-13 -18q-12 -16 -30 -31q-20 -18 -27.5 -27.5t-17.5 -33.5q-18 -39 -30.5 -48.5t-43.5 -7.5h-31 h-13t-11 -2q-10 -2 -17.5 -3t-11.5 -1q-14 0 -24.5 11.5t-10.5 27.5z" />
<glyph unicode="&#xb6;" horiz-adv-x="1366" d="M55 1001q0 117 52.5 201t150.5 123q63 27 168 35q18 2 28.5 2t53.5 2q8 0 13 1t13.5 1t22.5 1t41 3l72 -8l71 4l72 -4l72 6l69 -4l72 4l72 -6l78 2q14 0 22 -2t11 -11.5t4 -30t1 -58.5q0 -39 -1 -59.5t-5 -30t-13 -11.5t-26 -2h-59q-16 0 -26.5 -2t-14.5 -13t-5 -34 t-1 -66l6 -71l-8 -70l10 -110q-2 -4 -2 -9q0 -4 -1 -9t-1 -11q-2 -14 -3 -25.5t-1 -21.5l2 -92q0 -18 -1 -47t-2 -59t-2 -58.5t-1 -46.5l8 -70l-6 -70q2 -37 4 -67.5t2 -62t-1 -70.5t-3 -94l2 -84q0 -59 -6 -74t-29 -12l-78 4l-73 -4q-29 0 -35 14q-2 2 -8 100q2 20 3 49 t2 57.5t2 56.5t1 48l-6 96q2 4 2 13v13t2 17t2 20.5v20.5v11.5t-1 14.5t-2 25.5t-3 47.5q-2 10 -2 19v22v10v12t1 22.5l3 43.5l-2 82l6 69q-2 31 -3 49.5t-2 31.5t-1 25.5v33.5v69q-2 10 -2 20.5v18.5v16l6 86q-2 35 -3 54.5t-1 29t-1 12.5t-3 7q-4 12 -39 12h-80 q-16 0 -25.5 -1t-13.5 -10t-5 -27.5t-1 -53.5v-23l-6 -116l2 -25q4 -12 4 -21.5v-15.5l-4 -102l2 -125v-23.5v-17.5t1 -17.5t1 -25.5q0 -12 1 -50t2 -85t1 -94v-76q0 -33 -1 -57.5t-3 -57.5q-2 -12 -2 -20.5v-10.5l4 -108v-57.5t-1 -53t-2 -41t-3 -18.5q-6 -16 -33 -16 l-76 2l-70 -2q-16 0 -24 3t-13.5 14t-6.5 33.5t-1 63.5l4 70l-2 102v10v11.5t2 17.5v35v13t-1 17.5t-2 34t-3 60.5l4 49l2 111v13t-1 14.5t-2 25.5t-3 45l4 72q0 12 -5 20t-20.5 13.5t-46 9.5t-81.5 8q-41 4 -88 35.5t-82 79.5q-66 90 -66 210z" />
<glyph unicode="&#xb7;" horiz-adv-x="411" d="M63 569v19q0 35 12.5 58.5t33.5 25.5q4 0 21 -1t46 -5h8h76q10 2 19 2q8 0 20 -5.5t23.5 -11.5t18.5 -13t7 -13l-8 -88v-5q0 -6 2 -8q2 -6 3 -36.5t1 -45.5q0 -55 -49 -55h-20.5t-22.5 2t-25.5 3t-25.5 1h-14.5t-22.5 -2h-29q-72 0 -71 70v11t2 17v23v13t-5 44z" />
<glyph unicode="&#xb8;" d="M420 -217q0 29 9 53.5t26 34.5q16 12 40 21.5t40 9.5q23 0 47 -10.5t41 -26.5q16 -18 27.5 -36.5t8.5 -29.5q-4 -45 -7 -71.5t-7 -36.5q0 -4 -2 -10q-2 -4 -4 -11.5t-4 -17.5q-2 -6 -8 -18.5t-39 -65.5q-12 -20 -28.5 -32.5t-33.5 -12.5q-29 0 -49 14t-20 37q0 14 10 29 q6 8 9 13t5 11t3 16.5t5 26.5q0 16 -28 45q-41 33 -41 68z" />
<glyph unicode="&#xb9;" horiz-adv-x="655" d="M98 1171q0 27 35 50q23 14 32 20t21 16l37 29l21 12l16 17q35 35 54.5 44t50.5 9q49 0 79.5 -19.5t30.5 -50.5q0 -12 -6 -30q-14 -55 -14 -78v-16.5t2 -30.5l2 -29v-45t2 -31l-2 -59q0 -16 1 -26.5t1 -20.5v-23.5v-38.5l2 -10q2 -18 3 -29.5t1 -13.5v-8q-2 -10 -2 -18 l2 -54q0 -12 -2 -20q-2 -10 -2 -16.5v-8.5q0 -12 6 -49q2 -14 3 -33.5t1 -29.5q0 -39 -53 -39h-12q-10 2 -16.5 2h-8.5h-6q-4 0 -6 -1t-6 -1h-27q-31 0 -43 14t-12 51v11.5t1 15.5t2 28.5t3 53.5v18v10v48q0 4 1 7t1 5v4v9t-2 13q-2 10 -2 25.5v44.5v29l-4 49v14v12.5 t4 49.5v6v24q2 10 2 19q0 20 -13 20q-4 0 -18 -9t-47 -34q-8 -4 -21 -4q-20 0 -38 21q-4 8 -12.5 17t-12.5 13q-18 18 -23.5 26.5t-5.5 18.5z" />
<glyph unicode="&#xba;" horiz-adv-x="655" d="M27 850q0 88 34 168q16 39 46 72.5t61 54.5q37 23 76 32t102 9q25 0 65 -9.5t52 -19.5q4 -2 7 -4t19 -12q25 -16 48.5 -42t41 -57.5t28.5 -66.5t14 -68l4 -26q2 -10 2 -15.5v-7.5q-2 -37 -4 -57.5t-4.5 -33.5t-5.5 -23.5t-9 -26.5q-31 -92 -106.5 -141.5t-186.5 -49.5 q-53 0 -111.5 26t-97.5 66q-35 37 -55 99.5t-20 132.5zM211 842q6 -55 8 -60q4 -12 5 -16t5 -14q6 -29 32 -49.5t50 -20.5q29 0 52.5 10t35.5 27q8 10 20.5 34.5t14.5 34.5q2 8 2 29v17.5t2 25.5q-2 18 -2 30.5t-2 20.5q0 8 -1 13.5t-7 17.5l-14 27q-25 57 -76 59 q-25 -4 -39 -6t-23.5 -9t-17.5 -20.5t-20 -36.5q-4 -8 -12.5 -33.5t-8.5 -35.5q-2 -4 -2 -6v-17v-7t-2 -15z" />
<glyph unicode="&#xbb;" horiz-adv-x="976" d="M51 764q0 23 12.5 34t63.5 38q20 10 25.5 13t19.5 15q12 10 20.5 12.5t24.5 2.5q27 0 56.5 -31t72.5 -105l21 -20q18 -14 26 -33q23 -35 29 -42t14 -11q16 -14 19.5 -17.5l11.5 -11.5q25 -29 55 -53q8 -12 8 -27q0 -10 -1 -17t-6 -14.5t-14 -18.5t-26 -27l-26 -37 l-19 -35l-20 -25l-19 -30q-6 -10 -12 -21.5t-16 -21.5q-12 -16 -19 -23l-24 -47q-10 -23 -35 -37t-49 -14q-29 0 -58 16q-25 16 -29.5 18.5t-15.5 6.5q-41 14 -56 31.5t-15 52.5q0 14 2 26.5t10 23.5t22.5 24.5t36.5 31.5l13 17l34 51q8 6 14.5 13t14.5 17q20 20 21 33 q0 10 -25 35q-23 25 -45.5 51.5t-46.5 57.5l-19 20l-8 8q-27 25 -35 39.5t-8 30.5zM449 762q0 25 8 37t35 24l24 13q10 8 21.5 16t21.5 14q20 18 45 19q27 0 49.5 -22.5t55.5 -80.5q6 -16 16 -26l23 -25q12 -12 32 -43q14 -20 29 -33l20 -16l17.5 -17.5t46.5 -48.5 q27 -27 31 -32.5t4 -18.5q0 -16 -8.5 -29.5t-36.5 -41.5q-18 -20 -24.5 -27.5t-20.5 -32.5q-25 -35 -52 -76l-16 -20t-18 -23l-13 -14l-34 -55q-16 -23 -40 -37t-47 -14q-18 0 -32.5 7t-32.5 25q-4 4 -7 7.5t-20 13.5q-23 16 -35 26.5t-18 18.5t-8 15t-2 20q0 23 14.5 45 t52.5 57q10 10 13.5 13t13.5 20q16 27 21.5 33t17.5 18q16 16 21.5 26.5t5.5 22.5q0 10 -5.5 19.5t-27.5 29.5l-25 27l-24 41q-2 8 -15 16q-16 16 -34 29q-43 37 -43 80z" />
<glyph unicode="&#xbc;" horiz-adv-x="1529" d="M98 1171q0 27 35 50q23 14 32 20t21 16l37 29l21 12l16 17q35 35 54.5 44t50.5 9q49 0 79.5 -19.5t30.5 -50.5q0 -12 -6 -30q-14 -55 -14 -78v-16.5t2 -30.5l2 -29v-45t2 -31l-2 -59q0 -16 1 -26.5t1 -20.5v-23.5v-38.5l2 -10q2 -18 3 -29.5t1 -13.5v-8q-2 -10 -2 -18 l2 -54q0 -12 -2 -20q-2 -10 -2 -16.5v-8.5q0 -12 6 -49q2 -14 3 -33.5t1 -29.5q0 -39 -53 -39h-12q-10 2 -16.5 2h-8.5h-6q-4 0 -6 -1t-6 -1h-27q-31 0 -43 14t-12 51v11.5t1 15.5t2 28.5t3 53.5v18v10v48q0 4 1 7t1 5v4v9t-2 13q-2 10 -2 25.5v44.5v29l-4 49v14v12.5 t4 49.5v6v24q2 10 2 19q0 20 -13 20q-4 0 -18 -9t-47 -34q-8 -4 -21 -4q-20 0 -38 21q-4 8 -12.5 17t-12.5 13q-18 18 -23.5 26.5t-5.5 18.5zM432 39q0 25 6 45t27 55q4 6 10 18.5t17 32.5q4 10 11 22.5t17 29.5q16 23 19.5 32t11.5 37q4 14 7 26.5t9 22.5l33 68q4 8 6 15.5 t10 29.5l13 41l26 51l13 35q8 16 14 30.5t12 31.5l13 24q4 10 7 20.5t7 20.5q16 41 33 78q6 16 7 21t5 22q33 96 33 100q4 10 7 18.5t7 12.5q4 8 8 17.5t6 23.5l17 53l14 35l12 20q6 14 11.5 23.5t8.5 19t6 20.5t7 30l17 45l10 43q6 37 26.5 51t67.5 14q29 0 45 -8t16 -25 q0 -12 -11 -37.5t-32 -60.5l-10 -24q-8 -14 -15 -29.5t-13 -34.5q-4 -6 -13.5 -27.5t-18.5 -46t-17.5 -46t-10.5 -27.5l-12 -39q-10 -27 -17.5 -52.5t-13.5 -48.5l-18 -37q-10 -23 -22.5 -47t-31.5 -65q-18 -45 -29.5 -74t-15.5 -43q-6 -23 -10 -32t-14 -31 q-8 -16 -15.5 -35t-13.5 -37q-20 -55 -32.5 -89t-16.5 -50l-14 -37l-9 -25l-8 -28q-4 -10 -9 -19.5t-11 -19.5q-12 -23 -19.5 -40.5t-13.5 -39.5q-4 -23 -16.5 -55.5t-18.5 -43.5q-6 -10 -12 -12t-31 -6q-6 0 -12 -1t-37 -5q-16 0 -27.5 13.5t-11.5 29.5zM891 250v9t4 20 l-2 36q0 8 33 47q16 20 22 29.5t15 26.5q8 12 15 25.5t17 25.5l15 18l14 21l41 70l61 98q4 4 7.5 10t7.5 12l10 17l35 63q12 23 36.5 39.5t43.5 13.5l69 -6h2q4 0 6 2q8 2 21 2q16 0 25.5 -13t9.5 -36l-2 -55q-2 -8 -2 -13v-7l2 -33q-2 -31 -2 -40v-30v-16l-2 -35 q-2 -8 -2 -12v-23v-12t-2 -25v-9t2 -11q0 -2 1 -3t1 -3v-4l-4 -41l2 -27l-2 -23q0 -20 24 -20q10 0 17 2q25 6 34 6q45 0 45 -63q0 -29 2 -37q2 -12 3.5 -19.5t1.5 -9.5q0 -18 -17.5 -29.5t-46.5 -11.5h-8t-23 4q-2 2 -10 2q-25 0 -25 -24v-17l3 -20l2 -27l4 -24q2 -6 2 -25 q0 -47 -41 -47q-14 0 -23 2q-12 2 -20 2h-13h-8t-14 -2h-23q-53 0 -53 45q0 8 1 17.5t3 19.5q6 29 7 41t1 43q0 16 -18 16h-49q-18 -2 -24.5 -2h-10.5h-12t-23 2q-6 2 -11 2h-32h-22l-74 -4q-6 0 -19.5 8.5t-17.5 14.5q-10 16 -10 47zM1090 336q0 -8 4 -9t30 -1h21 q29 0 49 -4h10q20 0 25.5 21.5t5.5 92.5q2 29 3 53.5t3 47.5q2 10 3 27.5t1 29.5q-76 -111 -115.5 -177.5t-39.5 -80.5z" />
<glyph unicode="&#xbd;" horiz-adv-x="1529" d="M98 1171q0 27 35 50q23 14 32 20t21 16l37 29l21 12l16 17q35 35 54.5 44t50.5 9q49 0 79.5 -19.5t30.5 -50.5q0 -12 -6 -30q-14 -55 -14 -78v-16.5t2 -30.5l2 -29v-45t2 -31l-2 -59q0 -16 1 -26.5t1 -20.5v-23.5v-38.5l2 -10q2 -18 3 -29.5t1 -13.5v-8q-2 -10 -2 -18 l2 -54q0 -12 -2 -20q-2 -10 -2 -16.5v-8.5q0 -12 6 -49q2 -14 3 -33.5t1 -29.5q0 -39 -53 -39h-12q-10 2 -16.5 2h-8.5h-6q-4 0 -6 -1t-6 -1h-27q-31 0 -43 14t-12 51v11.5t1 15.5t2 28.5t3 53.5v18v10v48q0 4 1 7t1 5v4v9t-2 13q-2 10 -2 25.5v44.5v29l-4 49v14v12.5 t4 49.5v6v24q2 10 2 19q0 20 -13 20q-4 0 -18 -9t-47 -34q-8 -4 -21 -4q-20 0 -38 21q-4 8 -12.5 17t-12.5 13q-18 18 -23.5 26.5t-5.5 18.5zM432 39q0 25 6 45t27 55q4 6 10 18.5t17 32.5q4 10 11 22.5t17 29.5q16 23 19.5 32t11.5 37q4 14 7 26.5t9 22.5l33 68q4 8 6 15.5 t10 29.5l13 41l26 51l13 35q8 16 14 30.5t12 31.5l13 24q4 10 7 20.5t7 20.5q16 41 33 78q6 16 7 21t5 22q33 96 33 100q4 10 7 18.5t7 12.5q4 8 8 17.5t6 23.5l17 53l14 35l12 20q6 14 11.5 23.5t8.5 19t6 20.5t7 30l17 45l10 43q6 37 26.5 51t67.5 14q29 0 45 -8t16 -25 q0 -12 -11 -37.5t-32 -60.5l-10 -24q-8 -14 -15 -29.5t-13 -34.5q-4 -6 -13.5 -27.5t-18.5 -46t-17.5 -46t-10.5 -27.5l-12 -39q-10 -27 -17.5 -52.5t-13.5 -48.5l-18 -37q-10 -23 -22.5 -47t-31.5 -65q-18 -45 -29.5 -74t-15.5 -43q-6 -23 -10 -32t-14 -31 q-8 -16 -15.5 -35t-13.5 -37q-20 -55 -32.5 -89t-16.5 -50l-14 -37l-9 -25l-8 -28q-4 -10 -9 -19.5t-11 -19.5q-12 -23 -19.5 -40.5t-13.5 -39.5q-4 -23 -16.5 -55.5t-18.5 -43.5q-6 -10 -12 -12t-31 -6q-6 0 -12 -1t-37 -5q-16 0 -27.5 13.5t-11.5 29.5zM903 109v6 q0 20 6 29.5t29 29.5q8 6 13 12.5t16 18.5q12 14 21 25.5t21.5 25.5t31 34.5t49.5 51.5q12 12 20 18q6 6 14.5 15.5t18.5 21.5q4 4 13 14.5t18 16.5l28 29q8 10 11.5 14t9.5 10q4 4 13 17.5t36 48.5q27 29 26 59q0 35 -25.5 60.5t-60.5 25.5q-29 0 -49 -5t-28 -15 q-6 -6 -13.5 -21.5t-7.5 -19.5l2 -45q0 -16 -18.5 -30.5t-38.5 -14.5h-12q-4 0 -6.5 1t-4.5 1h-2q-2 0 -9 -1t-19 -3h-9q-23 0 -40 17t-17 38q0 12 6 29l4 18l6 39q6 33 25.5 62.5t50.5 52t69 35t81 12.5q41 0 69.5 -1t49 -6.5t38 -13.5t37.5 -20q29 -18 39 -28.5t27 -39.5 q20 -31 23 -41t5 -39l3 -24q2 -14 3 -22.5t1 -12.5q0 -49 -20.5 -88t-72.5 -86q-8 -8 -12 -17q-16 -27 -22 -32l-17 -17q-6 -8 -12 -15t-10 -15q-10 -14 -16.5 -20.5t-30.5 -29.5q-12 -10 -21 -22l-18 -19l-27 -20q-10 -8 -16 -20.5t-6 -22.5q0 -12 14 -12q10 0 18 2 q6 2 15 2q4 0 9 -1t40 -5h12h12t27 4l51 -4q4 0 27 6q20 6 39 6q31 0 49 -18q4 -6 9 -14.5t5 -10.5t-1 -15.5t-1 -29.5q-2 -20 -2 -45q-6 -37 -63 -37q-10 0 -15.5 1l-27.5 5q-6 2 -25.5 3t-38.5 1q-18 0 -24 -2q-4 -2 -11 -2h-4q-27 2 -32 2h-13h-29.5t-41.5 2l-19 -2 l-51 4q-2 0 -8 -1t-17 -3q-31 -6 -71 -6q-35 0 -55.5 2t-31 9t-13.5 19.5t-3 35.5v14z" />
<glyph unicode="&#xbe;" horiz-adv-x="1529" d="M41 684q0 10 3 15.5t17 21.5q4 4 9.5 9t11.5 15q16 18 25.5 24.5t25.5 6.5q8 0 14.5 -1t14.5 -6t20.5 -17.5t34.5 -32.5q14 -10 41 -18.5t47 -8.5q59 0 103 56q10 12 19 40.5t9 42.5q0 88 -102 93q-18 2 -36.5 -1t-47.5 -10q-8 -2 -14.5 -3t-12.5 -1q-47 0 -53 47v15v18 t-4 35q0 27 33 37q4 2 16 3t51 5q49 4 81 31.5t32 62.5q0 29 -24.5 50.5t-59.5 21.5q-59 0 -84 -31q-27 -27 -57 -26q-18 0 -28.5 6t-29.5 28q-4 2 -8 7q-4 4 -9 8t-11 10q-18 14 -19 35q0 18 24.5 38.5t61.5 39t81 30t85 11.5q55 0 107.5 -19.5t78.5 -50.5l39 -43 q10 -16 20.5 -51t10.5 -51q0 -23 -16.5 -60t-44.5 -76q-4 -8 -4 -10q0 -4 6 -9t22 -17q49 -37 71.5 -79t22.5 -100q0 -78 -22.5 -130t-71.5 -93q-41 -31 -92 -48t-111 -17q-43 0 -91 14t-89 35.5t-68.5 48.5t-27.5 49zM430 39q0 25 6 45t27 55q4 6 10 18.5t16 32.5 q4 10 11.5 22.5t17.5 29.5q16 23 19.5 32t11.5 37q4 14 7 26.5t9 22.5l33 68q4 8 6 15.5t10 29.5l13 41l26 51l13 35q4 10 8 20.5t8 20.5t5 10t5 11l13 24q4 10 7 20.5t7 20.5q16 41 33 78q6 16 7 21t5 22q33 96 33 100q4 10 7 18.5t7 12.5q4 8 8 17.5t6 23.5l17 53l14 35 l12 20q6 14 11.5 23.5t8.5 19t6 20.5t7 30l17 45l10 43q6 37 26.5 51t67.5 14q29 0 45 -8t16 -25q0 -12 -11 -37.5t-32 -60.5l-10 -24q-8 -14 -15 -29.5t-14 -34.5q-4 -6 -13 -27.5t-18 -46t-17.5 -46t-10.5 -27.5l-12 -39q-10 -27 -17.5 -52.5t-13.5 -48.5l-18 -37 q-10 -23 -22.5 -47t-31.5 -65q-18 -45 -29.5 -74t-15.5 -43q-6 -23 -10 -32t-14 -31q-8 -16 -15.5 -35t-13.5 -37q-20 -55 -32.5 -89t-16.5 -50l-14 -37q-6 -16 -9.5 -29.5t-7.5 -23.5t-9 -19.5t-11 -19.5q-12 -23 -19.5 -40.5t-13.5 -39.5q-4 -23 -16.5 -55.5t-18.5 -43.5 q-6 -10 -12 -12t-31 -6q-6 0 -12 -1t-37 -5q-16 0 -27.5 13.5t-11.5 29.5zM891 250q0 10 2 14v10q0 2 2 5l-4 40l33 43q20 29 25 35t14 21q8 10 15 23.5t15 27.5l15 18l14 21l41 70q25 41 44 69.5t32 50.5l10 17l37 63q12 23 36.5 39.5t43.5 13.5l69 -6h2q4 0 6 2q6 2 21 2 q16 0 25.5 -13t9.5 -36l-2 -55q-2 -6 -2 -12v-6l2 -35q-2 -31 -2 -40v-30v-16l-2 -35q-2 -8 -2 -12v-23v-12t-2 -25v-9t2 -11q0 -2 1 -3t1 -3v-4l-4 -41l2 -27l-2 -23q0 -20 24 -20q10 0 17 2q25 6 34 6q45 0 45 -63q0 -29 2 -37q2 -12 3.5 -19.5t1.5 -9.5 q0 -18 -17.5 -29.5t-46.5 -11.5h-8t-23 4q-2 2 -10 2q-25 0 -25 -24v-17l3 -20l2 -27l4 -24q2 -6 2 -25q0 -47 -41 -47q-14 0 -23 2q-12 2 -20 2h-13h-8t-14 -2h-23q-53 0 -53 45q0 8 1 17.5t3 19.5q6 29 7 41t1 43q0 16 -18 16h-49q-18 -2 -24.5 -2h-10.5h-12t-23 2 q-6 2 -11 2h-32h-22l-74 -4q-6 0 -19.5 8.5t-17.5 14.5q-10 16 -10 47zM1087 336q0 -8 4.5 -9t30.5 -1h21q31 0 51 -4h10q20 0 25.5 21.5t3.5 92.5q2 29 4 53.5t4 47.5q2 10 3 27.5t1 29.5q-76 -111 -117 -177.5t-41 -80.5z" />
<glyph unicode="&#xbf;" horiz-adv-x="694" d="M63 51q0 47 12.5 87t41.5 89q8 16 15 26.5t17.5 24t29 35t50.5 60.5q51 59 73 124.5t22 166.5v22t-2 19q-2 23 -3.5 38t-1.5 19q0 45 45 45q8 0 15 -2q2 -2 8 -2h2q29 4 34 5t9 1q51 0 62 -41q0 -2 4 -37t12 -100l4 -35q4 -16 6 -34.5t6 -37.5q2 -6 2 -26q0 -14 -1 -23.5 t-5 -23t-11 -34t-22 -55.5q-6 -14 -10 -22t-12 -19.5t-21.5 -28t-37.5 -46.5q-49 -59 -65.5 -93t-16.5 -75q0 -109 84 -109q12 0 22 1t22.5 6.5t28 13.5t37.5 20q25 12 53 13q55 0 56 -78l-2 -49l4 -41q0 -25 -27 -43.5t-67 -22.5q-20 -2 -33 -4t-47 -10q-78 -18 -113 -19 q-63 0 -122.5 21.5t-92.5 56.5q-63 70 -64 217zM268 1049v24q0 45 16.5 61.5t61.5 16.5h23q14 -2 23 -2h11q4 0 16.5 2t29.5 6q10 2 30 2q76 0 76 -80q0 -8 -1 -17t-3 -20q-6 -35 -6 -43q0 -4 1 -13t3 -23q2 -8 2 -25q0 -23 -14.5 -39t-32.5 -16q-8 0 -53 6h-15 q-10 0 -24.5 -1t-28.5 -5q-14 -2 -24.5 -3t-18.5 -1q-47 0 -61 47q-4 10 -4.5 15t-0.5 34l-2 26z" />
<glyph unicode="&#xc0;" horiz-adv-x="1167" d="M-4 49q0 29 31 88q10 18 16 31.5t8 17.5l10 43q6 18 19 43q23 45 39 101q6 29 12 56.5t12 55.5q4 10 9.5 25.5t19.5 50.5q23 57 43 131q12 43 25 66l26 61q10 29 17.5 52.5t23.5 76.5q4 10 6 21.5t6 23.5q4 10 5 11l4 10l10 28l10 35q4 16 7 27.5t7.5 24t10.5 29t16 40.5 q10 31 17.5 50.5t7.5 23.5q10 33 18 52t19.5 30.5t29 14.5t43.5 3h13.5t15.5 -2l31 -2l75 2q6 0 22.5 -11t27.5 -22q14 -14 28 -67q4 -8 8.5 -20.5t10.5 -32.5l24 -60l43 -94q12 -27 19.5 -50.5t13.5 -56.5q4 -25 7 -36t18 -43q6 -8 9 -18.5t7 -22.5l12 -52l17 -43 q4 -16 8 -31.5t8 -29.5l8 -35q4 -10 9.5 -21.5t11.5 -27.5q8 -16 8 -15t6 -16l23 -61l8 -43l10 -25q8 -20 10 -30l15 -62l10 -27l20 -47q4 -12 8.5 -24.5t8.5 -22.5q10 -33 20 -49l27 -45q27 -49 26 -92q0 -47 -45 -47l-41 2q-41 6 -59 6q-6 0 -20.5 -1t-32.5 -3 q-14 -2 -26.5 -3t-22.5 -1q-41 0 -56.5 26.5t-19.5 96.5q0 35 -7 53t-32 51q-16 25 -59 25h-21q-10 -2 -22 -2q-6 0 -11 -2h-7t-15 2h-21h-11t-13 -1t-21.5 -3.5t-38.5 -4.5q-14 -2 -24 -2h-21q-27 0 -59 7q-12 2 -22.5 3t-16.5 1q-49 0 -81 -37t-34 -92q0 -47 -2 -58.5 t-12 -27.5q-25 -33 -59 -33q-10 0 -23.5 1t-30.5 3l-41 2h-22.5t-36.5 -2h-21q-68 0 -67 53zM340 1675q0 16 12.5 25.5t30.5 9.5h10t37 -2q6 -2 13.5 -2h11.5h14t25 4q10 2 18 2h16q31 0 47.5 -15.5t42.5 -66.5q20 -41 32 -70.5t12 -46.5q0 -41 -41 -40q-12 0 -23 2 q-6 2 -11 2h-9q-10 0 -19 -2h-18q-18 0 -30.5 8t-29.5 30q-14 23 -21 31t-18 17q-8 6 -17 15l-19 19l-50 43q-16 16 -16 37zM432 506q0 -12 18.5 -24.5t36.5 -12.5l66 2h7t15 -2h25q25 0 33 2l14 2h41q10 0 20.5 13.5t10.5 23.5q0 8 -2 14t-19 39l-12 43l-8 39l-21 68 l-10 41l-6 22q-4 27 -9 45.5t-9 28.5q-14 33 -18.5 42t-2.5 13q-2 8 -6 25.5t-10 44.5l-6 6l-41 -160q-6 -18 -11.5 -30.5t-8.5 -22.5t-6 -19.5t-7 -23.5q-12 -43 -18.5 -61.5t-16.5 -40.5q-6 -12 -9 -20.5t-6 -19t-9.5 -28.5t-14.5 -49z" />
<glyph unicode="&#xc1;" horiz-adv-x="1167" d="M-4 49q0 29 31 88q10 18 16 31.5t8 17.5l10 43q6 18 19 43q23 45 39 101q6 29 12 56.5t12 55.5q4 10 9.5 25.5t19.5 50.5q23 57 43 131q12 43 25 66l26 61q10 29 17.5 52.5t23.5 76.5q4 10 6 21.5t6 23.5q4 10 5 11l4 10l10 28l10 35q4 16 7 27.5t7.5 24t10.5 29t16 40.5 q10 31 17.5 50.5t7.5 23.5q10 33 18 52t19.5 30.5t29 14.5t43.5 3h13.5t15.5 -2l31 -2l75 2q6 0 22.5 -11t27.5 -22q14 -14 28 -67q4 -8 8.5 -20.5t10.5 -32.5l24 -60l43 -94q12 -27 19.5 -50.5t13.5 -56.5q4 -25 7 -36t18 -43q6 -8 9 -18.5t7 -22.5l12 -52l17 -43 q4 -16 8 -31.5t8 -29.5l8 -35q4 -10 9.5 -21.5t11.5 -27.5q8 -16 8 -15t6 -16l23 -61l8 -43l10 -25q8 -20 10 -30l15 -62l10 -27l20 -47q4 -12 8.5 -24.5t8.5 -22.5q10 -33 20 -49l27 -45q27 -49 26 -92q0 -47 -45 -47l-41 2q-41 6 -59 6q-6 0 -20.5 -1t-32.5 -3 q-14 -2 -26.5 -3t-22.5 -1q-41 0 -56.5 26.5t-19.5 96.5q0 35 -7 53t-32 51q-16 25 -59 25h-21q-10 -2 -22 -2q-6 0 -11 -2h-7t-15 2h-21h-11t-13 -1t-21.5 -3.5t-38.5 -4.5q-14 -2 -24 -2h-21q-27 0 -59 7q-12 2 -22.5 3t-16.5 1q-49 0 -81 -37t-34 -92q0 -47 -2 -58.5 t-12 -27.5q-25 -33 -59 -33q-10 0 -23.5 1t-30.5 3l-41 2h-22.5t-36.5 -2h-21q-68 0 -67 53zM432 506q0 -12 18.5 -24.5t36.5 -12.5l66 2h7t15 -2h25q25 0 33 2l14 2h41q10 0 20.5 13.5t10.5 23.5q0 8 -2 14t-19 39l-12 43l-8 39l-21 68l-10 41l-6 22q-4 27 -9 45.5t-9 28.5 q-14 33 -18.5 42t-2.5 13q-2 8 -6 25.5t-10 44.5l-6 6l-41 -160q-6 -18 -11.5 -30.5t-8.5 -22.5t-6 -19.5t-7 -23.5q-12 -43 -18.5 -61.5t-16.5 -40.5q-6 -12 -9 -20.5t-6 -19t-9.5 -28.5t-14.5 -49zM510 1524q0 14 4 24.5t25 40.5q10 16 17 32.5t11 33.5q10 35 20.5 45 t35.5 10h20q16 -2 28.5 -3t16.5 -1h7t16 2l61 2q29 0 45.5 -11t16.5 -30q0 -12 -2.5 -20.5t-11.5 -18.5t-27.5 -25.5t-49.5 -41.5q-10 -10 -20 -21.5t-21 -23.5q-25 -27 -32.5 -33t-20.5 -6h-9t-30 4h-10t-22 -2h-11q-57 0 -57 43z" />
<glyph unicode="&#xc2;" horiz-adv-x="1167" d="M-4 49q0 29 31 88q10 18 16 31.5t8 17.5l10 43q6 18 19 43q23 45 39 101q6 29 12 56.5t12 55.5q4 10 9.5 25.5t19.5 50.5q23 57 43 131q12 43 25 66l26 61q10 29 17.5 52.5t23.5 76.5q4 10 6 21.5t6 23.5q4 10 5 11l4 10l10 28l10 35q4 16 7 27.5t7.5 24t10.5 29t16 40.5 q10 31 17.5 50.5t7.5 23.5q10 33 18 52t19.5 30.5t29 14.5t43.5 3h13.5t15.5 -2l31 -2l75 2q6 0 22.5 -11t27.5 -22q14 -14 28 -67q4 -8 8.5 -20.5t10.5 -32.5l24 -60l43 -94q12 -27 19.5 -50.5t13.5 -56.5q4 -25 7 -36t18 -43q6 -8 9 -18.5t7 -22.5l12 -52l17 -43 q4 -16 8 -31.5t8 -29.5l8 -35q4 -10 9.5 -21.5t11.5 -27.5q8 -16 8 -15t6 -16l23 -61l8 -43l10 -25q8 -20 10 -30l15 -62l10 -27l20 -47q4 -12 8.5 -24.5t8.5 -22.5q10 -33 20 -49l27 -45q27 -49 26 -92q0 -47 -45 -47l-41 2q-41 6 -59 6q-6 0 -20.5 -1t-32.5 -3 q-14 -2 -26.5 -3t-22.5 -1q-41 0 -56.5 26.5t-19.5 96.5q0 35 -7 53t-32 51q-16 25 -59 25h-21q-10 -2 -22 -2q-6 0 -11 -2h-7t-15 2h-21h-11t-13 -1t-21.5 -3.5t-38.5 -4.5q-14 -2 -24 -2h-21q-27 0 -59 7q-12 2 -22.5 3t-16.5 1q-49 0 -81 -37t-34 -92q0 -47 -2 -58.5 t-12 -27.5q-25 -33 -59 -33q-10 0 -23.5 1t-30.5 3l-41 2h-22.5t-36.5 -2h-21q-68 0 -67 53zM367 1505q0 18 10 33.5t41 44.5q10 10 17 20.5t22 32.5q23 37 41 51.5t47 14.5h12t18 -2h19h16q10 2 17.5 2h11.5q20 0 34.5 -12.5t31.5 -42.5q12 -20 19 -32.5t14 -22t17.5 -18.5 t26.5 -24q18 -16 19 -39q0 -14 -10.5 -24t-26.5 -10h-19q-8 2 -15 2h-11h-25q-8 -2 -13 -2h-9q-23 0 -33 14l-33 47q-14 16 -19 21.5t-16 5.5q-14 0 -20 -10.5t-19 -47.5q-10 -33 -40 -32h-9.5t-11.5 2q-10 2 -18.5 3t-12.5 1h-16q-8 -2 -23 -2q-35 0 -34 26zM432 506 q0 -12 18.5 -24.5t36.5 -12.5l66 2h7t15 -2h25q25 0 33 2l14 2h41q10 0 20.5 13.5t10.5 23.5q0 8 -2 14t-19 39l-12 43l-8 39l-21 68l-10 41l-6 22q-4 27 -9 45.5t-9 28.5q-14 33 -18.5 42t-2.5 13q-2 8 -6 25.5t-10 44.5l-6 6l-41 -160q-6 -18 -11.5 -30.5t-8.5 -22.5 t-6 -19.5t-7 -23.5q-12 -43 -18.5 -61.5t-16.5 -40.5q-6 -12 -9 -20.5t-6 -19t-9.5 -28.5t-14.5 -49z" />
<glyph unicode="&#xc3;" horiz-adv-x="1167" d="M-4 49q0 29 31 88q10 18 16 31.5t8 17.5l10 43q6 18 19 43q23 45 39 101q6 29 12 56.5t12 55.5q4 10 9.5 25.5t19.5 50.5q23 57 43 131q12 43 25 66l26 61q10 29 17.5 52.5t23.5 76.5q4 10 6 21.5t6 23.5q4 10 5 11l4 10l10 28l10 35q4 16 7 27.5t7.5 24t10.5 29t16 40.5 q10 31 17.5 50.5t7.5 23.5q10 33 18 52t19.5 30.5t29 14.5t43.5 3h13.5t15.5 -2l31 -2l75 2q6 0 22.5 -11t27.5 -22q14 -14 28 -67q4 -8 8.5 -20.5t10.5 -32.5l24 -60l43 -94q12 -27 19.5 -50.5t13.5 -56.5q4 -25 7 -36t18 -43q6 -8 9 -18.5t7 -22.5l12 -52l17 -43 q4 -16 8 -31.5t8 -29.5l8 -35q4 -10 9.5 -21.5t11.5 -27.5q8 -16 8 -15t6 -16l23 -61l8 -43l10 -25q8 -20 10 -30l15 -62l10 -27l20 -47q4 -12 8.5 -24.5t8.5 -22.5q10 -33 20 -49l27 -45q27 -49 26 -92q0 -47 -45 -47l-41 2q-41 6 -59 6q-6 0 -20.5 -1t-32.5 -3 q-14 -2 -26.5 -3t-22.5 -1q-41 0 -56.5 26.5t-19.5 96.5q0 35 -7 53t-32 51q-16 25 -59 25h-21q-10 -2 -22 -2q-6 0 -11 -2h-7t-15 2h-21h-11t-13 -1t-21.5 -3.5t-38.5 -4.5q-14 -2 -24 -2h-21q-27 0 -59 7q-12 2 -22.5 3t-16.5 1q-49 0 -81 -37t-34 -92q0 -47 -2 -58.5 t-12 -27.5q-25 -33 -59 -33q-10 0 -23.5 1t-30.5 3l-41 2h-22.5t-36.5 -2h-21q-68 0 -67 53zM305 1559q0 35 7 53t30 45q23 29 47.5 39t61.5 10q47 0 91 -9t79 -28q35 -18 46 -22.5t27 -4.5q18 0 26.5 5.5t14.5 21.5q10 25 25 25q4 0 10 -1t16 -3l21 -2q33 0 44 -10.5 t11 -39.5q0 -74 -35 -116q-10 -14 -38.5 -27.5t-47.5 -13.5q-16 0 -40.5 4t-50 9t-49 11t-36.5 13q-51 27 -92 26q-16 0 -23.5 -5t-17.5 -21q-14 -25 -35 -25h-12l-29 4q-33 0 -42 10.5t-9 51.5zM432 506q0 -12 18.5 -24.5t36.5 -12.5l66 2h7t15 -2h25q25 0 33 2l14 2h41 q10 0 20.5 13.5t10.5 23.5q0 8 -2 14t-19 39l-12 43l-8 39l-21 68l-10 41l-6 22q-4 27 -9 45.5t-9 28.5q-14 33 -18.5 42t-2.5 13q-2 8 -6 25.5t-10 44.5l-6 6l-41 -160q-6 -18 -11.5 -30.5t-8.5 -22.5t-6 -19.5t-7 -23.5q-12 -43 -18.5 -61.5t-16.5 -40.5q-6 -12 -9 -20.5 t-6 -19t-9.5 -28.5t-14.5 -49z" />
<glyph unicode="&#xc4;" horiz-adv-x="1167" d="M-4 49q0 29 31 88q10 18 16 31.5t8 17.5l10 43q6 18 19 43q23 45 39 101q6 29 12 56.5t12 55.5q4 10 9.5 25.5t19.5 50.5q23 57 43 131q12 43 25 66l26 61q10 29 17.5 52.5t23.5 76.5q4 10 6 21.5t6 23.5q4 10 5 11l4 10l10 28l10 35q4 16 7 27.5t7.5 24t10.5 29t16 40.5 q10 31 17.5 50.5t7.5 23.5q10 33 18 52t19.5 30.5t29 14.5t43.5 3h13.5t15.5 -2l31 -2l75 2q6 0 22.5 -11t27.5 -22q14 -14 28 -67q4 -8 8.5 -20.5t10.5 -32.5l24 -60l43 -94q12 -27 19.5 -50.5t13.5 -56.5q4 -25 7 -36t18 -43q6 -8 9 -18.5t7 -22.5l12 -52l17 -43 q4 -16 8 -31.5t8 -29.5l8 -35q4 -10 9.5 -21.5t11.5 -27.5q8 -16 8 -15t6 -16l23 -61l8 -43l10 -25q8 -20 10 -30l15 -62l10 -27l20 -47q4 -12 8.5 -24.5t8.5 -22.5q10 -33 20 -49l27 -45q27 -49 26 -92q0 -47 -45 -47l-41 2q-41 6 -59 6q-6 0 -20.5 -1t-32.5 -3 q-14 -2 -26.5 -3t-22.5 -1q-41 0 -56.5 26.5t-19.5 96.5q0 35 -7 53t-32 51q-16 25 -59 25h-21q-10 -2 -22 -2q-6 0 -11 -2h-7t-15 2h-21h-11t-13 -1t-21.5 -3.5t-38.5 -4.5q-14 -2 -24 -2h-21q-27 0 -59 7q-12 2 -22.5 3t-16.5 1q-49 0 -81 -37t-34 -92q0 -47 -2 -58.5 t-12 -27.5q-25 -33 -59 -33q-10 0 -23.5 1t-30.5 3l-41 2h-22.5t-36.5 -2h-21q-68 0 -67 53zM291 1673q0 47 51 47h16.5t18.5 -2h16h12.5t38.5 4h13q47 0 63 -18q4 -4 10.5 -21.5t6.5 -25.5l-5 -82q0 -8 3 -19q2 -10 2 -17v-15q0 -27 -9.5 -36t-33.5 -9h-13.5t-15.5 2h-27 l-47 -2q-6 -2 -13 -2h-13q-31 0 -49.5 13t-18.5 38v12t2 16v29q0 12 -1 23.5t-3 29.5q-2 10 -3 18.5t-1 16.5zM432 506q0 -12 18.5 -24.5t36.5 -12.5l66 2h7t15 -2h25q25 0 33 2l14 2h41q10 0 20.5 13.5t10.5 23.5q0 8 -2 14t-19 39l-12 43l-8 39l-21 68l-10 41l-6 22 q-4 27 -9 45.5t-9 28.5q-14 33 -18.5 42t-2.5 13q-2 8 -6 25.5t-10 44.5l-6 6l-41 -160q-6 -18 -11.5 -30.5t-8.5 -22.5t-6 -19.5t-7 -23.5q-12 -43 -18.5 -61.5t-16.5 -40.5q-6 -12 -9 -20.5t-6 -19t-9.5 -28.5t-14.5 -49zM629 1655q0 66 71 65h17q18 -2 30.5 -3t14.5 -1h9 t17 2q8 2 23 2q61 0 61 -69v-9.5t-2 -27.5l7 -39q2 -12 3 -23.5t1 -21.5q0 -29 -15.5 -39t-52.5 -10h-57q-10 2 -21 2l-67 -6q-10 2 -22.5 22.5t-12.5 30.5l4 72q-2 2 -2 6t-1 6t-1 6q-2 10 -3 17.5t-1 17.5z" />
<glyph unicode="&#xc5;" horiz-adv-x="1167" d="M-4 49q0 29 31 88q10 18 16 31.5t8 17.5l10 43q6 18 19 43q23 45 39 101q6 29 12 56.5t12 55.5q4 10 9.5 25.5t19.5 50.5q23 57 43 131q12 43 25 66l26 61q10 29 17.5 52.5t23.5 76.5q4 10 6 21.5t6 23.5q4 10 5 11l4 10l10 28l10 35q4 16 7 27.5t7.5 24t10.5 29t16 40.5 q10 31 17.5 50.5t7.5 23.5q10 33 18 52t19.5 30.5t29 14.5t43.5 3h13.5t15.5 -2l31 -2l75 2q6 0 22.5 -11t27.5 -22q14 -14 28 -67q4 -8 8.5 -20.5t10.5 -32.5l24 -60l43 -94q12 -27 19.5 -50.5t13.5 -56.5q4 -25 7 -36t18 -43q6 -8 9 -18.5t7 -22.5l12 -52l17 -43 q4 -16 8 -31.5t8 -29.5l8 -35q4 -10 9.5 -21.5t11.5 -27.5q8 -16 8 -15t6 -16l23 -61l8 -43l10 -25q8 -20 10 -30l15 -62l10 -27l20 -47q4 -12 8.5 -24.5t8.5 -22.5q10 -33 20 -49l27 -45q27 -49 26 -92q0 -47 -45 -47l-41 2q-41 6 -59 6q-6 0 -20.5 -1t-32.5 -3 q-14 -2 -26.5 -3t-22.5 -1q-41 0 -56.5 26.5t-19.5 96.5q0 35 -7 53t-32 51q-16 25 -59 25h-21q-10 -2 -22 -2q-6 0 -11 -2h-7t-15 2h-21h-11t-13 -1t-21.5 -3.5t-38.5 -4.5q-14 -2 -24 -2h-21q-27 0 -59 7q-12 2 -22.5 3t-16.5 1q-49 0 -81 -37t-34 -92q0 -47 -2 -58.5 t-12 -27.5q-25 -33 -59 -33q-10 0 -23.5 1t-30.5 3l-41 2h-22.5t-36.5 -2h-21q-68 0 -67 53zM414 1634q0 47 9 71t38 56q12 12 20 19.5t22.5 12.5t37 8t65.5 9q16 -2 25.5 -6t46.5 -28q41 -29 58.5 -63t17.5 -91q0 -14 -13.5 -42t-25.5 -40l-6 -6t-15 -18q-37 -43 -94 -43 q-47 0 -70.5 9t-56.5 38q-18 16 -27.5 26t-11.5 13q-20 31 -20 75zM432 506q0 -12 18.5 -24.5t36.5 -12.5l66 2h7t15 -2h25q25 0 33 2l14 2h41q10 0 20.5 13.5t10.5 23.5q0 8 -2 14t-19 39l-12 43l-8 39l-21 68l-10 41l-6 22q-4 27 -9 45.5t-9 28.5q-14 33 -18.5 42t-2.5 13 q-2 8 -6 25.5t-10 44.5l-6 6l-41 -160q-6 -18 -11.5 -30.5t-8.5 -22.5t-6 -19.5t-7 -23.5q-12 -43 -18.5 -61.5t-16.5 -40.5q-6 -12 -9 -20.5t-6 -19t-9.5 -28.5t-14.5 -49zM524 1645q0 -4 6.5 -22.5t10.5 -23.5q10 -20 37 -20q23 0 42 19.5t19 39.5q0 25 -14 42.5t-37 17.5 t-43.5 -16.5t-20.5 -36.5z" />
<glyph unicode="&#xc6;" horiz-adv-x="1546" d="M-4 57q0 27 22 68q18 33 23 47l8 31l12 30l25 68q4 10 8 20.5t8 20.5l15 37l18 63q4 20 21.5 59.5t36.5 76.5q12 25 15 35t9 34q18 80 27 101q6 14 13 27t15 28l11 35l22 57l14 27q14 29 17 34l14 48q23 53 47.5 108t42.5 84l13 21q10 29 18 53q8 25 51 78q12 16 28.5 20 t51.5 4h29.5t27.5 -2q6 -2 11.5 -2h7.5q12 2 17 2h22h15t34 2l141 -2l105 2q31 0 67 -6l23 -2l98 4q6 0 31 -6q20 -4 24 -4q8 0 30 3t50 7q10 2 19.5 2h19.5q39 0 68 -20q10 -8 21.5 -21.5t11.5 -17.5l-7 -90q0 -6 2 -15q0 -6 1.5 -15t3.5 -20v-18q0 -47 -50 -47 q-20 0 -28 2t-43 12l-47 2l-47 4q-20 2 -27.5 2h-34.5q-10 0 -16 1t-39 6q-33 -4 -42 -4.5t-34 -0.5q-57 0 -79.5 -22.5t-22.5 -79.5q0 -59 18 -88q4 -6 17.5 -13t17.5 -7l76 4q10 -2 37.5 -6.5t74.5 -10.5l101 6q6 0 22.5 -2t32.5 -6t31.5 -8t19.5 -6q20 -10 26.5 -24.5 t6.5 -47.5l8 -71q0 -39 -21.5 -69t-50.5 -30q-16 0 -86 17l-73 8h-31t-35 2q-12 0 -106 -6q-78 -4 -78 -95v-36q2 -16 2 -29.5v-22.5q0 -10 -1 -20t-3 -21l-2 -28q0 -6 3 -27.5t8 -46.5t9 -46.5t6 -25.5q10 -23 29.5 -29.5t69.5 -6.5h18t16 2q20 2 33 3t15 1t8 -1t16 -3 q12 -2 24.5 -3.5t22.5 -1.5q16 0 29.5 1.5t27 4.5t31 7t41.5 12q2 2 23 2q45 0 63.5 -18.5t18.5 -65.5l-4 -76q0 -47 -4.5 -61t-22.5 -31q-25 -25 -55 -24q-10 0 -20.5 1t-24.5 3q-37 6 -61.5 8t-65.5 2h-90q-23 -2 -37.5 -2h-18.5q-14 0 -38.5 1t-57.5 3q-10 2 -17.5 2 h-13.5q-16 0 -28.5 -2t-42.5 -6q-25 -6 -43 -6q-39 0 -75 18.5t-46 40.5q-4 8 -5 19.5t-10 64.5q0 2 2.5 15.5t6.5 35.5q2 10 3 23.5t1 27.5q0 78 -45 84h-68l-33 2l-45 9l-18 -4h-6l-82 2q-25 0 -45 -58q-4 -6 -6.5 -11t-16.5 -28q-10 -18 -15 -34.5t-9 -44.5 q-4 -27 -13 -54q-4 -12 -5 -18t-5 -29q-8 -61 -76 -61q-8 0 -17 1t-58 7q-10 2 -20.5 3t-18.5 1q-14 0 -23 -2q-12 -2 -21.5 -3t-13.5 -1q-23 0 -40 20.5t-17 42.5zM481 586q0 -25 29 -31h59l39 -2l35 -2q10 -2 18.5 -2h12.5q41 0 41 61q0 10 -1 17.5t-5 44.5l2 67l-2 54v9 t2 11q0 6 1 11t1 10q0 4 2 8q-4 43 -5 71.5t-5 44.5q-2 6 -3 25q0 20 7 68q2 25 3 36t1 19q0 12 -5.5 21.5t-13.5 9.5q-4 0 -7 -6.5t-15 -47.5l-13 -32q-4 -10 -8 -20.5t-8 -20.5q-8 -23 -12 -31t-8 -18q-14 -16 -15 -35l-8 -33l-27 -53q-8 -14 -13 -29.5t-11 -40.5 q-4 -16 -8 -29.5t-9 -27.5q-4 -12 -11 -25.5t-13 -28.5q-27 -55 -27 -73z" />
<glyph unicode="&#xc7;" horiz-adv-x="849" d="M41 758q0 37 4 69.5t13.5 66.5t23.5 70.5t37 84.5q20 45 38.5 76.5t38 56t43 47t58.5 47.5q23 16 39 27.5t36.5 20.5t46 18.5t66.5 23.5q49 16 81 22.5t65 6.5q59 0 98 -13.5t53 -35.5q8 -12 9.5 -20.5t5.5 -45.5q2 -8 3 -30.5t5 -59.5q0 -39 -21.5 -66.5t-52.5 -27.5 q-27 0 -57 8q-61 12 -86 12q-23 0 -57.5 -13t-57.5 -30q-25 -16 -53.5 -58t-44.5 -85q-8 -23 -18.5 -55.5t-18.5 -67.5t-13.5 -64.5t-5.5 -42.5q0 -16 3.5 -42.5t8.5 -56.5t11 -57.5t12 -43.5q6 -18 18.5 -46t26 -53.5t25.5 -47t20 -29.5q55 -61 136 -62q12 0 19 1t40 9 q6 2 20.5 3t24.5 1q59 0 84 -24.5t33 -89.5l6 -37q6 -25 6 -43q0 -51 -43 -83t-113 -32q-35 0 -77.5 6.5t-84.5 17.5t-79 24.5t-60 29.5q-100 66 -171.5 159t-108.5 208q-12 39 -19.5 67.5t-10.5 63.5t-4 85t-1 130zM467 -217q0 27 9 52.5t26 35.5q16 12 40 21.5t40 9.5 q20 0 44.5 -10.5t41.5 -26.5q16 -18 27.5 -36.5t9.5 -29.5q-4 -45 -7.5 -71.5t-7.5 -36.5q0 2 -10 -39q-2 -6 -8 -18.5t-39 -65.5q-10 -20 -26.5 -32.5t-33.5 -12.5q-29 0 -49 14t-20 37q0 14 10 29q6 8 9 13t5 11t3 16.5t6 26.5q0 16 -29 45q-41 33 -41 68z" />
<glyph unicode="&#xc8;" horiz-adv-x="919" d="M92 117q0 8 1 15t3 18q4 29 7 48t3 25q0 2 -1 9.5t-3 17.5q-4 18 -5 42.5t-1 47.5v29.5t1 24t3 27.5t6 42q2 10 3.5 24.5t1.5 30.5v14.5v16.5t-1 29.5t-4 54.5q-2 23 -2 40v34v21t2 22l3 67q0 12 -2.5 54t-6.5 81v21v10t1 15.5t2 34t3 63.5v24v19.5t-4 23.5 q-2 20 -2 26.5t-2 29.5q0 12 -6 77q0 31 29 53.5t65 22.5h23.5t30.5 -2q10 -2 18 -2h16h8.5h10.5t19.5 1t35.5 3h33q16 0 31.5 -1t31.5 -3t26.5 -3t12.5 -1l66 2q49 -4 60.5 -5t29.5 -1l82 2q20 2 34.5 3t24.5 1q35 0 55.5 -19.5t20.5 -50.5q0 -8 -1 -15t-3 -17t-3 -17.5 t-1 -9.5t1 -15.5t5 -33.5q2 -8 2 -21q0 -59 -31 -59q-23 0 -55 8l-41 6h-42t-13 2l-35 4h-41l-18 2l-127 3q-18 0 -37 -5.5t-27 -15.5q-10 -10 -19.5 -37.5t-9.5 -48.5q0 -18 7.5 -48t13.5 -38q8 -10 29.5 -17.5t40.5 -7.5l59 3q29 -4 36 -5.5t23 -3.5l33 -2q8 -2 13.5 -2 h9.5h12t39 4q18 -2 42.5 -4t55.5 -6q23 -2 39 -17.5t16 -31.5q0 -6 -6 -27q-2 -10 -2 -30q0 -25 6 -56q2 -10 2 -17v-15q0 -23 -19 -39.5t-48 -16.5q-8 0 -88 19q-23 6 -31 6q-2 0 -11 -1t-26 -3q-6 -2 -14 -2h-10t-27 4l-45 -2h-7t-14 2q-10 2 -32 2q-45 0 -74 -29 q-6 -6 -10 -11t-6 -15.5t-2 -29v-50.5l-3 -47q-2 -10 -2 -17.5v-15.5q0 -31 5.5 -74t11.5 -68q8 -29 31.5 -48t58.5 -23q12 -2 34.5 -3t51.5 -2t59.5 -1h59.5h16t15.5 2t22.5 5t36 9q20 4 33 4q25 0 42 -14.5t17 -36.5q0 -8 -1 -17.5t-3 -19.5q-6 -23 -6 -35q0 -6 1 -13 t9 -44q4 -20 4 -31q0 -59 -84 -59h-14t-17.5 1t-33 2t-58.5 3q-10 2 -18 2h-23h-14t-37 -2h-24h-48.5t-31.5 2q-53 4 -86 6t-35 2t-15.5 -2t-35.5 -6q-35 -6 -66 -6q-125 0 -125 125zM150 1675q0 16 12 25.5t31 9.5h10t37 -2q6 -2 13 -2h11h14.5t24.5 4q10 2 18.5 2h16.5 q31 0 47 -15.5t43 -66.5q20 -41 31.5 -70.5t11.5 -46.5q0 -41 -41 -40q-12 0 -22 2q-6 2 -11.5 2h-9.5q-10 0 -18 -2h-19q-18 0 -30.5 8t-28.5 30q-14 23 -21.5 31t-17.5 17q-8 6 -17.5 15t-19.5 19l-49 43q-16 16 -16 37z" />
<glyph unicode="&#xc9;" horiz-adv-x="919" d="M92 117q0 8 1 15t3 18q4 29 7 48t3 25q0 2 -1 9.5t-3 17.5q-4 18 -5 42.5t-1 47.5v29.5t1 24t3 27.5t6 42q2 10 3.5 24.5t1.5 30.5v14.5v16.5t-1 29.5t-4 54.5q-2 23 -2 40v34v21t2 22l3 67q0 12 -2.5 54t-6.5 81v21v10t1 15.5t2 34t3 63.5v24v19.5t-4 23.5 q-2 20 -2 26.5t-2 29.5q0 12 -6 77q0 31 29 53.5t65 22.5h23.5t30.5 -2q10 -2 18 -2h16h8.5h10.5t19.5 1t35.5 3h33q16 0 31.5 -1t31.5 -3t26.5 -3t12.5 -1l66 2q49 -4 60.5 -5t29.5 -1l82 2q20 2 34.5 3t24.5 1q35 0 55.5 -19.5t20.5 -50.5q0 -8 -1 -15t-3 -17t-3 -17.5 t-1 -9.5t1 -15.5t5 -33.5q2 -8 2 -21q0 -59 -31 -59q-23 0 -55 8l-41 6h-42t-13 2l-35 4h-41l-18 2l-127 3q-18 0 -37 -5.5t-27 -15.5q-10 -10 -19.5 -37.5t-9.5 -48.5q0 -18 7.5 -48t13.5 -38q8 -10 29.5 -17.5t40.5 -7.5l59 3q29 -4 36 -5.5t23 -3.5l33 -2q8 -2 13.5 -2 h9.5h12t39 4q18 -2 42.5 -4t55.5 -6q23 -2 39 -17.5t16 -31.5q0 -6 -6 -27q-2 -10 -2 -30q0 -25 6 -56q2 -10 2 -17v-15q0 -23 -19 -39.5t-48 -16.5q-8 0 -88 19q-23 6 -31 6q-2 0 -11 -1t-26 -3q-6 -2 -14 -2h-10t-27 4l-45 -2h-7t-14 2q-10 2 -32 2q-45 0 -74 -29 q-6 -6 -10 -11t-6 -15.5t-2 -29v-50.5l-3 -47q-2 -10 -2 -17.5v-15.5q0 -31 5.5 -74t11.5 -68q8 -29 31.5 -48t58.5 -23q12 -2 34.5 -3t51.5 -2t59.5 -1h59.5h16t15.5 2t22.5 5t36 9q20 4 33 4q25 0 42 -14.5t17 -36.5q0 -8 -1 -17.5t-3 -19.5q-6 -23 -6 -35q0 -6 1 -13 t9 -44q4 -20 4 -31q0 -59 -84 -59h-14t-17.5 1t-33 2t-58.5 3q-10 2 -18 2h-23h-14t-37 -2h-24h-48.5t-31.5 2q-53 4 -86 6t-35 2t-15.5 -2t-35.5 -6q-35 -6 -66 -6q-125 0 -125 125zM252 1524q0 14 4 24.5t25 40.5q10 16 17 32.5t11 33.5q10 35 20.5 45t35.5 10h20 q16 -2 28.5 -3t16.5 -1h7t16 2l61 2q29 0 45 -11t16 -30q0 -12 -2 -20.5t-11 -18.5t-27.5 -25.5t-49.5 -41.5q-10 -10 -20 -21.5t-21 -23.5q-25 -27 -33 -33t-20 -6h-9t-30 4h-10t-23 -2h-10q-57 0 -57 43z" />
<glyph unicode="&#xca;" horiz-adv-x="919" d="M92 117q0 8 1 15t3 18q4 29 7 48t3 25q0 2 -1 9.5t-3 17.5q-4 18 -5 42.5t-1 47.5v29.5t1 24t3 27.5t6 42q2 10 3.5 24.5t1.5 30.5v14.5v16.5t-1 29.5t-4 54.5q-2 23 -2 40v34v21t2 22l3 67q0 12 -2.5 54t-6.5 81v21v10t1 15.5t2 34t3 63.5v24v19.5t-4 23.5 q-2 20 -2 26.5t-2 29.5q0 12 -6 77q0 31 29 53.5t65 22.5h23.5t30.5 -2q10 -2 18 -2h16h8.5h10.5t19.5 1t35.5 3h33q16 0 31.5 -1t31.5 -3t26.5 -3t12.5 -1l66 2q49 -4 60.5 -5t29.5 -1l82 2q20 2 34.5 3t24.5 1q35 0 55.5 -19.5t20.5 -50.5q0 -8 -1 -15t-3 -17t-3 -17.5 t-1 -9.5t1 -15.5t5 -33.5q2 -8 2 -21q0 -59 -31 -59q-23 0 -55 8l-41 6h-42t-13 2l-35 4h-41l-18 2l-127 3q-18 0 -37 -5.5t-27 -15.5q-10 -10 -19.5 -37.5t-9.5 -48.5q0 -18 7.5 -48t13.5 -38q8 -10 29.5 -17.5t40.5 -7.5l59 3q29 -4 36 -5.5t23 -3.5l33 -2q8 -2 13.5 -2 h9.5h12t39 4q18 -2 42.5 -4t55.5 -6q23 -2 39 -17.5t16 -31.5q0 -6 -6 -27q-2 -10 -2 -30q0 -25 6 -56q2 -10 2 -17v-15q0 -23 -19 -39.5t-48 -16.5q-8 0 -88 19q-23 6 -31 6q-2 0 -11 -1t-26 -3q-6 -2 -14 -2h-10t-27 4l-45 -2h-7t-14 2q-10 2 -32 2q-45 0 -74 -29 q-6 -6 -10 -11t-6 -15.5t-2 -29v-50.5l-3 -47q-2 -10 -2 -17.5v-15.5q0 -31 5.5 -74t11.5 -68q8 -29 31.5 -48t58.5 -23q12 -2 34.5 -3t51.5 -2t59.5 -1h59.5h16t15.5 2t22.5 5t36 9q20 4 33 4q25 0 42 -14.5t17 -36.5q0 -8 -1 -17.5t-3 -19.5q-6 -23 -6 -35q0 -6 1 -13 t9 -44q4 -20 4 -31q0 -59 -84 -59h-14t-17.5 1t-33 2t-58.5 3q-10 2 -18 2h-23h-14t-37 -2h-24h-48.5t-31.5 2q-53 4 -86 6t-35 2t-15.5 -2t-35.5 -6q-35 -6 -66 -6q-125 0 -125 125zM264 1505q0 18 10.5 33.5t40.5 44.5q10 10 17.5 20.5t21.5 32.5q23 37 41.5 51.5 t46.5 14.5h12.5t18.5 -2h19h16q10 2 17 2h12q20 0 34.5 -12.5t30.5 -42.5l19.5 -32.5t14.5 -22t17.5 -18.5t26.5 -24q18 -16 18 -39q0 -14 -10 -24t-26 -10h-19q-8 2 -15 2h-12h-24q-8 -2 -13.5 -2h-9.5q-23 0 -32 14l-33 47q-14 16 -19.5 21.5t-15.5 5.5q-14 0 -20.5 -10.5 t-18.5 -47.5q-10 -33 -41 -32h-9t-11 2q-10 2 -18.5 3t-12.5 1h-16q-8 -2 -23 -2q-35 0 -35 26z" />
<glyph unicode="&#xcb;" horiz-adv-x="919" d="M92 117q0 8 1 15t3 18q4 29 7 48t3 25q0 2 -1 9.5t-3 17.5q-4 18 -5 42.5t-1 47.5v29.5t1 24t3 27.5t6 42q2 10 3.5 24.5t1.5 30.5v14.5v16.5t-1 29.5t-4 54.5q-2 23 -2 40v34v21t2 22l3 67q0 12 -2.5 54t-6.5 81v21v10t1 15.5t2 34t3 63.5v24v19.5t-4 23.5 q-2 20 -2 26.5t-2 29.5q0 12 -6 77q0 31 29 53.5t65 22.5h23.5t30.5 -2q10 -2 18 -2h16h8.5h10.5t19.5 1t35.5 3h33q16 0 31.5 -1t31.5 -3t26.5 -3t12.5 -1l66 2q49 -4 60.5 -5t29.5 -1l82 2q20 2 34.5 3t24.5 1q35 0 55.5 -19.5t20.5 -50.5q0 -8 -1 -15t-3 -17t-3 -17.5 t-1 -9.5t1 -15.5t5 -33.5q2 -8 2 -21q0 -59 -31 -59q-23 0 -55 8l-41 6h-42t-13 2l-35 4h-41l-18 2l-127 3q-18 0 -37 -5.5t-27 -15.5q-10 -10 -19.5 -37.5t-9.5 -48.5q0 -18 7.5 -48t13.5 -38q8 -10 29.5 -17.5t40.5 -7.5l59 3q29 -4 36 -5.5t23 -3.5l33 -2q8 -2 13.5 -2 h9.5h12t39 4q18 -2 42.5 -4t55.5 -6q23 -2 39 -17.5t16 -31.5q0 -6 -6 -27q-2 -10 -2 -30q0 -25 6 -56q2 -10 2 -17v-15q0 -23 -19 -39.5t-48 -16.5q-8 0 -88 19q-23 6 -31 6q-2 0 -11 -1t-26 -3q-6 -2 -14 -2h-10t-27 4l-45 -2h-7t-14 2q-10 2 -32 2q-45 0 -74 -29 q-6 -6 -10 -11t-6 -15.5t-2 -29v-50.5l-3 -47q-2 -10 -2 -17.5v-15.5q0 -31 5.5 -74t11.5 -68q8 -29 31.5 -48t58.5 -23q12 -2 34.5 -3t51.5 -2t59.5 -1h59.5h16t15.5 2t22.5 5t36 9q20 4 33 4q25 0 42 -14.5t17 -36.5q0 -8 -1 -17.5t-3 -19.5q-6 -23 -6 -35q0 -6 1 -13 t9 -44q4 -20 4 -31q0 -59 -84 -59h-14t-17.5 1t-33 2t-58.5 3q-10 2 -18 2h-23h-14t-37 -2h-24h-48.5t-31.5 2q-53 4 -86 6t-35 2t-15.5 -2t-35.5 -6q-35 -6 -66 -6q-125 0 -125 125zM186 1673q0 47 52 47h16t18 -2h17h12t39 4h12q47 0 64 -18q4 -4 10 -21.5t6 -25.5l-4 -82 q0 -8 2 -19q2 -10 2 -17v-15q0 -27 -9 -36t-34 -9h-13t-16 2h-26l-47 -2q-6 -2 -13.5 -2h-13.5q-31 0 -49 13t-18 38v12t2 16v29q0 12 -1 23.5t-4 29.5q-2 10 -3 18.5t-1 16.5zM524 1655q0 66 72 65h16q18 -2 30.5 -3t14.5 -1h9.5t17.5 2q8 2 23 2q61 0 61 -69v-9.5 t-2 -27.5l6 -39q2 -12 3 -23.5t1 -21.5q0 -29 -15.5 -39t-51.5 -10h-58q-10 2 -20 2l-68 -6q-10 2 -22.5 22.5t-12.5 30.5l4 72q-2 2 -2 6t-1 6t-1 6q-2 10 -3 17.5t-1 17.5z" />
<glyph unicode="&#xcc;" horiz-adv-x="514" d="M14 1675q0 16 12.5 25.5t30.5 9.5h10.5t36.5 -2q6 -2 13.5 -2h11.5h14.5t24.5 4q10 2 18.5 2h16.5q31 0 47 -15.5t43 -66.5q20 -41 31.5 -70.5t11.5 -46.5q0 -41 -41 -40q-12 0 -23 2q-6 2 -11 2h-9q-10 0 -19 -2h-18q-18 0 -30.5 8t-28.5 30q-14 23 -21.5 31t-17.5 17 q-8 6 -17.5 15t-19.5 19l-49 43q-16 16 -17 37zM104 1272q0 100 86 100q23 0 31 -2t19 -2q4 0 8 -2l76 6q4 0 19 -9t24 -13q27 -23 26 -58q0 -10 -1 -22.5t-3 -24.5q-2 -14 -2 -18t-2 -21q0 -4 -1 -15t-3 -30l4 -51l-4 -41l2 -37l-2 -39l6 -73v-7.5t-2 -15.5t-2 -29v-52.5 t2 -37.5q0 -6 1 -11t1 -9v-8q0 -14 -6 -45q-2 -8 -2 -15l4 -53q-4 -41 -5 -48t-1 -11q0 -8 1 -17.5t11 -54.5l-2 -12l-2 -31v-26.5t-2 -22.5q4 -37 8 -72t4 -47q0 -2 -1 -9t-3 -18q-2 -10 -2 -19v-18q0 -8 1 -25.5t3 -38t5 -41t5 -32.5q2 -10 3.5 -19t1.5 -18q0 -66 -78 -65 h-14.5t-39.5 4q-6 2 -26 2h-11.5t-17.5 -2h-33q-80 0 -79 94v17.5t1 16.5t4 24.5t7 41.5q2 6 2 21v18q-4 35 -6 59.5t-2 28.5v15l4 67v17.5t1 16.5t2 23.5t3 41.5l-10 192l8 176q-2 29 -3 46.5t-1 33t-1 33.5t-3 49q0 4 1 13.5t3 23.5t3 25.5t1 21.5v9t-2 16q-2 6 -6 39.5 t-11 95.5z" />
<glyph unicode="&#xcd;" horiz-adv-x="514" d="M104 1272q0 100 86 100q23 0 31 -2t19 -2q4 0 8 -2l76 6q4 0 19 -9t24 -13q27 -23 26 -58q0 -10 -1 -22.5t-3 -24.5q-2 -14 -2 -18t-2 -21q0 -4 -1 -15t-3 -30l4 -51l-4 -41l2 -37l-2 -39l6 -73v-7.5t-2 -15.5t-2 -29v-52.5t2 -37.5q0 -6 1 -11t1 -9v-8q0 -14 -6 -45 q-2 -8 -2 -15l4 -53q-4 -41 -5 -48t-1 -11q0 -8 1 -17.5t11 -54.5l-2 -12l-2 -31v-26.5t-2 -22.5q4 -37 8 -72t4 -47q0 -2 -1 -9t-3 -18q-2 -10 -2 -19v-18q0 -8 1 -25.5t3 -38t5 -41t5 -32.5q2 -10 3.5 -19t1.5 -18q0 -66 -78 -65h-14.5t-39.5 4q-6 2 -26 2h-11.5t-17.5 -2 h-33q-80 0 -79 94v17.5t1 16.5t4 24.5t7 41.5q2 6 2 21v18q-4 35 -6 59.5t-2 28.5v15l4 67v17.5t1 16.5t2 23.5t3 41.5l-10 192l8 176q-2 29 -3 46.5t-1 33t-1 33.5t-3 49q0 4 1 13.5t3 23.5t3 25.5t1 21.5v9t-2 16q-2 6 -6 39.5t-11 95.5zM182 1524q0 14 4 24.5t25 40.5 q10 16 17.5 32.5t11.5 33.5q10 35 20 45t35 10h20q16 -2 28.5 -3t16.5 -1h7.5t15.5 2l61 2q29 0 45.5 -11t16.5 -30q0 -12 -2 -20.5t-11.5 -18.5t-28 -25.5t-48.5 -41.5q-10 -10 -20.5 -21.5t-20.5 -23.5q-25 -27 -33 -33t-20 -6h-9.5t-29.5 4h-10.5t-22.5 -2h-10 q-57 0 -58 43z" />
<glyph unicode="&#xce;" horiz-adv-x="514" d="M39 1505q0 18 10 33.5t41 44.5q10 10 17.5 20.5t21.5 32.5q23 37 41 51.5t47 14.5h12.5t18.5 -2h18h17q10 2 17 2h11q20 0 34.5 -12.5t31.5 -42.5q12 -20 19 -32.5t14.5 -22t17.5 -18.5t27 -24q18 -16 18 -39q0 -14 -10 -24t-27 -10h-18q-8 2 -15.5 2h-11.5h-24 q-8 -2 -13.5 -2h-9.5q-23 0 -33 14l-32 47q-14 16 -19.5 21.5t-15.5 5.5q-14 0 -20.5 -10.5t-18.5 -47.5q-10 -33 -41 -32h-9t-12 2q-10 2 -18 3t-12 1h-17q-8 -2 -22 -2q-35 0 -35 26zM104 1272q0 100 86 100q23 0 31 -2t19 -2q4 0 8 -2l76 6q4 0 19 -9t24 -13 q27 -23 26 -58q0 -10 -1 -22.5t-3 -24.5q-2 -14 -2 -18t-2 -21q0 -4 -1 -15t-3 -30l4 -51l-4 -41l2 -37l-2 -39l6 -73v-7.5t-2 -15.5t-2 -29v-52.5t2 -37.5q0 -6 1 -11t1 -9v-8q0 -14 -6 -45q-2 -8 -2 -15l4 -53q-4 -41 -5 -48t-1 -11q0 -8 1 -17.5t11 -54.5l-2 -12l-2 -31 v-26.5t-2 -22.5q4 -37 8 -72t4 -47q0 -2 -1 -9t-3 -18q-2 -10 -2 -19v-18q0 -8 1 -25.5t3 -38t5 -41t5 -32.5q2 -10 3.5 -19t1.5 -18q0 -66 -78 -65h-14.5t-39.5 4q-6 2 -26 2h-11.5t-17.5 -2h-33q-80 0 -79 94v17.5t1 16.5t4 24.5t7 41.5q2 6 2 21v18q-4 35 -6 59.5 t-2 28.5v15l4 67v17.5t1 16.5t2 23.5t3 41.5l-10 192l8 176q-2 29 -3 46.5t-1 33t-1 33.5t-3 49q0 4 1 13.5t3 23.5t3 25.5t1 21.5v9t-2 16q-2 6 -6 39.5t-11 95.5z" />
<glyph unicode="&#xcf;" horiz-adv-x="514" d="M-20 1673q0 47 51 47h16t19 -2h16h12t39 4h12q47 0 64 -18q4 -4 10 -21.5t6 -25.5l-4 -82q0 -8 2 -19q2 -10 2 -17v-15q0 -27 -9 -36t-34 -9h-13t-15 2h-27l-47 -2q-6 -2 -13.5 -2h-13.5q-31 0 -49 13t-18 38v12t2 16v29q0 12 -1 23.5t-3 29.5q-2 10 -3 18.5t-1 16.5z M104 1272q0 100 86 100q23 0 31 -2t19 -2q4 0 8 -2l76 6q4 0 19 -9t24 -13q27 -23 26 -58q0 -10 -1 -22.5t-3 -24.5q-2 -14 -2 -18t-2 -21q0 -4 -1 -15t-3 -30l4 -51l-4 -41l2 -37l-2 -39l6 -73v-7.5t-2 -15.5t-2 -29v-52.5t2 -37.5q0 -6 1 -11t1 -9v-8q0 -14 -6 -45 q-2 -8 -2 -15l4 -53q-4 -41 -5 -48t-1 -11q0 -8 1 -17.5t11 -54.5l-2 -12l-2 -31v-26.5t-2 -22.5q4 -37 8 -72t4 -47q0 -2 -1 -9t-3 -18q-2 -10 -2 -19v-18q0 -8 1 -25.5t3 -38t5 -41t5 -32.5q2 -10 3.5 -19t1.5 -18q0 -66 -78 -65h-14.5t-39.5 4q-6 2 -26 2h-11.5t-17.5 -2 h-33q-80 0 -79 94v17.5t1 16.5t4 24.5t7 41.5q2 6 2 21v18q-4 35 -6 59.5t-2 28.5v15l4 67v17.5t1 16.5t2 23.5t3 41.5l-10 192l8 176q-2 29 -3 46.5t-1 33t-1 33.5t-3 49q0 4 1 13.5t3 23.5t3 25.5t1 21.5v9t-2 16q-2 6 -6 39.5t-11 95.5zM285 1655q0 66 71 65h17 q18 -2 30.5 -3t14.5 -1h9t17 2q8 2 23 2q61 0 61 -69v-9.5t-2 -27.5l6 -39q2 -12 3.5 -23.5t1.5 -21.5q0 -29 -15.5 -39t-52.5 -10h-57q-10 2 -21 2l-67 -6q-10 2 -22.5 22.5t-12.5 30.5l4 72q-2 2 -2 6t-1 6t-1 6q-2 10 -3 17.5t-1 17.5z" />
<glyph unicode="&#xd0;" horiz-adv-x="1308" d="M-18 672q0 53 26 90q6 8 10.5 12t16.5 6t34.5 2h65.5q25 0 34 7.5t9 27.5v19.5t-2 19.5q-6 49 -6 80l2 63q2 16 2 28.5v29.5q0 39 -1 66.5t-3 49t-6 41t-10 41.5q-2 8 -2 25q0 92 112 92q16 0 25 -2q12 -2 23.5 -2h19.5t18 -2l66 6l51 -6q2 0 15.5 1t33.5 3h19 q16 0 49.5 -4t71.5 -11t72 -14.5t52 -13.5t48 -19.5t61 -28.5t59.5 -31.5t46.5 -28.5q49 -33 93.5 -85.5t72.5 -105.5q31 -63 47.5 -98t25.5 -55.5t11 -35t6 -34.5q8 -66 12.5 -103.5t4.5 -48.5q0 -139 -35 -235q-31 -84 -41 -101q-25 -45 -47.5 -76.5t-49 -58t-61.5 -51.5 t-86 -55q-25 -16 -41 -25.5t-29.5 -15.5t-27.5 -10.5t-33 -10.5q-41 -12 -76.5 -19t-54.5 -7l-147 6l-64 -4q-4 0 -10 1t-16 3q-29 6 -35 6l-185 -8q-10 0 -29.5 19.5t-23.5 35.5t-5 40t-1 77q0 2 1 11t5 58q-4 27 -6 42.5t-3 23.5t-1 13v14q0 43 3 87t7 58q0 4 1 7t1 5t2 4 q-4 33 -5 52.5t-3 29.5q0 25 -20 25l-43 -2l-29 4l-37 -2q-27 0 -44 21.5t-17 56.5zM428 1067q0 -4 2 -18q4 -10 4 -25.5v-32.5v-19t4 -22q2 -10 2 -21v-22v-18q-2 -29 -3 -47.5t-1 -22.5q0 -16 9.5 -28.5t23.5 -12.5q6 0 14 2q8 0 18.5 1t22.5 3l19 2h55l33 2 q18 2 34.5 2.5t26.5 2.5q12 0 25 2q43 0 69.5 -35t26.5 -88q0 -43 -27 -56q-14 -6 -51 -13t-55 -7q-2 0 -10 1t-21 3q-14 2 -40.5 3t-43.5 1h-24.5t-26.5 -2l-29 -4q-41 -2 -43 -25l-4 -53l-4 -51l8 -74v-8t-2 -16t-2 -43q0 -41 9.5 -58.5t35.5 -25.5q4 0 22.5 -3t40 -5.5 t40 -4.5t24.5 -2q18 0 47 6.5t60 16.5t57.5 22.5t42.5 24.5q31 20 50.5 37.5t33.5 37t25.5 45t25.5 62.5q14 39 23.5 65.5t14.5 45t7 32t2 25.5q0 20 -6 65.5t-14 80.5q-2 8 -6 17t-25 52q-8 14 -13 27.5t-9 28.5q-12 33 -18.5 44t-20.5 23q-23 20 -40.5 37.5t-39.5 40.5 q-16 8 -56 21.5t-79 23.5q-35 6 -54 12q-31 12 -36 13l-43 -2l-56 2q-55 0 -55 -58v-10z" />
<glyph unicode="&#xd1;" horiz-adv-x="1220" d="M92 1298q0 29 20.5 51.5t47.5 22.5q14 0 22 -2q29 -4 48.5 -5t23.5 -1t13 1t24 3q8 2 15 2h13q23 0 51.5 -14.5t43.5 -32.5q18 -23 32.5 -51.5t36.5 -79.5l15 -27l20 -30l12 -27l5 -12q4 -14 7 -22.5t7 -14.5t10 -14.5t19 -22.5q14 -16 24 -32.5t21 -33.5l55 -110l12 -29 l33 -35q4 -8 8 -14l8 -12q14 -29 20.5 -40t22.5 -34q4 -6 7.5 -11t17.5 -32q16 -29 28.5 -46.5t16.5 -17.5q10 0 10 29l-10 160v35q2 29 2 60.5v51.5v24.5v22t-1 27.5t-1 41v51v37q2 16 2 27.5v15.5v11.5t-1 12.5t-4 20t-7 36q-2 10 -3 20.5t-1 20.5q0 84 90 86l61 6 q10 2 21.5 2h21.5q41 0 63.5 -30.5t22.5 -86.5v-14t-1 -23.5t-4 -52.5t-7 -96q-2 -14 -2 -23.5v-13.5q0 -14 6 -57q4 -31 6 -59.5t2 -57.5q0 -10 -1 -28.5t-2 -38t-2 -37t-1 -25.5q-2 -23 -3 -37t-1 -16t1 -25.5t5 -62.5q2 -10 2 -19.5v-19.5v-21.5t-2 -21.5q-6 -84 -6 -105 v-13t2 -19q6 -49 6 -66v-12t-2 -19v-51v-23.5t1 -18.5t3 -22.5t6 -33.5q6 -31 6 -57q0 -41 -16 -57.5t-57 -16.5h-8h-37q-16 -2 -33.5 -2h-34.5q-33 0 -51.5 8t-38.5 33q-6 8 -11 15t-11.5 20.5t-16.5 38t-29 67.5q-12 27 -20 44t-17.5 32.5t-22.5 34t-34 47.5 q-16 23 -39.5 63.5t-42.5 75.5l-12 27q-10 16 -21.5 32.5t-23.5 32.5l-6 8l-6 11q-8 12 -22.5 40.5t-35.5 73.5l-28 43l-17 19q-14 23 -30 39q-6 12 -13 12q-14 0 -10 -23q4 -31 5 -61.5t1 -52.5q0 -10 -2 -17l-3 -24t-1 -11q0 -2 2 -15t6 -34q2 -6 2 -14l-8 -92l10 -94v-4 q0 -2 -1 -5.5t-1 -7.5q0 -6 -1 -11t-1 -14.5t-1 -26.5t-3 -48q0 -18 1 -33.5t2 -36t4 -48.5t10 -68v-15q0 -25 -15.5 -41t-40.5 -16h-12t-19 2q-8 2 -22 2h-11t-42 -4q-8 -2 -17 -2q-35 0 -48 4t-27 14q-37 31 -37 88q0 33 10 84q4 16 6 29.5t2 19.5q0 2 -1 11.5t-3 25.5 q0 8 -1 25.5t-2 37l-2 39t-1 31.5q0 10 1 15.5t5 32.5q0 25 -1 51t-2 48.5t-2 40t-1 21.5v18.5t4 45.5l-6 211q2 37 12 129l-6 59q4 35 4 41v10q0 16 -7 46t-18 65q-14 37 -14 63zM332 1559q0 35 7 53t30 45q23 29 47 39t61 10q47 0 91 -9t79 -28q35 -18 46.5 -22.5 t27.5 -4.5q18 0 26.5 5.5t14.5 21.5q10 25 24 25q4 0 10.5 -1t16.5 -3l21 -2q33 0 44 -10.5t11 -39.5q0 -74 -35 -116q-10 -14 -39 -27.5t-47 -13.5q-16 0 -41 4t-50.5 9t-49 11t-35.5 13q-51 27 -92 26q-16 0 -23.5 -5t-17.5 -21q-14 -25 -35 -25h-12l-29 4q-33 0 -42 10.5 t-9 51.5z" />
<glyph unicode="&#xd2;" horiz-adv-x="1470" d="M41 721q0 33 5 70.5t13.5 75.5t19.5 73t25 64q102 213 240 292q51 31 76.5 41.5t62.5 20.5q8 2 18.5 6t26.5 8q35 10 54.5 15.5t34 8.5t27.5 3h36q68 0 124 -4t87 -15q104 -29 170.5 -58.5t120.5 -74.5q2 -2 19.5 -23.5t49.5 -62.5q12 -14 29.5 -40.5t35 -55.5t32 -57.5 t22.5 -46.5q33 -82 37 -97q10 -47 16.5 -89t6.5 -66q0 -20 -7 -47l-4 -19v-43l-12 -76q-10 -49 -21 -84q-2 -41 -32.5 -103.5t-77.5 -121.5q-27 -31 -51 -70q-10 -12 -16.5 -19t-15.5 -15.5t-24.5 -18.5t-42.5 -29q-29 -18 -45 -29t-28.5 -17.5t-25.5 -9.5t-34 -9 q-23 -6 -51.5 -11t-58 -9.5t-58 -6.5t-47.5 -2q-70 0 -120 3t-93 10.5t-85 21.5t-93 37q-31 12 -66.5 36.5t-69.5 53.5t-60.5 56.5t-34.5 48.5q-16 33 -37 73q-6 10 -15.5 34t-18.5 51.5t-16.5 56t-11.5 51.5q-2 16 -5 44.5t-5 60.5t-4 62.5t-2 51.5zM309 662 q6 -55 10.5 -87t8.5 -53.5t9 -40t15 -49.5q6 -16 20.5 -38.5t34 -46t41 -46t39.5 -37.5q45 -35 99.5 -50t132.5 -15q37 0 61.5 1t45 6t38 13t41.5 21q37 20 58.5 33.5t35 23.5t23.5 23.5t27 35.5q18 27 23 37t15 41q2 10 3.5 14.5t9.5 20.5q6 18 13 45t13.5 55.5t10.5 53 t4 41.5q0 33 -6 73l-11 64l-4 49l-10 24q-4 12 -9 24.5t-9 23.5q-12 37 -66 108q-59 74 -149 103q-12 2 -37 12q-51 23 -113 22q-59 0 -134 -25.5t-130 -66.5q-10 -8 -18.5 -15t-17.5 -20.5t-22.5 -36t-35.5 -61.5q-2 -4 -9.5 -21.5t-14.5 -38t-13 -40t-8 -25.5 q0 -4 -4.5 -43t-10.5 -112zM494 1675q0 16 12 25.5t31 9.5h10t37 -2q6 -2 13 -2h11h14.5t24.5 4q10 2 18.5 2h16.5q31 0 47 -15.5t43 -66.5q20 -41 31.5 -70.5t11.5 -46.5q0 -41 -41 -40q-12 0 -22 2q-6 2 -11.5 2h-9.5q-10 0 -18 -2h-19q-18 0 -30.5 8t-28.5 30 q-14 23 -21.5 31t-17.5 17q-8 6 -17.5 15t-19.5 19l-49 43q-16 16 -16 37z" />
<glyph unicode="&#xd3;" horiz-adv-x="1470" d="M41 721q0 33 5 70.5t13.5 75.5t19.5 73t25 64q102 213 240 292q51 31 76.5 41.5t62.5 20.5q8 2 18.5 6t26.5 8q35 10 54.5 15.5t34 8.5t27.5 3h36q68 0 124 -4t87 -15q104 -29 170.5 -58.5t120.5 -74.5q2 -2 19.5 -23.5t49.5 -62.5q12 -14 29.5 -40.5t35 -55.5t32 -57.5 t22.5 -46.5q33 -82 37 -97q10 -47 16.5 -89t6.5 -66q0 -20 -7 -47l-4 -19v-43l-12 -76q-10 -49 -21 -84q-2 -41 -32.5 -103.5t-77.5 -121.5q-27 -31 -51 -70q-10 -12 -16.5 -19t-15.5 -15.5t-24.5 -18.5t-42.5 -29q-29 -18 -45 -29t-28.5 -17.5t-25.5 -9.5t-34 -9 q-23 -6 -51.5 -11t-58 -9.5t-58 -6.5t-47.5 -2q-70 0 -120 3t-93 10.5t-85 21.5t-93 37q-31 12 -66.5 36.5t-69.5 53.5t-60.5 56.5t-34.5 48.5q-16 33 -37 73q-6 10 -15.5 34t-18.5 51.5t-16.5 56t-11.5 51.5q-2 16 -5 44.5t-5 60.5t-4 62.5t-2 51.5zM309 662 q6 -55 10.5 -87t8.5 -53.5t9 -40t15 -49.5q6 -16 20.5 -38.5t34 -46t41 -46t39.5 -37.5q45 -35 99.5 -50t132.5 -15q37 0 61.5 1t45 6t38 13t41.5 21q37 20 58.5 33.5t35 23.5t23.5 23.5t27 35.5q18 27 23 37t15 41q2 10 3.5 14.5t9.5 20.5q6 18 13 45t13.5 55.5t10.5 53 t4 41.5q0 33 -6 73l-11 64l-4 49l-10 24q-4 12 -9 24.5t-9 23.5q-12 37 -66 108q-59 74 -149 103q-12 2 -37 12q-51 23 -113 22q-59 0 -134 -25.5t-130 -66.5q-10 -8 -18.5 -15t-17.5 -20.5t-22.5 -36t-35.5 -61.5q-2 -4 -9.5 -21.5t-14.5 -38t-13 -40t-8 -25.5 q0 -4 -4.5 -43t-10.5 -112zM662 1524q0 14 4 24.5t24 40.5q10 16 17.5 32.5t11.5 33.5q10 35 20.5 45t34.5 10h21q16 -2 28.5 -3t16.5 -1h7t15 2l62 2q29 0 45 -11t16 -30q0 -12 -2 -20.5t-11 -18.5t-27.5 -25.5t-49.5 -41.5q-10 -10 -20.5 -21.5t-20.5 -23.5 q-25 -27 -33 -33t-20 -6h-9.5t-29.5 4h-10.5t-22.5 -2h-10q-57 0 -57 43z" />
<glyph unicode="&#xd4;" horiz-adv-x="1470" d="M41 721q0 33 5 70.5t13.5 75.5t19.5 73t25 64q102 213 240 292q51 31 76.5 41.5t62.5 20.5q8 2 18.5 6t26.5 8q35 10 54.5 15.5t34 8.5t27.5 3h36q68 0 124 -4t87 -15q104 -29 170.5 -58.5t120.5 -74.5q2 -2 19.5 -23.5t49.5 -62.5q12 -14 29.5 -40.5t35 -55.5t32 -57.5 t22.5 -46.5q33 -82 37 -97q10 -47 16.5 -89t6.5 -66q0 -20 -7 -47l-4 -19v-43l-12 -76q-10 -49 -21 -84q-2 -41 -32.5 -103.5t-77.5 -121.5q-27 -31 -51 -70q-10 -12 -16.5 -19t-15.5 -15.5t-24.5 -18.5t-42.5 -29q-29 -18 -45 -29t-28.5 -17.5t-25.5 -9.5t-34 -9 q-23 -6 -51.5 -11t-58 -9.5t-58 -6.5t-47.5 -2q-70 0 -120 3t-93 10.5t-85 21.5t-93 37q-31 12 -66.5 36.5t-69.5 53.5t-60.5 56.5t-34.5 48.5q-16 33 -37 73q-6 10 -15.5 34t-18.5 51.5t-16.5 56t-11.5 51.5q-2 16 -5 44.5t-5 60.5t-4 62.5t-2 51.5zM309 662 q6 -55 10.5 -87t8.5 -53.5t9 -40t15 -49.5q6 -16 20.5 -38.5t34 -46t41 -46t39.5 -37.5q45 -35 99.5 -50t132.5 -15q37 0 61.5 1t45 6t38 13t41.5 21q37 20 58.5 33.5t35 23.5t23.5 23.5t27 35.5q18 27 23 37t15 41q2 10 3.5 14.5t9.5 20.5q6 18 13 45t13.5 55.5t10.5 53 t4 41.5q0 33 -6 73l-11 64l-4 49l-10 24q-4 12 -9 24.5t-9 23.5q-12 37 -66 108q-59 74 -149 103q-12 2 -37 12q-51 23 -113 22q-59 0 -134 -25.5t-130 -66.5q-10 -8 -18.5 -15t-17.5 -20.5t-22.5 -36t-35.5 -61.5q-2 -4 -9.5 -21.5t-14.5 -38t-13 -40t-8 -25.5 q0 -4 -4.5 -43t-10.5 -112zM518 1505q0 18 10.5 33.5t40.5 44.5q10 10 17.5 20.5t21.5 32.5q23 37 41.5 51.5t46.5 14.5h12.5t18.5 -2h18h17q10 2 17 2h12q20 0 34.5 -12.5t30.5 -42.5l19.5 -32.5t14.5 -22t17.5 -18.5t26.5 -24q18 -16 18 -39q0 -14 -10 -24t-27 -10h-18 q-8 2 -15.5 2h-11.5h-24q-8 -2 -13.5 -2h-9.5q-23 0 -32 14l-33 47q-14 16 -19.5 21.5t-15.5 5.5q-14 0 -20.5 -10.5t-18.5 -47.5q-10 -33 -41 -32h-9t-11 2q-10 2 -18.5 3t-12.5 1h-17q-8 -2 -22 -2q-35 0 -35 26z" />
<glyph unicode="&#xd5;" horiz-adv-x="1470" d="M41 721q0 33 5 70.5t13.5 75.5t19.5 73t25 64q102 213 240 292q51 31 76.5 41.5t62.5 20.5q8 2 18.5 6t26.5 8q35 10 54.5 15.5t34 8.5t27.5 3h36q68 0 124 -4t87 -15q104 -29 170.5 -58.5t120.5 -74.5q2 -2 19.5 -23.5t49.5 -62.5q12 -14 29.5 -40.5t35 -55.5t32 -57.5 t22.5 -46.5q33 -82 37 -97q10 -47 16.5 -89t6.5 -66q0 -20 -7 -47l-4 -19v-43l-12 -76q-10 -49 -21 -84q-2 -41 -32.5 -103.5t-77.5 -121.5q-27 -31 -51 -70q-10 -12 -16.5 -19t-15.5 -15.5t-24.5 -18.5t-42.5 -29q-29 -18 -45 -29t-28.5 -17.5t-25.5 -9.5t-34 -9 q-23 -6 -51.5 -11t-58 -9.5t-58 -6.5t-47.5 -2q-70 0 -120 3t-93 10.5t-85 21.5t-93 37q-31 12 -66.5 36.5t-69.5 53.5t-60.5 56.5t-34.5 48.5q-16 33 -37 73q-6 10 -15.5 34t-18.5 51.5t-16.5 56t-11.5 51.5q-2 16 -5 44.5t-5 60.5t-4 62.5t-2 51.5zM309 662 q6 -55 10.5 -87t8.5 -53.5t9 -40t15 -49.5q6 -16 20.5 -38.5t34 -46t41 -46t39.5 -37.5q45 -35 99.5 -50t132.5 -15q37 0 61.5 1t45 6t38 13t41.5 21q37 20 58.5 33.5t35 23.5t23.5 23.5t27 35.5q18 27 23 37t15 41q2 10 3.5 14.5t9.5 20.5q6 18 13 45t13.5 55.5t10.5 53 t4 41.5q0 33 -6 73l-11 64l-4 49l-10 24q-4 12 -9 24.5t-9 23.5q-12 37 -66 108q-59 74 -149 103q-12 2 -37 12q-51 23 -113 22q-59 0 -134 -25.5t-130 -66.5q-10 -8 -18.5 -15t-17.5 -20.5t-22.5 -36t-35.5 -61.5q-2 -4 -9.5 -21.5t-14.5 -38t-13 -40t-8 -25.5 q0 -4 -4.5 -43t-10.5 -112zM457 1559q0 35 7 53t30 45q23 29 47 39t61 10q47 0 91 -9t79 -28q35 -18 46 -22.5t28 -4.5q18 0 26.5 5.5t14.5 21.5q10 25 24 25q4 0 10.5 -1t16.5 -3l20 -2q33 0 44.5 -10.5t11.5 -39.5q0 -74 -35 -116q-10 -14 -39 -27.5t-47 -13.5 q-16 0 -41 4t-50.5 9t-49 11t-35.5 13q-51 27 -92 26q-16 0 -23.5 -5t-17.5 -21q-14 -25 -35 -25h-12l-29 4q-33 0 -42 10.5t-9 51.5z" />
<glyph unicode="&#xd6;" horiz-adv-x="1470" d="M41 721q0 33 5 70.5t13.5 75.5t19.5 73t25 64q102 213 240 292q51 31 76.5 41.5t62.5 20.5q8 2 18.5 6t26.5 8q35 10 54.5 15.5t34 8.5t27.5 3h36q68 0 124 -4t87 -15q104 -29 170.5 -58.5t120.5 -74.5q2 -2 19.5 -23.5t49.5 -62.5q12 -14 29.5 -40.5t35 -55.5t32 -57.5 t22.5 -46.5q33 -82 37 -97q10 -47 16.5 -89t6.5 -66q0 -20 -7 -47l-4 -19v-43l-12 -76q-10 -49 -21 -84q-2 -41 -32.5 -103.5t-77.5 -121.5q-27 -31 -51 -70q-10 -12 -16.5 -19t-15.5 -15.5t-24.5 -18.5t-42.5 -29q-29 -18 -45 -29t-28.5 -17.5t-25.5 -9.5t-34 -9 q-23 -6 -51.5 -11t-58 -9.5t-58 -6.5t-47.5 -2q-70 0 -120 3t-93 10.5t-85 21.5t-93 37q-31 12 -66.5 36.5t-69.5 53.5t-60.5 56.5t-34.5 48.5q-16 33 -37 73q-6 10 -15.5 34t-18.5 51.5t-16.5 56t-11.5 51.5q-2 16 -5 44.5t-5 60.5t-4 62.5t-2 51.5zM309 662 q6 -55 10.5 -87t8.5 -53.5t9 -40t15 -49.5q6 -16 20.5 -38.5t34 -46t41 -46t39.5 -37.5q45 -35 99.5 -50t132.5 -15q37 0 61.5 1t45 6t38 13t41.5 21q37 20 58.5 33.5t35 23.5t23.5 23.5t27 35.5q18 27 23 37t15 41q2 10 3.5 14.5t9.5 20.5q6 18 13 45t13.5 55.5t10.5 53 t4 41.5q0 33 -6 73l-11 64l-4 49l-10 24q-4 12 -9 24.5t-9 23.5q-12 37 -66 108q-59 74 -149 103q-12 2 -37 12q-51 23 -113 22q-59 0 -134 -25.5t-130 -66.5q-10 -8 -18.5 -15t-17.5 -20.5t-22.5 -36t-35.5 -61.5q-2 -4 -9.5 -21.5t-14.5 -38t-13 -40t-8 -25.5 q0 -4 -4.5 -43t-10.5 -112zM442 1673q0 47 52 47h16t18 -2h17h12t39 4h12q47 0 64 -18q4 -4 10 -21.5t6 -25.5l-4 -82q0 -8 2 -19q2 -10 2 -17v-15q0 -27 -9 -36t-34 -9h-13t-16 2h-26l-47 -2q-6 -2 -13.5 -2h-13.5q-31 0 -49 13t-18 38v12t2 16v29q0 12 -1 23.5t-4 29.5 q-2 10 -3 18.5t-1 16.5zM780 1655q0 66 72 65h16q18 -2 30.5 -3t14.5 -1h9.5t17.5 2q8 2 23 2q61 0 61 -69v-9.5t-2 -27.5l6 -39q2 -12 3 -23.5t1 -21.5q0 -29 -15.5 -39t-51.5 -10h-58q-10 2 -20 2l-68 -6q-10 2 -22.5 22.5t-12.5 30.5l4 72q-2 2 -2 6t-1 6t-1 6 q-2 10 -3 17.5t-1 17.5z" />
<glyph unicode="&#xd7;" d="M76 422q0 6 7 14t48 53l22.5 22.5t30.5 29.5q4 4 35 33.5t90 89.5q20 23 21 34q0 6 -7.5 14.5t-48.5 51.5l-32.5 32.5l-20.5 20.5t-16 15.5t-21 19.5q-14 12 -22 19.5t-16.5 15.5t-19.5 20.5t-30 32.5q-12 14 -16 20.5t-4 12.5q0 8 21.5 32.5t52.5 55.5q31 27 47 42 l24 22.5t11.5 8.5t7.5 1q8 0 23.5 -13.5t60.5 -60.5q14 -16 23 -24.5t17.5 -16.5t19.5 -18.5t30 -26.5q0 -4 67 -74q25 -20 35 -20t31 20l49 57l57 48l52 55q29 33 52 53.5t34 20.5q6 0 10 -3.5t16 -13.5q8 -8 25.5 -24.5t36 -35t35 -34.5t22.5 -25q16 -20 16 -28 q0 -6 -7 -14.5t-48 -53.5q-12 -14 -18.5 -20t-34.5 -31l-125 -123q-20 -20 -21 -35q0 -10 59.5 -71.5t174.5 -169.5q20 -20 20 -33q0 -8 -22.5 -35t-51 -54.5t-55 -50t-35.5 -22.5q-10 0 -30 21q-25 27 -37 43q-8 8 -12 14q-25 20 -39.5 31.5t-25.5 20.5t-20.5 19.5 t-25.5 28.5q-63 76 -86 76q-6 0 -14.5 -7t-53.5 -48q-12 -12 -18 -19.5t-33 -34.5q-12 -14 -16 -18t-19 -16q-14 -12 -22 -19.5t-16.5 -16.5t-19.5 -21.5t-30 -32.5q-20 -20 -32 -21q-4 0 -10.5 3t-16.5 13l-27.5 27.5t-36 35t-34 34t-21.5 22.5q-16 20 -16 29z" />
<glyph unicode="&#xd8;" horiz-adv-x="1472" d="M41 709v49q0 12 1 21t5 26.5t11.5 46.5t21.5 80q10 43 38.5 96t65.5 107q6 8 13.5 16t13.5 18q14 20 25.5 35t23.5 26t28.5 22.5t41.5 27.5q18 12 27.5 18.5t17.5 10.5l14 7t19 7q6 2 38 18q2 2 117 39q45 14 115 15q49 0 87 -1t68.5 -5.5t56 -10.5t54.5 -14 q113 -35 156 -66q23 -16 33 -16q12 0 28 21q23 29 36 36t42 7q35 0 68 -31q27 -23 31.5 -32t4.5 -28q0 -37 -11 -57t-48 -55q-6 -4 -6 -13q0 -16 18 -36q16 -20 30.5 -45t31.5 -60q2 -4 10 -21.5t16.5 -38t15.5 -36.5t7 -19q2 -10 7 -33.5t9 -49t6.5 -49t2.5 -29.5 q-6 -76 -10.5 -118t-6.5 -52q-2 -8 -3 -13.5t-2 -12.5t-4 -18.5t-7 -31.5t-6 -26.5t-7 -28.5q-4 -16 -5 -23.5t-7 -17.5q-18 -35 -30.5 -58.5t-20.5 -40.5q-10 -16 -17.5 -26t-29.5 -39q-8 -10 -15.5 -18.5t-13.5 -18.5q-14 -20 -23.5 -33.5t-21.5 -24t-28.5 -22.5 t-43.5 -31q-29 -18 -46 -28.5t-34.5 -17.5t-43 -14t-68.5 -17q-8 -2 -33.5 -5.5t-58.5 -5.5t-69 -3t-62 -1q-35 0 -89.5 5t-101.5 16q-23 4 -50.5 13t-56 21.5t-54 25.5t-41.5 26q-16 12 -23 12q-10 0 -14 -6t-27 -41q-6 -10 -27.5 -19.5t-40.5 -9.5q-41 0 -73.5 34 t-32.5 75q0 20 7 32.5t48 53.5q10 10 11 24q0 16 -17 50q-16 29 -29.5 62.5t-23.5 70.5q-10 31 -11 38t-3 11q-4 10 -8.5 47t-12.5 98l-2 47zM309 621.5q0 -7.5 2 -20.5t7.5 -36.5t13.5 -64.5q12 -55 30 -56q6 0 27 21q12 18 29 35q8 8 8 7t8 7q6 4 11.5 9t13.5 9 q10 10 16 18.5t14 18.5q6 10 11.5 17.5t21.5 23.5q35 37 60.5 66t46.5 49q18 23 26 27l27 34q12 14 26.5 27.5t30.5 26.5q10 8 18.5 16t18.5 14q4 4 7 7.5t8.5 9.5t15.5 18.5t29 34.5q25 31 48 57.5t56 61.5q14 18 14 22q0 12 -25.5 26.5t-60.5 22.5q-4 2 -13 5.5t-26 9.5 q-23 10 -44 13t-58 3q-53 0 -118.5 -19.5t-112.5 -47.5q-47 -29 -75 -69t-63 -128q-10 -27 -16 -42t-9 -23.5t-4 -13.5t-3 -11q-2 -14 -5.5 -39t-5.5 -49.5t-4 -46t-2 -31.5v-19.5zM485 276q0 -14 21.5 -28.5t54.5 -26.5t73 -19t79 -7q37 0 64.5 2t50 7t44 14t46.5 24 q25 14 41 24t28 19.5t23.5 20.5t25.5 26q10 12 15.5 19t10.5 15.5t10 21.5t13 36l9 25q8 23 17 51t17.5 57t12.5 53.5t4 36.5t-1 30.5t-3 39t-4 38t-4 25.5l-7 35l-4 37l-10 22q-4 10 -6 17.5t-6 15.5q-10 27 -17 27q-2 0 -12 -10t-20.5 -18.5t-22.5 -18.5l-22.5 -22.5 t-18.5 -22.5q-12 -18 -22.5 -30.5t-20.5 -23.5l-63 -67q-18 -14 -54 -62q-4 -8 -14 -20t-41 -41q-10 -8 -17 -16.5t-16 -18.5l-45 -51l-24 -23q-23 -20 -29 -26t-16 -21q-33 -41 -50 -53q-10 -10 -19 -20.5t-17 -20.5l-19 -18q-20 -18 -27.5 -29.5t-7.5 -24.5z" />
<glyph unicode="&#xd9;" horiz-adv-x="1075" d="M92 1292q0 35 17.5 59.5t44.5 24.5q14 0 23 -1t46 -9q6 -2 17 -2q8 0 28 4q14 2 25.5 3t21.5 1q47 0 64 -47q12 -35 12 -53v-10.5t-2 -12.5t-6 -22.5t-10 -40.5q-6 -23 -6 -35q0 -2 1 -12.5t3 -26.5q2 -10 2 -43v-24.5t-4 -34.5l8 -88q-4 -35 -5 -45.5t-1 -30.5l8 -213 q-2 -18 -3 -29.5t-2 -20t-1 -17.5v-23v-18.5t2 -16.5l-8 -102q4 -43 6 -67t4 -36t5 -18t9 -15q20 -29 65.5 -47t90.5 -18q49 0 88 21.5t61 62.5q8 14 10.5 23.5t6.5 45.5q6 57 6 64q0 8 -2 16q-4 29 -6 54.5t-2 48.5q0 10 1 21t3 24q0 4 1 6t1 4v4q-4 41 -6 63.5t-3 33 t-1 14.5v8v31q0 12 1 22t1 19q0 8 2 18q0 8 -1 31.5t-3 46.5t-3.5 38t-1.5 25q0 31 7 74q4 27 5 36t1 21q0 18 -2 32.5t-6 45.5t-7.5 54.5t-3.5 33.5q0 125 80 125q16 0 22.5 -1t30.5 -7q8 -2 25 -2q16 0 27 2q59 12 82.5 -5.5t23.5 -72.5q0 -10 -2 -42t-6 -48q-2 -6 -2 -16 q0 -4 -2 -6q2 -37 3 -58.5t1 -38t-3 -33t-7 -43.5v-10v-9t2 -9q6 -31 6 -37q-2 -4 -2 -12q0 -6 -1 -13.5t-1 -17.5v-39l4 -33q-2 -16 -4 -38.5t-2 -51.5q-2 -12 -1 -35.5t3 -54.5q2 -10 2 -18.5v-14.5v-11t-2 -17v-25l2 -102q-6 -82 -11.5 -134.5t-13.5 -87t-21.5 -60.5 t-33.5 -52q-23 -31 -58.5 -57.5t-77.5 -46t-87 -32t-86 -12.5l-95 4q-84 0 -182 43q-35 16 -57.5 29.5t-39.5 31t-32.5 42t-34.5 61.5q-10 18 -16 37t-9 41.5t-4 53t-1 77.5l-2 31q-6 51 -7 76v14t2 23q2 16 3.5 26t1.5 19.5v20.5v30q0 12 1 23.5t5 66.5q-4 27 -6 41 t-3.5 22.5t-1.5 11.5v7l3 65l-3 84q2 31 3.5 47.5t2.5 30.5t1 28.5v39.5v25.5t-1 18.5t-3.5 20.5t-4.5 29.5q-2 16 -3 24.5t-5 38.5q-2 12 -3 21.5t-1 15.5zM295 1675q0 16 12 25.5t31 9.5h10t37 -2q6 -2 13.5 -2h11.5h14t25 4q10 2 18 2h16q31 0 47.5 -15.5t42.5 -66.5 q20 -41 31.5 -70.5t11.5 -46.5q0 -41 -41 -40q-12 0 -22 2q-6 2 -11 2h-10q-10 0 -18 -2h-18q-18 0 -30.5 8t-29.5 30q-14 23 -21 31t-18 17q-8 6 -17 15t-20 19l-49 43q-16 16 -16 37z" />
<glyph unicode="&#xda;" horiz-adv-x="1075" d="M92 1292q0 35 17.5 59.5t44.5 24.5q14 0 23 -1t46 -9q6 -2 17 -2q8 0 28 4q14 2 25.5 3t21.5 1q47 0 64 -47q12 -35 12 -53v-10.5t-2 -12.5t-6 -22.5t-10 -40.5q-6 -23 -6 -35q0 -2 1 -12.5t3 -26.5q2 -10 2 -43v-24.5t-4 -34.5l8 -88q-4 -35 -5 -45.5t-1 -30.5l8 -213 q-2 -18 -3 -29.5t-2 -20t-1 -17.5v-23v-18.5t2 -16.5l-8 -102q4 -43 6 -67t4 -36t5 -18t9 -15q20 -29 65.5 -47t90.5 -18q49 0 88 21.5t61 62.5q8 14 10.5 23.5t6.5 45.5q6 57 6 64q0 8 -2 16q-4 29 -6 54.5t-2 48.5q0 10 1 21t3 24q0 4 1 6t1 4v4q-4 41 -6 63.5t-3 33 t-1 14.5v8v31q0 12 1 22t1 19q0 8 2 18q0 8 -1 31.5t-3 46.5t-3.5 38t-1.5 25q0 31 7 74q4 27 5 36t1 21q0 18 -2 32.5t-6 45.5t-7.5 54.5t-3.5 33.5q0 125 80 125q16 0 22.5 -1t30.5 -7q8 -2 25 -2q16 0 27 2q59 12 82.5 -5.5t23.5 -72.5q0 -10 -2 -42t-6 -48q-2 -6 -2 -16 q0 -4 -2 -6q2 -37 3 -58.5t1 -38t-3 -33t-7 -43.5v-10v-9t2 -9q6 -31 6 -37q-2 -4 -2 -12q0 -6 -1 -13.5t-1 -17.5v-39l4 -33q-2 -16 -4 -38.5t-2 -51.5q-2 -12 -1 -35.5t3 -54.5q2 -10 2 -18.5v-14.5v-11t-2 -17v-25l2 -102q-6 -82 -11.5 -134.5t-13.5 -87t-21.5 -60.5 t-33.5 -52q-23 -31 -58.5 -57.5t-77.5 -46t-87 -32t-86 -12.5l-95 4q-84 0 -182 43q-35 16 -57.5 29.5t-39.5 31t-32.5 42t-34.5 61.5q-10 18 -16 37t-9 41.5t-4 53t-1 77.5l-2 31q-6 51 -7 76v14t2 23q2 16 3.5 26t1.5 19.5v20.5v30q0 12 1 23.5t5 66.5q-4 27 -6 41 t-3.5 22.5t-1.5 11.5v7l3 65l-3 84q2 31 3.5 47.5t2.5 30.5t1 28.5v39.5v25.5t-1 18.5t-3.5 20.5t-4.5 29.5q-2 16 -3 24.5t-5 38.5q-2 12 -3 21.5t-1 15.5zM465 1524q0 14 4 24.5t25 40.5q10 16 17 32.5t11 33.5q10 35 20.5 45t35.5 10h20q16 -2 28.5 -3t16.5 -1h7t16 2 l61 2q29 0 45 -11t16 -30q0 -12 -2 -20.5t-11 -18.5t-27.5 -25.5t-49.5 -41.5q-10 -10 -20 -21.5t-21 -23.5q-25 -27 -33 -33t-20 -6h-9t-30 4h-10t-23 -2h-10q-57 0 -57 43z" />
<glyph unicode="&#xdb;" horiz-adv-x="1075" d="M92 1292q0 35 17.5 59.5t44.5 24.5q14 0 23 -1t46 -9q6 -2 17 -2q8 0 28 4q14 2 25.5 3t21.5 1q47 0 64 -47q12 -35 12 -53v-10.5t-2 -12.5t-6 -22.5t-10 -40.5q-6 -23 -6 -35q0 -2 1 -12.5t3 -26.5q2 -10 2 -43v-24.5t-4 -34.5l8 -88q-4 -35 -5 -45.5t-1 -30.5l8 -213 q-2 -18 -3 -29.5t-2 -20t-1 -17.5v-23v-18.5t2 -16.5l-8 -102q4 -43 6 -67t4 -36t5 -18t9 -15q20 -29 65.5 -47t90.5 -18q49 0 88 21.5t61 62.5q8 14 10.5 23.5t6.5 45.5q6 57 6 64q0 8 -2 16q-4 29 -6 54.5t-2 48.5q0 10 1 21t3 24q0 4 1 6t1 4v4q-4 41 -6 63.5t-3 33 t-1 14.5v8v31q0 12 1 22t1 19q0 8 2 18q0 8 -1 31.5t-3 46.5t-3.5 38t-1.5 25q0 31 7 74q4 27 5 36t1 21q0 18 -2 32.5t-6 45.5t-7.5 54.5t-3.5 33.5q0 125 80 125q16 0 22.5 -1t30.5 -7q8 -2 25 -2q16 0 27 2q59 12 82.5 -5.5t23.5 -72.5q0 -10 -2 -42t-6 -48q-2 -6 -2 -16 q0 -4 -2 -6q2 -37 3 -58.5t1 -38t-3 -33t-7 -43.5v-10v-9t2 -9q6 -31 6 -37q-2 -4 -2 -12q0 -6 -1 -13.5t-1 -17.5v-39l4 -33q-2 -16 -4 -38.5t-2 -51.5q-2 -12 -1 -35.5t3 -54.5q2 -10 2 -18.5v-14.5v-11t-2 -17v-25l2 -102q-6 -82 -11.5 -134.5t-13.5 -87t-21.5 -60.5 t-33.5 -52q-23 -31 -58.5 -57.5t-77.5 -46t-87 -32t-86 -12.5l-95 4q-84 0 -182 43q-35 16 -57.5 29.5t-39.5 31t-32.5 42t-34.5 61.5q-10 18 -16 37t-9 41.5t-4 53t-1 77.5l-2 31q-6 51 -7 76v14t2 23q2 16 3.5 26t1.5 19.5v20.5v30q0 12 1 23.5t5 66.5q-4 27 -6 41 t-3.5 22.5t-1.5 11.5v7l3 65l-3 84q2 31 3.5 47.5t2.5 30.5t1 28.5v39.5v25.5t-1 18.5t-3.5 20.5t-4.5 29.5q-2 16 -3 24.5t-5 38.5q-2 12 -3 21.5t-1 15.5zM322 1505q0 18 10 33.5t41 44.5q10 10 17 20.5t22 32.5q23 37 41 51.5t47 14.5h12t18 -2h19h16q10 2 17.5 2h11.5 q20 0 34.5 -12.5t30.5 -42.5l19.5 -32.5t14.5 -22t17.5 -18.5t26.5 -24q18 -16 19 -39q0 -14 -10.5 -24t-26.5 -10h-19q-8 2 -15 2h-11h-25q-8 -2 -13 -2h-9q-23 0 -33 14l-33 47q-14 16 -19 21.5t-16 5.5q-14 0 -20 -10.5t-19 -47.5q-10 -33 -41 -32h-9t-11 2 q-10 2 -18.5 3t-12.5 1h-16q-8 -2 -23 -2q-35 0 -34 26z" />
<glyph unicode="&#xdc;" horiz-adv-x="1075" d="M92 1292q0 35 17.5 59.5t44.5 24.5q14 0 23 -1t46 -9q6 -2 17 -2q8 0 28 4q14 2 25.5 3t21.5 1q47 0 64 -47q12 -35 12 -53v-10.5t-2 -12.5t-6 -22.5t-10 -40.5q-6 -23 -6 -35q0 -2 1 -12.5t3 -26.5q2 -10 2 -43v-24.5t-4 -34.5l8 -88q-4 -35 -5 -45.5t-1 -30.5l8 -213 q-2 -18 -3 -29.5t-2 -20t-1 -17.5v-23v-18.5t2 -16.5l-8 -102q4 -43 6 -67t4 -36t5 -18t9 -15q20 -29 65.5 -47t90.5 -18q49 0 88 21.5t61 62.5q8 14 10.5 23.5t6.5 45.5q6 57 6 64q0 8 -2 16q-4 29 -6 54.5t-2 48.5q0 10 1 21t3 24q0 4 1 6t1 4v4q-4 41 -6 63.5t-3 33 t-1 14.5v8v31q0 12 1 22t1 19q0 8 2 18q0 8 -1 31.5t-3 46.5t-3.5 38t-1.5 25q0 31 7 74q4 27 5 36t1 21q0 18 -2 32.5t-6 45.5t-7.5 54.5t-3.5 33.5q0 125 80 125q16 0 22.5 -1t30.5 -7q8 -2 25 -2q16 0 27 2q59 12 82.5 -5.5t23.5 -72.5q0 -10 -2 -42t-6 -48q-2 -6 -2 -16 q0 -4 -2 -6q2 -37 3 -58.5t1 -38t-3 -33t-7 -43.5v-10v-9t2 -9q6 -31 6 -37q-2 -4 -2 -12q0 -6 -1 -13.5t-1 -17.5v-39l4 -33q-2 -16 -4 -38.5t-2 -51.5q-2 -12 -1 -35.5t3 -54.5q2 -10 2 -18.5v-14.5v-11t-2 -17v-25l2 -102q-6 -82 -11.5 -134.5t-13.5 -87t-21.5 -60.5 t-33.5 -52q-23 -31 -58.5 -57.5t-77.5 -46t-87 -32t-86 -12.5l-95 4q-84 0 -182 43q-35 16 -57.5 29.5t-39.5 31t-32.5 42t-34.5 61.5q-10 18 -16 37t-9 41.5t-4 53t-1 77.5l-2 31q-6 51 -7 76v14t2 23q2 16 3.5 26t1.5 19.5v20.5v30q0 12 1 23.5t5 66.5q-4 27 -6 41 t-3.5 22.5t-1.5 11.5v7l3 65l-3 84q2 31 3.5 47.5t2.5 30.5t1 28.5v39.5v25.5t-1 18.5t-3.5 20.5t-4.5 29.5q-2 16 -3 24.5t-5 38.5q-2 12 -3 21.5t-1 15.5zM244 1673q0 47 51 47h16t19 -2h16h12.5t38.5 4h13q47 0 63 -18q4 -4 10 -21.5t6 -25.5l-4 -82q0 -8 2 -19 q2 -10 2 -17v-15q0 -27 -9 -36t-34 -9h-13t-15 2h-27l-47 -2q-6 -2 -13 -2h-14q-31 0 -49 13t-18 38v12t2 16v29q0 12 -1 23.5t-3 29.5q-2 10 -3 18.5t-1 16.5zM582 1655q0 66 71 65h17q18 -2 30.5 -3t14.5 -1h9t17 2q8 2 23 2q61 0 61 -69v-9.5t-2 -27.5l6 -39 q2 -12 3.5 -23.5t1.5 -21.5q0 -29 -15.5 -39t-52.5 -10h-57q-10 2 -21 2l-67 -6q-10 2 -22.5 22.5t-12.5 30.5l4 72q-2 2 -2 6t-1 6t-1 6q-2 10 -3 17.5t-1 17.5z" />
<glyph unicode="&#xdd;" horiz-adv-x="874" d="M10 1319q0 23 16.5 38t39.5 15q14 0 24 -2q16 -2 28.5 -3t16.5 -1h9.5t17.5 2h16q45 0 70 -29q10 -16 17 -33.5t20 -70.5q6 -31 18 -43l6 -10l6 -11q8 -14 11.5 -20t13.5 -29q10 -20 22.5 -41.5t28.5 -44.5q4 -8 11.5 -23.5t17.5 -41.5q14 -25 20 -25q10 0 23.5 29 t40.5 106q4 12 7 18.5t13 20.5q8 10 15.5 25.5t15.5 32.5q2 8 6 15t8 15l15 23q8 12 12 31l12 47q4 20 24.5 39.5t37.5 21.5q2 0 17 -2t38 -6q6 -2 16 -2q12 0 17 2q23 4 38 5t17 1q23 0 38 -21.5t15 -56.5q0 -29 -4 -41t-20 -43q-4 -6 -5 -9t-10 -17q-10 -20 -17 -37 t-15 -31q-4 -8 -8.5 -16.5t-8.5 -18.5q-8 -31 -22 -59q-6 -14 -12.5 -27.5t-14.5 -23.5q-10 -18 -13 -24.5t-9 -24.5l-19 -44l-16 -28l-17 -41q-8 -16 -16 -33.5t-18 -36.5q-31 -61 -43.5 -96t-12.5 -57q0 -8 1 -16.5t5 -49.5q2 -8 2 -15v-14q0 -10 -2 -19t-6 -38 q-6 -37 -6 -61q0 -4 1 -21.5t3 -44.5v-29v-24q-2 -27 -3 -43.5t-1 -18.5q0 -23 8 -47q8 -29 9.5 -37t1.5 -22q0 -51 -14.5 -71.5t-53.5 -20.5q-8 0 -15.5 1t-41.5 7q-4 2 -19 2q-14 0 -22 -2q-37 -4 -45.5 -5t-16.5 -1q-74 0 -74 57v19.5t2.5 19.5t7.5 33.5t13 58.5 q8 33 8 68q0 47 -6 96q-6 35 -7 47t-1 31v26.5t4 30.5q0 8 2 24.5t3 32t2 27.5l1 12l-4 31l2 43q0 10 -18 45l-11 23l-8 31q-33 98 -78 159q-20 27 -26 38t-17 34q-4 10 -9 21.5t-11 21.5q-20 33 -24.5 42t-8.5 28q-4 8 -6 14t-16 39q-27 59 -43.5 108.5t-16.5 65.5z M365 1524q0 14 4 24.5t24 40.5q10 16 17.5 32.5t11.5 33.5q10 35 20.5 45t34.5 10h21q16 -2 28.5 -3t16.5 -1h7t15 2l62 2q29 0 45 -11t16 -30q0 -12 -2 -20.5t-11 -18.5t-27.5 -25.5t-49.5 -41.5q-10 -10 -20.5 -21.5t-20.5 -23.5q-25 -27 -33 -33t-20 -6h-9.5t-29.5 4 h-10.5t-22.5 -2h-10q-57 0 -57 43z" />
<glyph unicode="&#xde;" horiz-adv-x="1085" d="M92 1243q0 41 5 66.5t18.5 40t38 19.5t63.5 5h20.5t20.5 -2h49q33 0 45.5 -8t12.5 -31v-34.5t-3 -81.5q0 -23 6.5 -32t22.5 -18q10 -4 20.5 -6t14.5 -2l111 8q51 -4 79.5 -6t47 -6t34 -11t37.5 -22q39 -23 71 -44t48 -36l7 -7t8 -9t12.5 -17.5t21.5 -31.5q4 -8 19 -23 q23 -25 32 -52.5t13 -74.5v-9t4 -15q2 -4 2 -25q0 -16 1 -34.5t3 -38.5q0 -12 -5 -38t-12.5 -54.5t-16.5 -54.5t-15 -38q-29 -53 -72 -99t-88 -69l-29 -14l-16 -14q-12 -10 -36.5 -20.5t-52.5 -19t-57.5 -13.5t-50.5 -5h-30q-23 2 -39.5 3t-20.5 1q-43 0 -58.5 -15 t-15.5 -58q0 -29 2.5 -41.5t12.5 -34.5q6 -12 9 -28.5t3 -33.5q0 -68 -53 -67h-18.5t-18.5 2q-16 2 -27.5 3t-15.5 1h-9t-14 -2q-16 -2 -29.5 -3t-25.5 -1q-78 0 -78 84q0 14 1 27.5t3 25.5q2 16 3.5 27.5t1.5 15.5t-1.5 14.5t-3.5 26.5q-2 8 -2 20q0 4 1 10.5t6 41.5v6v14 q-6 39 -7 53v7.5t2 13.5q2 18 3.5 45t1.5 49q0 37 -7 80q-2 4 -2 9v9t-2 7q6 55 8.5 85.5t4.5 46t2 22.5v18q0 16 -1 30.5t-3 30.5l-3 27l3 63l-5 64q0 8 2 16q2 10 2.5 16.5t0.5 8.5q0 8 -3.5 44.5t-9.5 92.5q-2 20 -3 45.5t-1 54.5zM358 600q0 -59 16.5 -77.5t69.5 -20.5 l25 -2h25q23 0 30.5 1t30.5 11l25 4q18 4 42.5 17.5t36.5 29.5q23 27 42.5 69t17.5 62q-4 57 -6 68q-20 59 -40 87t-55 44q-76 33 -141 33q-41 0 -75.5 -14.5t-34.5 -32.5l2 -50q-4 -20 -4 -24v-10v-17.5t4 -32.5q2 -10 2 -18v-16t-1 -18.5t-3 -20.5q-6 -45 -7.5 -53.5 t-1.5 -18.5z" />
<glyph unicode="&#xdf;" horiz-adv-x="1034" d="M78 78q0 20 4 56t14 81q2 6 2 18v7.5t-2 19.5q-2 29 -2 35v18v16.5t-4 51.5l2 133v41q-2 27 -2 47.5v69.5v26q2 37 3 60.5t1 25.5t-1 7.5t-3 15.5q-2 12 -3 20.5t-1 12.5q0 2 3 28.5t7 63.5v16q0 6 -1 13.5t-5 44.5q-2 6 -2 20q0 31 7 70t18.5 75.5t26 67.5t28.5 47 q23 23 54.5 43.5t78.5 40.5q16 6 27.5 10t29 7.5t45 5.5t76.5 6q59 -8 88 -11.5t31 -3.5q49 -16 98 -51t76 -73q14 -25 29 -46q29 -37 47 -93t18 -103q0 -121 -67 -201q-10 -14 -11 -18q0 -6 9.5 -13.5t36.5 -23.5q29 -14 53 -43t61 -90q6 -12 10.5 -19.5t7.5 -15.5t6 -19.5 t7 -29.5q8 -35 12 -53.5t6 -27.5t2 -13.5v-6.5q0 -35 -1 -56t-2 -34.5t-4 -22.5t-7 -20l-12 -30q-4 -12 -8 -24.5t-9 -23.5q-4 -10 -8 -17t-8 -15q-6 -8 -22 -25l-21 -18q-4 -10 -9 -16.5t-11 -12.5q-18 -29 -32 -44t-36 -32q-25 -16 -34 -21t-25 -9q-27 -6 -60 -21 q-27 -10 -37 -13t-32 -3l-86 2l-56 -4q-31 0 -55.5 22.5t-24.5 50.5q0 16 2 27l5 22l4 60q2 25 18 42t39 17q18 0 49 -10q37 -12 66 -12q25 0 52.5 20.5t51 53t38.5 69.5t15 72q0 29 -11 69.5t-23 59.5q-2 2 -10.5 11t-17.5 19.5t-16.5 19.5t-9.5 9q-16 14 -42.5 22.5 t-53.5 8.5q-12 0 -25.5 -2t-48.5 -8q-10 -2 -17 -3t-13 -1q-23 0 -42.5 17t-19.5 40v41l-2 59q0 18 17.5 39t39.5 27q8 4 16.5 4h31.5q68 0 104.5 46t36.5 134q0 45 -60 98q-37 37 -106 37q-63 0 -84 -18q-6 -6 -13.5 -19.5t-12.5 -29t-8 -30.5t-3 -24q4 -59 5 -71t1 -21 q0 -23 -1 -40t-3 -27q-2 -6 -2 -17q0 -4 -2 -6l4 -51l-4 -41l4 -72l-2 -71q2 -29 2 -37v-29q0 -12 -1 -21.5t-5 -54.5l2 -12q2 -10 3 -27.5t1 -31.5v-15q-2 -8 -2 -18v-6q2 -23 3 -35t2 -20.5t1 -14.5v-16v-17.5t2 -13.5q0 -4 1 -8t1 -8v-6q-4 -43 -5 -89.5t-1 -80.5 q0 -70 -61 -70q-14 0 -25 2l-37 2q-16 0 -53 -6q-20 -4 -29 -4q-27 0 -47 26.5t-20 61.5z" />
<glyph unicode="&#xe0;" horiz-adv-x="929" d="M33 358q0 37 9 77t24.5 76t36 65.5t44.5 46.5q37 27 59.5 36t55.5 13q82 10 126 15t54 5q20 0 45 -3t41 -9q14 -4 24.5 -6t16.5 -2q29 0 29 37q0 29 -8 58.5t-19 39.5q-10 12 -22 16t-37 6q-16 2 -35.5 3.5t-42.5 5.5q-2 0 -9 -1t-52 -12q-10 -2 -15.5 -3t-13.5 -5 t-20.5 -12t-32.5 -23q-16 -10 -49 -10q-61 0 -80 62q0 2 -6 104q0 47 61.5 80t149.5 33l75 -2l101 4q14 0 38.5 -5.5t51 -13.5t50.5 -18t38 -21q12 -8 26.5 -21t27.5 -29.5t23.5 -32t14.5 -27.5q8 -23 13 -39.5t9.5 -37t7.5 -51t7 -81.5q-8 -53 -9 -64.5t-1 -19.5v-10.5 t2 -36.5l-4 -96q0 -8 2 -19q2 -10 2 -16v-11q-4 -72 -5 -115.5t-1 -92.5q0 -33 14 -84q10 -41 10 -62q0 -23 -17.5 -40t-39.5 -17q-6 0 -15.5 1t-19.5 3t-26.5 2h-36.5q-14 0 -20.5 -1t-35.5 -5h-10q-20 0 -28.5 6t-22.5 31q-4 10 -15 10q-6 0 -11 -3t-32 -24 q-59 -41 -141 -41q-8 0 -25.5 2t-38 5.5t-40 6.5t-27.5 5q-18 6 -41.5 20.5t-47.5 35t-46.5 44t-36.5 45.5q-25 39 -25 43l-16 84q-8 31 -10 50.5t-2 45.5zM217 1364q0 43 49 43q4 0 14.5 -1t63.5 -5q33 4 40 5t24 1q35 0 47 -15.5t24 -68.5q6 -31 15 -43q10 -20 20 -43 t23 -45q4 -10 6 -17.5t2 -11.5q0 -10 -11.5 -22.5t-21.5 -12.5l-59 2l-13 -2q-23 -6 -30 -6q-31 0 -68 62q-16 27 -27.5 40t-38.5 40q-35 31 -47 51t-12 49zM268 334q0 -25 9.5 -48.5t24.5 -42t33.5 -29.5t37.5 -11q100 0 141 20q29 14 53.5 53t24.5 74q0 29 -13.5 56.5 t-33.5 46.5q-16 12 -49 19t-74 7q-53 0 -81 -12t-44 -43q-29 -51 -29 -90z" />
<glyph unicode="&#xe1;" horiz-adv-x="929" d="M33 358q0 37 9 77t24.5 76t36 65.5t44.5 46.5q37 27 59.5 36t55.5 13q82 10 126 15t54 5q20 0 45 -3t41 -9q14 -4 24.5 -6t16.5 -2q29 0 29 37q0 29 -8 58.5t-19 39.5q-10 12 -22 16t-37 6q-16 2 -35.5 3.5t-42.5 5.5q-2 0 -9 -1t-52 -12q-10 -2 -15.5 -3t-13.5 -5 t-20.5 -12t-32.5 -23q-16 -10 -49 -10q-61 0 -80 62q0 2 -6 104q0 47 61.5 80t149.5 33l75 -2l101 4q14 0 38.5 -5.5t51 -13.5t50.5 -18t38 -21q12 -8 26.5 -21t27.5 -29.5t23.5 -32t14.5 -27.5q8 -23 13 -39.5t9.5 -37t7.5 -51t7 -81.5q-8 -53 -9 -64.5t-1 -19.5v-10.5 t2 -36.5l-4 -96q0 -8 2 -19q2 -10 2 -16v-11q-4 -72 -5 -115.5t-1 -92.5q0 -33 14 -84q10 -41 10 -62q0 -23 -17.5 -40t-39.5 -17q-6 0 -15.5 1t-19.5 3t-26.5 2h-36.5q-14 0 -20.5 -1t-35.5 -5h-10q-20 0 -28.5 6t-22.5 31q-4 10 -15 10q-6 0 -11 -3t-32 -24 q-59 -41 -141 -41q-8 0 -25.5 2t-38 5.5t-40 6.5t-27.5 5q-18 6 -41.5 20.5t-47.5 35t-46.5 44t-36.5 45.5q-25 39 -25 43l-16 84q-8 31 -10 50.5t-2 45.5zM268 334q0 -25 9.5 -48.5t24.5 -42t33.5 -29.5t37.5 -11q100 0 141 20q29 14 53.5 53t24.5 74q0 29 -13.5 56.5 t-33.5 46.5q-16 12 -49 19t-74 7q-53 0 -81 -12t-44 -43q-29 -51 -29 -90zM383 1163q0 16 12.5 51t30.5 76l10 23l13 45q6 25 29.5 39t58.5 14h13t19 -2q8 -2 19 -2q4 0 13 1t20 3q8 2 15 2h13q27 0 43.5 -13.5t16.5 -33.5q0 -31 -33 -57l-12 -13l-13 -18q-12 -16 -30 -31 q-20 -18 -27.5 -27.5t-18.5 -33.5q-18 -39 -30.5 -48.5t-42.5 -7.5h-31h-13t-12 -2q-10 -2 -17 -3t-11 -1q-14 0 -24.5 11.5t-10.5 27.5z" />
</font>
</defs>
</svg>
